<svg width="20" height="28" viewBox="0 0 20 28" fill="none" xmlns="http://www.w3.org/2000/svg">
  <path d="M10 0C8.52658 0 7.1135 0.614582 6.07163 1.70854C5.02976 2.80251 4.44444 4.28624 4.44444 5.83333V14C4.44444 15.5471 5.02976 17.0308 6.07163 18.1248C7.1135 19.2188 8.52658 19.8333 10 19.8333C11.4734 19.8333 12.8865 19.2188 13.9284 18.1248C14.9702 17.0308 15.5556 15.5471 15.5556 14V5.83333C15.5556 4.28624 14.9702 2.80251 13.9284 1.70854C12.8865 0.614582 11.4734 0 10 0ZM1.11111 12.8333C1.4058 12.8333 1.68841 12.9562 1.89679 13.175C2.10516 13.3938 2.22222 13.6906 2.22222 14C2.22222 16.1659 3.04166 18.2432 4.50028 19.7747C5.9589 21.3063 7.93721 22.1667 10 22.1667C12.0628 22.1667 14.0411 21.3063 15.4997 19.7747C16.9583 18.2432 17.7778 16.1659 17.7778 14C17.7778 13.6906 17.8948 13.3938 18.1032 13.175C18.3116 12.9562 18.5942 12.8333 18.8889 12.8333C19.1836 12.8333 19.4662 12.9562 19.6746 13.175C19.8829 13.3938 20 13.6906 20 14C20.0005 16.5831 19.0941 19.0758 17.4542 21.0013C15.8143 22.9268 13.556 24.15 11.1111 24.437V26.8333C11.1111 27.1428 10.994 27.4395 10.7857 27.6583C10.5773 27.8771 10.2947 28 10 28C9.70532 28 9.4227 27.8771 9.21433 27.6583C9.00595 27.4395 8.88889 27.1428 8.88889 26.8333V24.437C6.44402 24.15 4.18569 22.9268 2.5458 21.0013C0.905906 19.0758 -0.000472175 16.5831 1.84535e-07 14C1.84535e-07 13.6906 0.117064 13.3938 0.325437 13.175C0.533811 12.9562 0.816426 12.8333 1.11111 12.8333Z" fill="white"/>
</svg>
