<svg width="26" height="26" viewBox="0 0 26 26" fill="none" xmlns="http://www.w3.org/2000/svg">
<path d="M15.5385 25.9262C15.7229 25.978 15.9478 26.0026 16.2132 25.9998C16.4795 25.997 16.702 25.9674 16.8808 25.9109L26 22.9116C26 22.2673 25.7789 21.7415 25.3366 21.3342C24.8943 20.9259 24.3453 20.7218 23.6898 20.7218H16.4855C16.0218 20.7218 15.5469 20.694 15.0609 20.6385C14.5729 20.582 14.1181 20.4802 13.6963 20.333L11.5006 19.6026C11.3507 19.5508 11.2408 19.4531 11.171 19.3096C11.1012 19.1661 11.0895 19.0189 11.1361 18.868C11.1826 18.7421 11.2767 18.6463 11.4182 18.5806C11.5597 18.5139 11.7055 18.5065 11.8554 18.5584L13.8569 19.2555C14.2368 19.3906 14.6526 19.491 15.1042 19.5568C15.5567 19.6216 16.047 19.654 16.5749 19.654H18.2538C18.5173 19.654 18.7282 19.579 18.8865 19.429C19.0448 19.2791 19.1239 19.068 19.1239 18.7958C19.1239 18.4366 18.9801 18.0622 18.6923 17.6725C18.4056 17.2827 18.0722 17.0208 17.6923 16.8865L9.28262 13.8192C9.15505 13.7729 9.02795 13.7368 8.90132 13.7108C8.77375 13.6849 8.6378 13.672 8.49347 13.672H5.58689V23.0268L15.5385 25.9262ZM0 23.499C0 23.9248 0.143397 24.2803 0.430191 24.5654C0.717916 24.8514 1.07594 24.9945 1.50427 24.9945H2.6859C3.11423 24.9945 3.47179 24.8514 3.75858 24.5654C4.04631 24.2803 4.19017 23.9248 4.19017 23.499V15.1675C4.19017 14.7416 4.04631 14.3862 3.75858 14.101C3.47086 13.815 3.1133 13.672 2.6859 13.672H1.50427C1.07594 13.672 0.717916 13.815 0.430191 14.101C0.143397 14.3871 0 14.7426 0 15.1675V23.499ZM18.5862 12.1612C18.3087 12.1612 18.0373 12.1107 17.7719 12.0098C17.5056 11.9099 17.2598 11.759 17.0344 11.5572L13.3275 8.02183C12.713 7.434 12.2004 6.77581 11.7897 6.04727C11.3791 5.3178 11.1738 4.52677 11.1738 3.67418C11.1738 2.65034 11.5323 1.78201 12.2493 1.06921C12.9662 0.356402 13.8392 0 14.8681 0C15.6307 0 16.3244 0.205047 16.9492 0.615141C17.574 1.02524 18.1192 1.52327 18.5848 2.10925C19.0504 1.52327 19.596 1.02524 20.2218 0.615141C20.8456 0.205047 21.5393 0 22.3029 0C23.3327 0 24.2061 0.356402 24.9231 1.06921C25.6401 1.78201 25.9991 2.65034 26 3.67418C26 4.52677 25.7961 5.3178 25.3882 6.04727C24.9804 6.77674 24.4687 7.43493 23.8532 8.02183L20.138 11.5572C19.9135 11.759 19.6682 11.9099 19.4019 12.0098C19.1356 12.1098 18.8637 12.1603 18.5862 12.1612Z" fill="white"/>
</svg>
