<svg width="24" height="26" viewBox="0 0 24 26" fill="none" xmlns="http://www.w3.org/2000/svg">
<path d="M12 11.2822C13.6824 11.2822 15.0948 12.3561 15.4938 13.8081C15.9954 15.6286 15.9276 17.6238 18.1326 18.6598C20.0898 19.2872 20.8302 20.0757 20.8302 22.1895C20.8302 23.8767 19.2978 25.6701 17.322 25.8939C15.1128 26.2065 13.3932 25.7978 11.9994 25.0495C10.6056 25.7978 8.88544 26.207 6.67925 25.8939C4.70226 25.6701 3.17046 23.8705 3.17046 22.1895C3.17046 20.1209 3.96066 19.2454 5.91425 18.6457C8.31844 17.4887 7.99564 15.4607 8.53204 13.7188C8.75255 13.0139 9.20975 12.3954 9.83504 11.9561C10.4603 11.5168 11.22 11.2803 12 11.2822ZM23.0142 10.0251C22.4184 9.53736 19.9866 11.4416 19.2216 12.3832C18.7566 12.8857 18.4674 13.5763 18.4674 14.3382C18.4674 15.8705 19.6314 17.1128 21.0636 17.1128C22.1532 17.1128 23.0856 16.399 23.4714 15.3839C24.2208 13.5583 24.2622 11.0459 23.0142 10.0251ZM0.984672 10.0251C-0.261522 11.0459 -0.221322 13.5583 0.529274 15.3839C0.915073 16.399 1.84687 17.1128 2.93586 17.1128C4.36926 17.1128 5.53205 15.8705 5.53205 14.3382C5.53205 13.5763 5.24345 12.8857 4.77846 12.3832C4.01286 11.4416 1.58167 9.53736 0.984672 10.0251ZM15.201 0.0170026C21.2538 0.984639 20.829 10.5875 15.9828 9.81375C14.5848 9.58993 13.5468 8.39056 13.389 6.95776C13.2288 5.50065 12.8682 -0.354904 15.201 0.0170026ZM8.79904 0.0170026C11.1324 -0.355469 10.7712 5.50008 10.611 6.95719C10.4532 8.39056 9.41644 9.58936 8.01844 9.81319C3.17106 10.5881 2.74687 0.984639 8.79904 0.0170026Z" fill="white"/>
</svg>
