<svg width="26" height="26" viewBox="0 0 26 26" fill="none" xmlns="http://www.w3.org/2000/svg">
<path d="M20.1306 0C18.7021 0 17.311 0.169446 15.9636 0.475459V0.634789C15.9386 0.656602 15.8965 0.618666 15.8544 0.580731C15.8123 0.542795 15.7702 0.50486 15.7452 0.526672C11.2289 1.611 7.28015 4.2431 4.47301 7.2261C2.3714 9.4643 0.893596 11.8985 0.291621 14.1114C-0.00905536 15.2115 -0.091398 16.2674 0.11134 17.2221C0.314701 18.1705 0.823729 19.0114 1.6353 19.5931C2.02581 19.8713 2.5024 19.9156 2.96402 19.8586C3.42501 19.8017 3.90535 19.6437 4.42311 19.4224C5.22135 19.0929 6.11116 18.6187 7.06447 18.1107C7.35529 17.9557 7.65202 17.7976 7.95386 17.6394C10.4054 16.3559 13.1751 15.1104 15.5019 15.3633L15.4271 15.3253C14.9967 15.0788 14.716 14.6741 14.5538 14.1936C13.6305 14.2252 12.701 14.4212 11.784 14.7057C11.4846 13.985 11.2538 13.2895 11.1041 12.6003C12.202 12.1514 13.3311 11.7531 14.4914 11.399C14.5662 10.988 14.666 10.5581 14.7908 10.1155C13.4621 10.5012 12.177 10.9438 10.9294 11.4433C10.8359 10.4127 10.9357 9.39475 11.2413 8.37681C12.8632 7.72558 14.5101 7.15655 16.157 6.72029C16.2755 6.48635 16.4065 6.24609 16.5375 6.01216L16.5375 6.01208C16.6623 5.79081 16.787 5.56955 16.918 5.36093C15.19 5.75925 13.487 6.29668 11.8028 6.92894C12.1958 6.12597 12.726 5.30403 13.406 4.46502C15.0091 4.09451 16.6123 3.84161 17.9909 3.74361C18.3091 3.3162 18.6272 2.91788 18.9516 2.55306C17.6853 2.56445 16.2193 2.74021 14.6972 3.02852C15.1651 2.5537 15.6829 2.07192 16.2505 1.58255C17.5044 1.29866 18.8019 1.14123 20.1306 1.13933C20.2242 1.13933 20.3178 1.13933 20.4051 1.14565C20.9665 0.699279 21.5217 0.364814 22.0582 0.175136C22.1143 0.156168 22.1705 0.139097 22.2266 0.123291C21.5217 0.0417292 20.8168 0.0025291 20.1306 0.0025291V0ZM24.0606 0.634789C23.7612 0.628466 23.4493 0.689163 23.1436 0.795383C22.6508 0.96799 22.1518 1.26136 21.6465 1.64893C21.4157 1.79625 21.1786 1.97391 20.9291 2.18383C19.8187 3.1221 18.5711 4.6743 17.5169 6.56855C16.4564 8.46533 15.7889 10.3431 15.5643 11.7973C15.5144 12.1198 15.4895 12.4233 15.477 12.6951C15.4146 13.3337 15.4271 13.9217 15.5331 14.4339C15.6267 14.8701 15.7951 15.2748 16.0696 15.5846C16.0696 15.5846 9.57573 25.2249 9.78786 25.4436C10 25.6623 10.3553 26 10.761 26C11.1667 26 17.0428 16.141 17.0428 16.141C17.4482 16.2168 17.8787 16.1599 18.2904 16.0145C18.8955 15.8059 19.513 15.4139 20.1431 14.8828C21.3969 13.8142 22.7007 12.1767 23.8111 10.1787C24.9277 8.18713 25.6451 6.20816 25.9008 4.56808C26.0256 3.75309 26.0381 3.01209 25.9071 2.37666C25.7698 1.74124 25.4642 1.17347 24.9277 0.864931C24.6595 0.711292 24.3663 0.640479 24.0606 0.634789ZM24.0294 1.76906C24.1667 1.76906 24.2852 1.80257 24.3725 1.85568C24.5597 1.96127 24.7156 2.18193 24.8092 2.61439C24.8965 3.04939 24.8965 3.66647 24.7842 4.39421C24.5659 5.84145 23.8922 7.72558 22.8379 9.62236C21.7775 11.5128 20.5361 13.0682 19.4195 14.0102C18.8643 14.4781 18.3403 14.7942 17.9286 14.9397C17.5106 15.0851 17.2486 15.0598 17.0615 14.9523C16.8806 14.8512 16.7184 14.6299 16.6248 14.1936C16.5375 13.7637 16.5375 13.144 16.6498 12.4169C16.8743 10.9691 17.5418 9.08494 18.6023 7.19448C19.6565 5.2977 20.9041 3.74487 22.0145 2.80597C22.5759 2.33367 23.0937 2.01564 23.5054 1.86706C23.7175 1.79751 23.8859 1.7678 24.0294 1.76906ZM13.8301 2.30143C13.4559 2.68331 13.1065 3.0633 12.7884 3.44265C11.7591 3.6924 10.7423 3.98324 9.78786 4.30759C11.0417 3.51473 12.3954 2.82936 13.8301 2.30143ZM11.6718 4.91519C11.0979 5.77822 10.655 6.64442 10.3431 7.51061C8.80224 8.14287 7.29263 8.851 5.8142 9.59075C6.08868 8.69294 6.48791 7.7319 7.03063 6.695C8.25329 6.05009 9.91262 5.42416 11.6718 4.91519ZM5.09682 8.21242C4.97049 8.54127 4.75848 8.82993 4.55244 9.11046C4.31084 9.43943 4.07744 9.75721 4 10.1155C3.72486 10.2598 3.5729 10.4463 3.42142 10.6322C3.27409 10.8129 3.12722 10.9932 2.86795 11.1335C3.46868 10.1598 4.22349 9.17346 5.09682 8.21242ZM9.95629 8.90791C9.75667 9.90056 9.73172 10.8932 9.85648 11.8985C8.34686 12.556 6.89963 13.2895 5.48982 14.0988C5.40249 13.6499 5.34634 13.182 5.34011 12.6951C5.33387 12.1704 5.3713 11.6203 5.47111 11.0449C6.93082 10.2862 8.4342 9.56546 9.95629 8.90791ZM4.25468 11.6772C4.22349 12.0313 4.21101 12.379 4.21725 12.7141C4.22973 13.4096 4.3233 14.0671 4.47925 14.6994C3.35639 15.3822 2.25974 16.1157 1.18991 16.8807C1.06202 16.1915 1.12066 15.3443 1.37455 14.4086C1.49994 13.947 1.67336 13.4665 1.89107 12.9733C2.66646 12.5371 3.4562 12.1071 4.25468 11.6772ZM10.0623 13.0429C10.2183 13.7194 10.4429 14.3959 10.7298 15.0788C9.582 15.5277 8.47163 16.0904 7.4361 16.6278C7.20529 16.7479 6.98072 16.8681 6.76239 16.9882C6.36939 16.4255 6.05125 15.8438 5.82044 15.2242C7.18658 14.4212 8.59639 13.6941 10.0623 13.0429ZM4.8473 15.8059C5.09058 16.4065 5.39625 16.9755 5.75806 17.513C5.1093 17.8544 4.51668 18.1579 3.99892 18.3728C3.53106 18.5688 3.12371 18.6953 2.82616 18.7332C2.5286 18.7712 2.37265 18.7269 2.28282 18.6574C2.00647 18.4614 1.78564 18.2337 1.61347 17.9745C2.66584 17.2095 3.73692 16.4824 4.8473 15.8059Z" fill="white"/>
<path d="M20.1306 0C18.7021 0 17.311 0.169446 15.9636 0.475459V0.634789C15.9386 0.656602 15.8965 0.618666 15.8544 0.580731C15.8123 0.542795 15.7702 0.50486 15.7452 0.526672C11.2289 1.611 7.28015 4.2431 4.47301 7.2261C2.3714 9.4643 0.893596 11.8985 0.291621 14.1114C-0.00905536 15.2115 -0.091398 16.2674 0.11134 17.2221C0.314701 18.1705 0.823729 19.0114 1.6353 19.5931C2.02581 19.8713 2.5024 19.9156 2.96402 19.8586C3.42501 19.8017 3.90535 19.6437 4.42311 19.4224C5.22135 19.0929 6.11116 18.6187 7.06447 18.1107C7.35529 17.9557 7.65202 17.7976 7.95386 17.6394C10.4054 16.3559 13.1751 15.1104 15.5019 15.3633L15.4271 15.3253C14.9967 15.0788 14.716 14.6741 14.5538 14.1936C13.6305 14.2252 12.701 14.4212 11.784 14.7057C11.4846 13.985 11.2538 13.2895 11.1041 12.6003C12.202 12.1514 13.3311 11.7531 14.4914 11.399C14.5662 10.988 14.666 10.5581 14.7908 10.1155C13.4621 10.5012 12.177 10.9438 10.9294 11.4433C10.8359 10.4127 10.9357 9.39475 11.2413 8.37681C12.8632 7.72558 14.5101 7.15655 16.157 6.72029C16.2755 6.48635 16.4065 6.24609 16.5375 6.01216L16.5375 6.01208C16.6623 5.79081 16.787 5.56955 16.918 5.36093C15.19 5.75925 13.487 6.29668 11.8028 6.92894C12.1958 6.12597 12.726 5.30403 13.406 4.46502C15.0091 4.09451 16.6123 3.84161 17.9909 3.74361C18.3091 3.3162 18.6272 2.91788 18.9516 2.55306C17.6853 2.56445 16.2193 2.74021 14.6972 3.02852C15.1651 2.5537 15.6829 2.07192 16.2505 1.58255C17.5044 1.29866 18.8019 1.14123 20.1306 1.13933C20.2242 1.13933 20.3178 1.13933 20.4051 1.14565C20.9665 0.699279 21.5217 0.364814 22.0582 0.175136C22.1143 0.156168 22.1705 0.139097 22.2266 0.123291C21.5217 0.0417292 20.8168 0.0025291 20.1306 0.0025291V0ZM24.0606 0.634789C23.7612 0.628466 23.4493 0.689163 23.1436 0.795383C22.6508 0.96799 22.1518 1.26136 21.6465 1.64893C21.4157 1.79625 21.1786 1.97391 20.9291 2.18383C19.8187 3.1221 18.5711 4.6743 17.5169 6.56855C16.4564 8.46533 15.7889 10.3431 15.5643 11.7973C15.5144 12.1198 15.4895 12.4233 15.477 12.6951C15.4146 13.3337 15.4271 13.9217 15.5331 14.4339C15.6267 14.8701 15.7951 15.2748 16.0696 15.5846C16.0696 15.5846 9.57573 25.2249 9.78786 25.4436C10 25.6623 10.3553 26 10.761 26C11.1667 26 17.0428 16.141 17.0428 16.141C17.4482 16.2168 17.8787 16.1599 18.2904 16.0145C18.8955 15.8059 19.513 15.4139 20.1431 14.8828C21.3969 13.8142 22.7007 12.1767 23.8111 10.1787C24.9277 8.18713 25.6451 6.20816 25.9008 4.56808C26.0256 3.75309 26.0381 3.01209 25.9071 2.37666C25.7698 1.74124 25.4642 1.17347 24.9277 0.864931C24.6595 0.711292 24.3663 0.640479 24.0606 0.634789ZM24.0294 1.76906C24.1667 1.76906 24.2852 1.80257 24.3725 1.85568C24.5597 1.96127 24.7156 2.18193 24.8092 2.61439C24.8965 3.04939 24.8965 3.66647 24.7842 4.39421C24.5659 5.84145 23.8922 7.72558 22.8379 9.62236C21.7775 11.5128 20.5361 13.0682 19.4195 14.0102C18.8643 14.4781 18.3403 14.7942 17.9286 14.9397C17.5106 15.0851 17.2486 15.0598 17.0615 14.9523C16.8806 14.8512 16.7184 14.6299 16.6248 14.1936C16.5375 13.7637 16.5375 13.144 16.6498 12.4169C16.8743 10.9691 17.5418 9.08494 18.6023 7.19448C19.6565 5.2977 20.9041 3.74487 22.0145 2.80597C22.5759 2.33367 23.0937 2.01564 23.5054 1.86706C23.7175 1.79751 23.8859 1.7678 24.0294 1.76906ZM13.8301 2.30143C13.4559 2.68331 13.1065 3.0633 12.7884 3.44265C11.7591 3.6924 10.7423 3.98324 9.78786 4.30759C11.0417 3.51473 12.3954 2.82936 13.8301 2.30143ZM11.6718 4.91519C11.0979 5.77822 10.655 6.64442 10.3431 7.51061C8.80224 8.14287 7.29263 8.851 5.8142 9.59075C6.08868 8.69294 6.48791 7.7319 7.03063 6.695C8.25329 6.05009 9.91262 5.42416 11.6718 4.91519ZM5.09682 8.21242C4.97049 8.54127 4.75848 8.82993 4.55244 9.11046C4.31084 9.43943 4.07744 9.75721 4 10.1155C3.72486 10.2598 3.5729 10.4463 3.42142 10.6322C3.27409 10.8129 3.12722 10.9932 2.86795 11.1335C3.46868 10.1598 4.22349 9.17346 5.09682 8.21242ZM9.95629 8.90791C9.75667 9.90056 9.73172 10.8932 9.85648 11.8985C8.34686 12.556 6.89963 13.2895 5.48982 14.0988C5.40249 13.6499 5.34634 13.182 5.34011 12.6951C5.33387 12.1704 5.3713 11.6203 5.47111 11.0449C6.93082 10.2862 8.4342 9.56546 9.95629 8.90791ZM4.25468 11.6772C4.22349 12.0313 4.21101 12.379 4.21725 12.7141C4.22973 13.4096 4.3233 14.0671 4.47925 14.6994C3.35639 15.3822 2.25974 16.1157 1.18991 16.8807C1.06202 16.1915 1.12066 15.3443 1.37455 14.4086C1.49994 13.947 1.67336 13.4665 1.89107 12.9733C2.66646 12.5371 3.4562 12.1071 4.25468 11.6772ZM10.0623 13.0429C10.2183 13.7194 10.4429 14.3959 10.7298 15.0788C9.582 15.5277 8.47163 16.0904 7.4361 16.6278C7.20529 16.7479 6.98072 16.8681 6.76239 16.9882C6.36939 16.4255 6.05125 15.8438 5.82044 15.2242C7.18658 14.4212 8.59639 13.6941 10.0623 13.0429ZM4.8473 15.8059C5.09058 16.4065 5.39625 16.9755 5.75806 17.513C5.1093 17.8544 4.51668 18.1579 3.99892 18.3728C3.53106 18.5688 3.12371 18.6953 2.82616 18.7332C2.5286 18.7712 2.37265 18.7269 2.28282 18.6574C2.00647 18.4614 1.78564 18.2337 1.61347 17.9745C2.66584 17.2095 3.73692 16.4824 4.8473 15.8059Z" stroke="#2F2410"/>
</svg>
