<svg width="687" height="474" viewBox="0 0 687 474" fill="none" xmlns="http://www.w3.org/2000/svg">
<g opacity="0.7">
<path d="M574.329 241.692C575.07 241.756 575.946 241.686 576.957 241.482C577.971 241.278 578.799 241.003 579.44 240.658L612.053 222.578C611.584 220.12 610.358 218.274 608.374 217.042C606.389 215.806 604.146 215.426 601.645 215.903L574.156 221.145C572.386 221.483 570.554 221.722 568.659 221.864C566.756 222.003 564.947 221.946 563.23 221.691L554.321 220.502C553.711 220.413 553.221 220.12 552.85 219.624C552.479 219.127 552.328 218.574 552.395 217.964C552.481 217.45 552.771 217.016 553.263 216.662C553.754 216.305 554.305 216.171 554.915 216.259L563.059 217.463C564.607 217.702 566.266 217.783 568.037 217.705C569.811 217.623 571.705 217.39 573.72 217.006L580.126 215.784C581.131 215.593 581.881 215.153 582.376 214.466C582.871 213.778 583.02 212.915 582.822 211.877C582.56 210.506 581.739 209.182 580.358 207.904C578.98 206.626 577.517 205.869 575.97 205.633L541.65 200.048C541.129 199.964 540.618 199.919 540.116 199.912C539.61 199.906 539.082 199.956 538.532 200.061L527.441 202.176L534.248 237.87L574.329 241.692ZM513.274 243.737C513.583 245.362 514.389 246.614 515.691 247.493C516.997 248.375 518.467 248.66 520.101 248.349L524.61 247.489C526.245 247.177 527.505 246.371 528.391 245.071C529.281 243.774 529.572 242.313 529.262 240.688L523.2 208.898C522.89 207.273 522.082 206.022 520.777 205.143C519.471 204.261 518.003 203.975 516.372 204.286L511.863 205.146C510.229 205.458 508.967 206.264 508.077 207.565C507.191 208.865 506.902 210.326 507.212 211.947L513.274 243.737ZM575.942 186.953C574.884 187.155 573.811 187.16 572.725 186.968C571.636 186.78 570.589 186.383 569.582 185.777L552.866 174.985C550.093 173.189 547.658 171.05 545.561 168.569C543.464 166.085 542.105 163.216 541.484 159.963C540.739 156.056 541.475 152.482 543.692 149.24C545.91 145.999 548.981 144.004 552.907 143.255C555.817 142.7 558.613 142.978 561.296 144.088C563.978 145.198 566.421 146.702 568.623 148.599C569.973 146.024 571.693 143.727 573.782 141.707C575.864 139.688 578.362 138.401 581.276 137.846C585.205 137.096 588.797 137.821 592.051 140.019C595.306 142.217 597.307 145.269 598.056 149.175C598.676 152.428 598.474 155.595 597.448 158.675C596.423 161.755 594.949 164.639 593.028 167.326L581.424 183.519C580.715 184.452 579.888 185.206 578.945 185.782C578.001 186.357 577.001 186.747 575.942 186.953Z" fill="white" fill-opacity="0.04"/>
<path d="M534.507 330.669C534.92 330.545 535.378 330.321 535.879 329.996C536.382 329.67 536.77 329.346 537.042 329.023L550.776 312.338C550.001 311.113 548.947 310.379 547.615 310.137C546.282 309.893 544.992 310.165 543.746 310.955L530.042 319.629C529.16 320.187 528.223 320.706 527.232 321.186C526.236 321.666 525.248 322.02 524.269 322.248L519.213 323.502C518.865 323.584 518.539 323.531 518.233 323.342C517.927 323.153 517.728 322.887 517.635 322.544C517.572 322.249 517.635 321.953 517.825 321.658C518.014 321.36 518.283 321.171 518.63 321.089L523.277 320.005C524.162 319.805 525.074 319.495 526.012 319.076C526.951 318.655 527.922 318.126 528.926 317.49L532.12 315.469C532.621 315.152 532.932 314.755 533.052 314.279C533.173 313.803 533.069 313.307 532.742 312.789C532.309 312.106 531.585 311.567 530.568 311.172C529.553 310.776 528.604 310.679 527.72 310.881L508.03 315.172C507.732 315.238 507.447 315.322 507.174 315.425C506.901 315.53 506.626 315.669 506.352 315.842L500.823 319.342L512.087 337.136L534.507 330.669ZM502.029 344.761C502.541 345.571 503.242 346.075 504.131 346.272C505.023 346.469 505.876 346.31 506.691 345.795L508.938 344.372C509.753 343.856 510.261 343.154 510.462 342.264C510.666 341.375 510.512 340.526 509.999 339.716L499.967 323.869C499.454 323.059 498.753 322.556 497.862 322.36C496.97 322.162 496.118 322.321 495.305 322.835L493.058 324.258C492.243 324.774 491.734 325.477 491.531 326.367C491.33 327.257 491.485 328.106 491.997 328.914L502.029 344.761ZM523.73 300.816C523.203 301.151 522.626 301.381 521.999 301.509C521.372 301.64 520.723 301.649 520.051 301.536L508.744 299.275C506.867 298.897 505.099 298.262 503.441 297.37C501.782 296.477 500.439 295.22 499.412 293.598C498.179 291.651 497.816 289.567 498.321 287.348C498.827 285.129 500.058 283.4 502.015 282.161C503.466 281.243 505.032 280.798 506.714 280.826C508.397 280.853 510.033 281.144 511.625 281.698C511.805 280.023 512.243 278.419 512.939 276.885C513.632 275.354 514.705 274.129 516.157 273.209C518.116 271.969 520.206 271.596 522.428 272.088C524.651 272.581 526.379 273.8 527.613 275.747C528.64 277.368 529.205 279.118 529.307 280.997C529.41 282.876 529.229 284.744 528.765 286.601L525.955 297.799C525.771 298.453 525.486 299.036 525.1 299.546C524.713 300.057 524.257 300.481 523.73 300.816Z" fill="white" fill-opacity="0.05"/>
<path d="M451.471 202.011C451.901 202.038 452.408 201.986 452.99 201.854C453.575 201.722 454.051 201.551 454.418 201.343L473.068 190.425C472.763 189.007 472.028 187.955 470.862 187.268C469.695 186.579 468.39 186.389 466.948 186.699L451.092 190.109C450.071 190.329 449.013 190.492 447.917 190.6C446.816 190.707 445.767 190.698 444.769 190.574L439.591 190.005C439.237 189.962 438.949 189.799 438.727 189.516C438.505 189.234 438.41 188.915 438.441 188.561C438.484 188.262 438.646 188.007 438.926 187.795C439.206 187.581 439.523 187.496 439.878 187.539L444.613 188.126C445.513 188.244 446.475 188.268 447.5 188.199C448.527 188.127 449.621 187.967 450.783 187.717L454.478 186.922C455.058 186.797 455.487 186.533 455.764 186.128C456.042 185.723 456.116 185.221 455.987 184.622C455.817 183.831 455.323 183.075 454.506 182.353C453.69 181.631 452.832 181.213 451.933 181.097L431.972 178.326C431.67 178.285 431.373 178.266 431.082 178.268C430.789 178.272 430.483 178.308 430.166 178.376L423.769 179.752L428.196 200.34L451.471 202.011ZM416.124 204.024C416.325 204.961 416.809 205.675 417.575 206.167C418.344 206.661 419.2 206.806 420.142 206.603L422.743 206.044C423.686 205.841 424.405 205.357 424.901 204.592C425.399 203.828 425.547 202.978 425.346 202.041L421.403 183.704C421.201 182.767 420.716 182.053 419.948 181.561C419.179 181.068 418.325 180.922 417.384 181.125L414.783 181.684C413.841 181.887 413.121 182.371 412.623 183.137C412.127 183.902 411.979 184.752 412.181 185.687L416.124 204.024ZM451.663 170.274C451.053 170.405 450.432 170.423 449.8 170.326C449.166 170.232 448.554 170.017 447.962 169.679L438.131 163.653C436.5 162.65 435.06 161.444 433.812 160.035C432.563 158.624 431.736 156.98 431.333 155.104C430.848 152.85 431.226 150.769 432.467 148.861C433.708 146.953 435.46 145.756 437.725 145.269C439.403 144.908 441.027 145.031 442.596 145.638C444.165 146.244 445.601 147.082 446.903 148.152C447.65 146.642 448.615 145.287 449.798 144.089C450.977 142.891 452.407 142.111 454.088 141.75C456.354 141.262 458.445 141.633 460.36 142.863C462.276 144.092 463.477 145.834 463.963 148.086C464.367 149.963 464.293 151.8 463.74 153.599C463.188 155.397 462.373 157.088 461.296 158.671L454.793 168.21C454.394 168.761 453.926 169.209 453.387 169.555C452.848 169.901 452.274 170.141 451.663 170.274Z" fill="white" fill-opacity="0.05"/>
<path d="M666.457 341.982C666.87 341.859 667.327 341.635 667.828 341.31C668.332 340.984 668.719 340.66 668.991 340.337L682.726 323.652C681.95 322.426 680.896 321.692 679.564 321.45C678.232 321.206 676.942 321.479 675.695 322.268L661.991 330.943C661.109 331.501 660.173 332.02 659.181 332.499C658.185 332.98 657.197 333.334 656.218 333.561L651.162 334.816C650.814 334.898 650.488 334.844 650.182 334.655C649.877 334.467 649.677 334.201 649.584 333.858C649.521 333.562 649.585 333.267 649.775 332.971C649.964 332.674 650.232 332.484 650.579 332.403L655.226 331.318C656.111 331.118 657.023 330.809 657.961 330.39C658.9 329.968 659.871 329.44 660.876 328.804L664.069 326.782C664.57 326.465 664.881 326.069 665.002 325.593C665.122 325.117 665.019 324.62 664.691 324.102C664.258 323.419 663.534 322.88 662.517 322.485C661.503 322.089 660.553 321.992 659.669 322.194L639.979 326.486C639.681 326.551 639.396 326.636 639.124 326.739C638.85 326.843 638.576 326.982 638.301 327.156L632.772 330.656L644.036 348.45L666.457 341.982ZM633.978 356.075C634.491 356.885 635.191 357.388 636.08 357.585C636.972 357.783 637.825 357.624 638.64 357.108L640.887 355.685C641.702 355.17 642.21 354.467 642.411 353.578C642.615 352.689 642.461 351.839 641.948 351.029L631.916 335.182C631.404 334.372 630.702 333.869 629.811 333.673C628.92 333.476 628.067 333.634 627.254 334.149L625.007 335.571C624.192 336.087 623.683 336.79 623.48 337.681C623.279 338.57 623.435 339.419 623.946 340.227L633.978 356.075ZM655.68 312.13C655.152 312.464 654.575 312.695 653.948 312.823C653.322 312.953 652.672 312.962 652.001 312.849L640.693 310.588C638.816 310.21 637.049 309.575 635.39 308.684C633.731 307.791 632.388 306.533 631.361 304.912C630.129 302.964 629.765 300.881 630.271 298.662C630.776 296.443 632.007 294.714 633.964 293.475C635.415 292.557 636.981 292.111 638.664 292.139C640.346 292.167 641.983 292.458 643.574 293.012C643.754 291.337 644.192 289.732 644.888 288.199C645.581 286.667 646.654 285.442 648.106 284.523C650.065 283.283 652.156 282.909 654.378 283.402C656.6 283.894 658.328 285.114 659.563 287.06C660.589 288.682 661.154 290.432 661.256 292.31C661.359 294.189 661.178 296.057 660.714 297.915L657.904 309.113C657.72 309.767 657.435 310.349 657.049 310.86C656.663 311.371 656.206 311.794 655.68 312.13Z" fill="white" fill-opacity="0.05"/>
<path d="M627.185 166.271L623.119 186.042L643.412 196.77C643.413 196.77 643.414 196.771 643.414 196.771C643.742 196.94 644.177 197.083 644.733 197.192C645.29 197.3 645.741 197.328 646.095 197.292C646.096 197.292 646.097 197.292 646.098 197.292L667.189 194.857C667.348 193.711 667.102 192.71 666.464 191.823L666.464 191.823C665.754 190.834 664.75 190.199 663.416 189.924L647.53 186.657C646.488 186.443 645.435 186.162 644.372 185.813L644.371 185.813C643.29 185.457 642.301 185.012 641.403 184.477C641.402 184.476 641.401 184.475 641.4 184.475L636.896 181.872L636.891 181.869L636.891 181.869C636.469 181.619 636.19 181.243 636.068 180.768C635.948 180.298 636.005 179.838 636.237 179.414L636.244 179.402L636.251 179.39C636.492 179.004 636.865 178.768 637.312 178.662C637.783 178.549 638.241 178.62 638.657 178.868L638.658 178.868L642.756 181.313L642.759 181.315C643.503 181.766 644.344 182.162 645.283 182.502C646.226 182.841 647.269 183.129 648.413 183.364L652.115 184.125C652.598 184.225 652.961 184.159 653.248 183.981C653.52 183.812 653.729 183.518 653.832 183.016C653.967 182.36 653.854 181.581 653.426 180.654L653.426 180.654C653.003 179.737 652.448 179.093 651.773 178.686L651.769 178.684L634.616 168.107C634.376 167.959 634.134 167.834 633.89 167.729L627.185 166.271ZM627.185 166.271L633.104 167.488C633.393 167.548 633.654 167.628 633.89 167.729L627.185 166.271ZM654.684 167.118L654.686 167.119C655.175 167.43 655.694 167.64 656.244 167.754C656.797 167.865 657.359 167.877 657.934 167.786C658.499 167.697 659.048 167.499 659.582 167.187L669.371 161.081L654.684 167.118ZM654.684 167.118C654.2 166.813 653.773 166.414 653.403 165.917L646.837 156.447M654.684 167.118L646.837 156.447M646.837 156.447C646.837 156.447 646.837 156.447 646.837 156.447L646.837 156.447ZM622.153 166.074L622.153 166.075C622.58 166.717 622.716 167.428 622.548 168.244L618.77 186.615C618.602 187.431 618.197 188.032 617.551 188.453L617.55 188.454C616.905 188.878 616.189 189.011 615.365 188.842L612.76 188.306C611.937 188.137 611.329 187.731 610.902 187.086C610.477 186.445 610.342 185.733 610.51 184.917L614.288 166.546C614.455 165.732 614.86 165.131 615.504 164.707C616.151 164.283 616.87 164.15 617.693 164.319L620.298 164.855C621.119 165.024 621.725 165.429 622.153 166.074ZM644.407 151.528C643.859 149.817 643.769 148.067 644.138 146.269C644.576 144.14 645.684 142.503 647.475 141.33C649.266 140.157 651.218 139.791 653.36 140.232C654.948 140.558 656.296 141.279 657.418 142.396C658.572 143.546 659.517 144.848 660.254 146.304L660.538 146.865L661.02 146.462C662.272 145.415 663.655 144.592 665.171 143.991L665.172 143.99C666.64 143.406 668.164 143.276 669.754 143.603C671.898 144.044 673.548 145.151 674.731 146.935C675.914 148.72 676.287 150.661 675.851 152.791C675.481 154.589 674.71 156.162 673.537 157.52C672.341 158.905 670.953 160.091 669.371 161.08L644.407 151.528Z" stroke="white" stroke-opacity="0.1"/>
<path d="M494.023 101.707L503.326 119.619L525.843 115.16C525.844 115.16 525.844 115.16 525.845 115.16C526.206 115.085 526.635 114.922 527.134 114.656C527.635 114.389 528.003 114.127 528.255 113.875C528.256 113.874 528.256 113.874 528.257 113.873L543.098 98.691C542.5 97.7009 541.678 97.079 540.624 96.7926L540.624 96.7925C539.449 96.4719 538.269 96.6112 537.06 97.239L522.667 104.714C521.723 105.204 520.728 105.649 519.683 106.049L519.682 106.049C518.619 106.454 517.57 106.732 516.536 106.882C516.535 106.882 516.534 106.882 516.532 106.882L511.395 107.7L511.389 107.701L511.389 107.701C510.904 107.772 510.45 107.657 510.056 107.364C509.667 107.075 509.421 106.682 509.334 106.206L509.332 106.193L509.33 106.179C509.273 105.727 509.415 105.309 509.695 104.945C509.989 104.561 510.39 104.328 510.869 104.257L510.87 104.257L515.592 103.573L515.596 103.572C516.458 103.453 517.361 103.231 518.304 102.904C519.249 102.572 520.24 102.139 521.277 101.6L524.631 99.8583C525.069 99.6308 525.309 99.3512 525.42 99.0325C525.525 98.7291 525.502 98.3693 525.266 97.9152C524.957 97.3206 524.378 96.7864 523.462 96.3372L523.461 96.3369C522.555 95.891 521.719 95.7414 520.938 95.8508L520.933 95.8515L500.95 98.4486C500.671 98.4855 500.403 98.5404 500.148 98.6129L494.023 101.707ZM494.023 101.707L499.386 98.9214C499.648 98.7855 499.901 98.6835 500.148 98.6131L494.023 101.707ZM515.908 85.0338L515.91 85.0336C516.486 84.9667 517.021 84.8035 517.52 84.5445C518.02 84.2831 518.463 83.9375 518.853 83.5047C519.235 83.0794 519.537 82.5801 519.755 82.0017L523.507 71.0912L515.908 85.0338ZM515.908 85.0338C515.34 85.1022 514.757 85.062 514.157 84.9087L503.091 81.6941M515.908 85.0338L503.091 81.6941M503.091 81.6941C503.091 81.6941 503.091 81.694 503.091 81.6939L503.091 81.6941ZM489.992 104.725L489.993 104.725C490.729 104.954 491.282 105.422 491.666 106.161L500.31 122.806C500.694 123.545 500.758 124.266 500.522 125.001L500.522 125.002C500.288 125.737 499.816 126.293 499.07 126.68L496.709 127.906C495.964 128.293 495.236 128.361 494.498 128.13C493.764 127.9 493.211 127.432 492.827 126.692L484.182 110.047C483.8 109.31 483.734 108.588 483.968 107.853C484.204 107.116 484.677 106.56 485.423 106.173L487.784 104.947C488.527 104.561 489.254 104.493 489.992 104.725ZM498.104 79.4063C496.6 78.4229 495.427 77.1209 494.581 75.4924C493.579 73.5633 493.408 71.5942 494.06 69.5548C494.711 67.5152 495.996 66.001 497.936 64.9931C499.375 64.2458 500.876 63.9556 502.451 64.1165C504.072 64.2821 505.626 64.6976 507.116 65.3636L507.69 65.6204L507.81 65.0027C508.122 63.4013 508.677 61.8906 509.476 60.4685L509.476 60.468C510.248 59.0886 511.349 58.0276 512.79 57.2793C514.733 56.2704 516.711 56.0903 518.754 56.7302C520.797 57.3701 522.311 58.6427 523.314 60.5709C524.16 62.1999 524.553 63.9072 524.498 65.7004C524.442 67.5299 524.112 69.3262 523.507 71.0907L498.104 79.4063Z" stroke="white" stroke-opacity="0.06"/>
<path d="M406.3 259.271L402.234 279.042L422.528 289.77C422.528 289.77 422.529 289.771 422.53 289.771C422.857 289.94 423.293 290.083 423.848 290.192C424.405 290.3 424.856 290.328 425.211 290.292C425.212 290.292 425.212 290.292 425.213 290.292L446.304 287.857C446.464 286.711 446.217 285.71 445.58 284.823L445.579 284.823C444.869 283.834 443.866 283.199 442.531 282.924L426.645 279.657C425.603 279.443 424.55 279.162 423.487 278.813L423.486 278.813C422.406 278.457 421.416 278.012 420.519 277.477C420.518 277.476 420.517 277.475 420.516 277.475L416.012 274.872L416.006 274.869L416.006 274.869C415.585 274.619 415.305 274.243 415.183 273.768C415.063 273.298 415.12 272.838 415.353 272.414L415.359 272.402L415.367 272.39C415.607 272.004 415.98 271.768 416.428 271.662C416.898 271.549 417.356 271.62 417.773 271.868L417.774 271.868L421.871 274.313L421.874 274.315C422.619 274.766 423.459 275.162 424.398 275.502C425.341 275.841 426.384 276.129 427.528 276.364L431.23 277.125C431.714 277.225 432.076 277.159 432.363 276.981C432.636 276.812 432.844 276.518 432.948 276.016C433.082 275.36 432.969 274.581 432.541 273.654L432.541 273.654C432.119 272.737 431.563 272.093 430.888 271.686L430.884 271.684L413.732 261.107C413.491 260.959 413.249 260.834 413.006 260.729L406.3 259.271ZM406.3 259.271L412.219 260.488C412.508 260.548 412.769 260.628 413.005 260.729L406.3 259.271ZM433.799 260.118L433.801 260.119C434.29 260.43 434.809 260.64 435.36 260.754C435.912 260.865 436.474 260.877 437.049 260.786C437.614 260.697 438.163 260.499 438.697 260.187L448.486 254.081L433.799 260.118ZM433.799 260.118C433.315 259.813 432.888 259.414 432.518 258.917L425.953 249.447M433.799 260.118L425.953 249.447M425.953 249.447C425.953 249.447 425.952 249.447 425.952 249.447L425.953 249.447ZM401.268 259.074L401.269 259.075C401.696 259.717 401.831 260.428 401.663 261.244L397.885 279.615C397.718 280.431 397.312 281.032 396.667 281.453L396.665 281.454C396.021 281.878 395.304 282.011 394.481 281.842L391.875 281.306C391.052 281.137 390.445 280.731 390.017 280.086C389.592 279.445 389.457 278.733 389.625 277.917L393.403 259.546C393.571 258.732 393.975 258.131 394.62 257.707C395.267 257.283 395.985 257.15 396.808 257.319L399.413 257.855C400.234 258.024 400.841 258.429 401.268 259.074ZM423.522 244.528C422.974 242.817 422.884 241.067 423.253 239.269C423.691 237.14 424.799 235.503 426.59 234.33C428.382 233.157 430.333 232.791 432.475 233.232C434.063 233.558 435.412 234.279 436.533 235.396C437.687 236.546 438.632 237.848 439.369 239.304L439.653 239.865L440.136 239.462C441.387 238.415 442.77 237.592 444.286 236.991L444.287 236.99C445.756 236.406 447.279 236.276 448.869 236.603C451.013 237.044 452.663 238.151 453.846 239.935C455.029 241.72 455.402 243.661 454.966 245.791C454.596 247.589 453.826 249.162 452.653 250.52C451.456 251.905 450.068 253.091 448.486 254.08L423.522 244.528Z" stroke="white" stroke-opacity="0.1"/>
<path d="M590.208 282.312L586.143 302.083L606.436 312.811C606.437 312.811 606.437 312.812 606.438 312.812C606.766 312.981 607.201 313.124 607.756 313.233C608.313 313.341 608.764 313.369 609.119 313.333C609.12 313.333 609.121 313.333 609.122 313.333L630.212 310.898C630.372 309.752 630.126 308.751 629.488 307.864L629.487 307.864C628.777 306.875 627.774 306.24 626.439 305.965L610.554 302.698C609.512 302.484 608.459 302.203 607.395 301.854L607.394 301.854C606.314 301.498 605.324 301.053 604.427 300.518C604.426 300.517 604.425 300.516 604.424 300.516L599.92 297.913L599.915 297.91L599.915 297.91C599.493 297.66 599.213 297.284 599.091 296.809C598.972 296.339 599.028 295.879 599.261 295.455L599.267 295.443L599.275 295.431C599.515 295.045 599.888 294.809 600.336 294.703C600.806 294.59 601.264 294.661 601.681 294.909L601.682 294.909L605.779 297.354L605.782 297.356C606.527 297.807 607.368 298.203 608.306 298.543C609.249 298.882 610.292 299.17 611.436 299.405L615.138 300.166C615.622 300.266 615.985 300.2 616.271 300.022C616.544 299.853 616.753 299.559 616.856 299.057C616.991 298.401 616.878 297.622 616.449 296.695L616.449 296.695C616.027 295.778 615.471 295.134 614.796 294.727L614.792 294.725L597.64 284.148C597.4 284 597.157 283.875 596.914 283.77L590.208 282.312ZM590.208 282.312L596.128 283.529C596.416 283.589 596.678 283.669 596.913 283.77L590.208 282.312ZM617.708 283.159L617.709 283.16C618.199 283.471 618.717 283.681 619.268 283.795C619.82 283.906 620.382 283.918 620.958 283.827C621.523 283.738 622.071 283.54 622.605 283.228L632.394 277.122L617.708 283.159ZM617.708 283.159C617.224 282.854 616.796 282.455 616.427 281.958L609.861 272.488M617.708 283.159L609.861 272.488M609.861 272.488C609.861 272.488 609.861 272.488 609.86 272.488L609.861 272.488ZM585.176 282.115L585.177 282.116C585.604 282.758 585.739 283.469 585.571 284.285L581.794 302.656C581.626 303.472 581.221 304.073 580.575 304.494L580.574 304.495C579.929 304.919 579.212 305.052 578.389 304.883L575.783 304.347C574.96 304.178 574.353 303.772 573.926 303.127C573.5 302.486 573.366 301.774 573.534 300.958L577.311 282.587C577.479 281.773 577.883 281.172 578.528 280.748C579.175 280.324 579.893 280.191 580.716 280.36L583.322 280.896C584.142 281.065 584.749 281.47 585.176 282.115ZM607.43 267.569C606.882 265.858 606.792 264.108 607.162 262.31C607.599 260.181 608.707 258.544 610.498 257.371C612.29 256.198 614.241 255.832 616.383 256.273C617.971 256.599 619.32 257.32 620.441 258.437C621.595 259.587 622.54 260.889 623.277 262.345L623.561 262.906L624.044 262.503C625.295 261.456 626.678 260.633 628.194 260.032L628.195 260.031C629.664 259.447 631.187 259.317 632.777 259.644C634.921 260.085 636.571 261.192 637.754 262.976C638.937 264.761 639.31 266.702 638.874 268.832C638.505 270.63 637.734 272.203 636.561 273.561C635.364 274.946 633.976 276.132 632.395 277.121L607.43 267.569Z" stroke="white" stroke-opacity="0.1"/>
<g style="mix-blend-mode:overlay">
<path d="M78.3292 150.594C79.0704 150.657 79.9462 150.587 80.9568 150.384C81.9709 150.179 82.7985 149.904 83.4396 149.559L116.053 131.479C115.584 129.021 114.358 127.176 112.374 125.943C110.389 124.707 108.146 124.328 105.645 124.805L78.1558 130.047C76.3864 130.384 74.5542 130.624 72.6592 130.765C70.7563 130.905 68.9466 130.847 67.2301 130.593L58.3208 129.403C57.7111 129.314 57.2208 129.022 56.8499 128.525C56.4791 128.028 56.3275 127.475 56.3954 126.866C56.4814 126.351 56.7706 125.917 57.2628 125.564C57.7543 125.206 58.305 125.072 58.9147 125.161L67.0589 126.364C68.6069 126.603 70.2663 126.684 72.0373 126.606C73.8112 126.524 75.7054 126.291 77.7199 125.907L84.1258 124.686C85.1313 124.494 85.8815 124.054 86.3764 123.367C86.8712 122.68 87.0197 121.817 86.8216 120.778C86.5603 119.408 85.7389 118.084 84.3575 116.806C82.9796 115.527 81.5171 114.77 79.9698 114.535L45.6497 108.949C45.1293 108.866 44.6181 108.82 44.116 108.814C43.6104 108.808 43.0822 108.857 42.5315 108.962L31.4411 111.077L38.2477 146.772L78.3292 150.594ZM17.2736 152.638C17.5834 154.263 18.3892 155.515 19.691 156.394C20.997 157.276 22.4671 157.562 24.1015 157.25L28.6102 156.39C30.2445 156.079 31.5048 155.273 32.3909 153.973C33.2813 152.675 33.5716 151.214 33.2618 149.589L27.1998 117.799C26.89 116.175 26.0824 114.923 24.7771 114.044C23.4711 113.162 22.0027 112.877 20.3719 113.188L15.8633 114.047C14.2289 114.359 12.9669 115.165 12.0771 116.466C11.191 117.766 10.9025 119.227 11.2116 120.848L17.2736 152.638ZM79.9425 95.854C78.8837 96.0559 77.8113 96.0609 76.7253 95.869C75.6364 95.6813 74.5887 95.2844 73.582 94.6783L56.8655 83.8859C54.0929 82.0901 51.6581 79.9517 49.5612 77.4706C47.4636 74.986 46.1046 72.1171 45.4843 68.8639C44.7393 64.9573 45.4754 61.3832 47.6925 58.1418C49.9096 54.9003 52.9812 52.9052 56.9072 52.1566C59.817 51.6017 62.6131 51.8793 65.2955 52.9895C67.9779 54.0997 70.4205 55.6033 72.6234 57.5005C73.9735 54.9258 75.6931 52.6285 77.7823 50.6084C79.8644 48.5897 82.3621 47.3026 85.2755 46.747C89.205 45.9977 92.797 46.7221 96.0514 48.9203C99.3058 51.1184 101.307 54.1704 102.056 58.0764C102.676 61.3296 102.474 64.4962 101.448 67.5763C100.423 70.6565 98.9493 73.5402 97.0278 76.2274L85.4239 92.4202C84.7145 93.3535 83.8881 94.1078 82.9447 94.683C82.0013 95.2583 81.0006 95.6486 79.9425 95.854Z" fill="white" fill-opacity="0.1"/>
<path d="M212.153 276.538C212.895 276.602 213.77 276.532 214.781 276.328C215.795 276.124 216.623 275.849 217.264 275.503L249.877 257.424C249.408 254.965 248.182 253.12 246.198 251.888C244.213 250.652 241.97 250.272 239.469 250.749L211.98 255.991C210.211 256.328 208.378 256.568 206.483 256.71C204.581 256.849 202.771 256.792 201.054 256.537L192.145 255.348C191.535 255.259 191.045 254.966 190.674 254.469C190.303 253.973 190.152 253.42 190.22 252.81C190.306 252.296 190.595 251.862 191.087 251.508C191.579 251.151 192.129 251.016 192.739 251.105L200.883 252.309C202.431 252.548 204.091 252.629 205.862 252.551C207.635 252.469 209.53 252.236 211.544 251.852L217.95 250.63C218.956 250.438 219.706 249.999 220.201 249.311C220.695 248.624 220.844 247.761 220.646 246.722C220.385 245.352 219.563 244.028 218.182 242.75C216.804 241.472 215.341 240.715 213.794 240.479L179.474 234.894C178.954 234.81 178.442 234.765 177.94 234.758C177.435 234.752 176.906 234.801 176.356 234.906L165.265 237.021L172.072 272.716L212.153 276.538ZM151.098 278.582C151.408 280.207 152.213 281.459 153.515 282.339C154.821 283.221 156.291 283.506 157.926 283.194L162.434 282.335C164.069 282.023 165.329 281.217 166.215 279.917C167.106 278.62 167.396 277.159 167.086 275.534L161.024 243.744C160.714 242.119 159.907 240.867 158.601 239.989C157.295 239.107 155.827 238.821 154.196 239.132L149.687 239.992C148.053 240.303 146.791 241.11 145.901 242.41C145.015 243.711 144.727 245.171 145.036 246.793L151.098 278.582ZM213.767 221.798C212.708 222 211.636 222.005 210.55 221.813C209.461 221.626 208.413 221.229 207.406 220.623L190.69 209.83C187.917 208.034 185.482 205.896 183.385 203.415C181.288 200.93 179.929 198.061 179.308 194.808C178.564 190.902 179.3 187.328 181.517 184.086C183.734 180.845 186.805 178.85 190.731 178.101C193.641 177.546 196.437 177.824 199.12 178.934C201.802 180.044 204.245 181.548 206.448 183.445C207.798 180.87 209.517 178.573 211.607 176.553C213.689 174.534 216.186 173.247 219.1 172.691C223.029 171.942 226.621 172.666 229.876 174.865C233.13 177.063 235.131 180.115 235.88 184.021C236.5 187.274 236.298 190.441 235.272 193.521C234.247 196.601 232.773 199.485 230.852 202.172L219.248 218.365C218.539 219.298 217.712 220.052 216.769 220.627C215.826 221.203 214.825 221.593 213.767 221.798Z" fill="white" fill-opacity="0.1"/>
<path d="M440.155 439.538C440.897 439.602 441.772 439.532 442.783 439.328C443.797 439.124 444.625 438.849 445.266 438.503L477.879 420.424C477.41 417.965 476.184 416.12 474.2 414.888C472.215 413.652 469.972 413.272 467.471 413.749L439.982 418.991C438.213 419.328 436.38 419.568 434.485 419.71C432.583 419.849 430.773 419.792 429.056 419.537L420.147 418.348C419.537 418.259 419.047 417.966 418.676 417.469C418.305 416.973 418.154 416.42 418.222 415.81C418.308 415.296 418.597 414.862 419.089 414.508C419.581 414.151 420.131 414.016 420.741 414.105L428.885 415.309C430.433 415.548 432.093 415.629 433.863 415.551C435.637 415.469 437.532 415.236 439.546 414.852L445.952 413.63C446.957 413.438 447.708 412.999 448.203 412.311C448.697 411.624 448.846 410.761 448.648 409.722C448.386 408.352 447.565 407.028 446.184 405.75C444.806 404.472 443.343 403.715 441.796 403.479L407.476 397.894C406.955 397.81 406.444 397.765 405.942 397.758C405.437 397.752 404.908 397.801 404.358 397.906L393.267 400.021L400.074 435.716L440.155 439.538ZM379.1 441.582C379.41 443.207 380.215 444.459 381.517 445.339C382.823 446.221 384.293 446.506 385.928 446.194L390.436 445.335C392.071 445.023 393.331 444.217 394.217 442.917C395.108 441.62 395.398 440.159 395.088 438.534L389.026 406.744C388.716 405.119 387.909 403.867 386.603 402.989C385.297 402.107 383.829 401.821 382.198 402.132L377.689 402.992C376.055 403.303 374.793 404.11 373.903 405.41C373.017 406.711 372.729 408.171 373.038 409.793L379.1 441.582ZM441.769 384.798C440.71 385 439.637 385.005 438.551 384.813C437.463 384.626 436.415 384.229 435.408 383.623L418.692 372.83C415.919 371.034 413.484 368.896 411.387 366.415C409.29 363.93 407.931 361.061 407.31 357.808C406.565 353.902 407.302 350.328 409.519 347.086C411.736 343.845 414.807 341.85 418.733 341.101C421.643 340.546 424.439 340.824 427.122 341.934C429.804 343.044 432.247 344.548 434.45 346.445C435.8 343.87 437.519 341.573 439.608 339.553C441.691 337.534 444.188 336.247 447.102 335.691C451.031 334.942 454.623 335.666 457.878 337.865C461.132 340.063 463.133 343.115 463.882 347.021C464.502 350.274 464.3 353.441 463.274 356.521C462.249 359.601 460.775 362.485 458.854 365.172L447.25 381.365C446.541 382.298 445.714 383.052 444.771 383.627C443.827 384.203 442.827 384.593 441.769 384.798Z" fill="white" fill-opacity="0.1"/>
<path d="M324.775 426.912C325.188 426.788 325.645 426.564 326.147 426.24C326.65 425.914 327.038 425.589 327.31 425.267L341.044 408.581C340.268 407.356 339.214 406.622 337.883 406.38C336.55 406.136 335.26 406.409 334.013 407.198L320.31 415.872C319.428 416.431 318.491 416.95 317.5 417.429C316.503 417.909 315.516 418.263 314.536 418.491L309.48 419.746C309.133 419.827 308.806 419.774 308.501 419.585C308.195 419.396 307.996 419.13 307.902 418.787C307.839 418.492 307.903 418.196 308.093 417.901C308.282 417.604 308.55 417.414 308.898 417.332L313.544 416.248C314.43 416.048 315.341 415.738 316.279 415.32C317.218 414.898 318.19 414.369 319.194 413.734L322.387 411.712C322.889 411.395 323.2 410.998 323.32 410.522C323.441 410.047 323.337 409.55 323.009 409.032C322.577 408.349 321.852 407.81 320.836 407.415C319.821 407.019 318.871 406.922 317.987 407.124L298.298 411.415C297.999 411.481 297.714 411.565 297.442 411.669C297.168 411.773 296.894 411.912 296.619 412.086L291.091 415.585L302.355 433.379L324.775 426.912ZM292.296 441.004C292.809 441.814 293.51 442.318 294.399 442.515C295.29 442.713 296.143 442.554 296.958 442.038L299.206 440.615C300.021 440.099 300.528 439.397 300.73 438.507C300.934 437.619 300.779 436.769 300.266 435.959L290.235 420.112C289.722 419.302 289.02 418.799 288.13 418.603C287.238 418.405 286.386 418.564 285.573 419.078L283.325 420.501C282.51 421.017 282.002 421.72 281.799 422.61C281.598 423.5 281.753 424.349 282.265 425.157L292.296 441.004ZM313.998 397.06C313.47 397.394 312.893 397.625 312.267 397.752C311.64 397.883 310.991 397.892 310.319 397.779L299.011 395.518C297.135 395.14 295.367 394.505 293.709 393.614C292.049 392.721 290.706 391.463 289.68 389.841C288.447 387.894 288.083 385.811 288.589 383.591C289.094 381.372 290.326 379.643 292.283 378.404C293.733 377.486 295.3 377.041 296.982 377.069C298.664 377.096 300.301 377.387 301.892 377.941C302.072 376.266 302.51 374.662 303.207 373.128C303.9 371.597 304.972 370.372 306.425 369.453C308.384 368.213 310.474 367.839 312.696 368.331C314.918 368.824 316.646 370.043 317.881 371.99C318.908 373.611 319.472 375.362 319.575 377.24C319.677 379.119 319.496 380.987 319.032 382.844L316.222 394.042C316.038 394.696 315.753 395.279 315.367 395.79C314.981 396.3 314.525 396.724 313.998 397.06Z" fill="white" fill-opacity="0.1"/>
<path d="M162.455 160.883C162.868 160.76 163.325 160.536 163.826 160.211C164.33 159.885 164.717 159.561 164.989 159.238L178.724 142.553C177.948 141.327 176.894 140.593 175.562 140.351C174.23 140.107 172.94 140.38 171.693 141.169L157.989 149.843C157.107 150.402 156.171 150.921 155.179 151.4C154.183 151.88 153.195 152.234 152.216 152.462L147.16 153.717C146.812 153.799 146.486 153.745 146.18 153.556C145.875 153.368 145.675 153.102 145.582 152.758C145.519 152.463 145.583 152.167 145.773 151.872C145.962 151.575 146.23 151.385 146.577 151.303L151.224 150.219C152.109 150.019 153.021 149.709 153.959 149.291C154.898 148.869 155.869 148.34 156.874 147.705L160.067 145.683C160.568 145.366 160.879 144.969 161 144.494C161.12 144.018 161.017 143.521 160.689 143.003C160.257 142.32 159.532 141.781 158.515 141.386C157.501 140.99 156.551 140.893 155.667 141.095L135.977 145.387C135.679 145.452 135.394 145.537 135.122 145.64C134.848 145.744 134.574 145.883 134.299 146.057L128.77 149.557L140.034 167.351L162.455 160.883ZM129.976 174.976C130.489 175.786 131.189 176.289 132.078 176.486C132.97 176.684 133.823 176.525 134.638 176.009L136.885 174.586C137.7 174.07 138.208 173.368 138.409 172.478C138.613 171.59 138.459 170.74 137.946 169.93L127.914 154.083C127.402 153.273 126.7 152.77 125.809 152.574C124.918 152.376 124.065 152.535 123.252 153.05L121.005 154.472C120.19 154.988 119.681 155.691 119.478 156.582C119.277 157.471 119.433 158.32 119.944 159.128L129.976 174.976ZM151.678 131.031C151.15 131.365 150.573 131.596 149.947 131.723C149.32 131.854 148.67 131.863 147.999 131.75L136.691 129.489C134.814 129.111 133.047 128.476 131.388 127.585C129.729 126.692 128.386 125.434 127.359 123.813C126.127 121.865 125.763 119.782 126.269 117.563C126.774 115.344 128.005 113.615 129.963 112.376C131.413 111.457 132.98 111.012 134.662 111.04C136.344 111.068 137.981 111.359 139.572 111.913C139.752 110.237 140.19 108.633 140.886 107.1C141.579 105.568 142.652 104.343 144.104 103.424C146.063 102.184 148.154 101.81 150.376 102.303C152.598 102.795 154.326 104.015 155.561 105.961C156.587 107.583 157.152 109.333 157.254 111.211C157.357 113.09 157.176 114.958 156.712 116.815L153.902 128.013C153.718 128.668 153.433 129.25 153.047 129.761C152.661 130.272 152.204 130.695 151.678 131.031Z" fill="white" fill-opacity="0.1"/>
<path d="M178.455 363.883C178.868 363.759 179.325 363.535 179.826 363.21C180.33 362.884 180.717 362.56 180.989 362.237L194.724 345.552C193.948 344.327 192.894 343.593 191.562 343.351C190.23 343.107 188.94 343.379 187.693 344.169L173.989 352.843C173.107 353.401 172.171 353.92 171.179 354.4C170.183 354.88 169.195 355.234 168.216 355.462L163.16 356.716C162.812 356.798 162.486 356.745 162.18 356.556C161.875 356.367 161.675 356.101 161.582 355.758C161.519 355.462 161.583 355.167 161.773 354.872C161.962 354.574 162.23 354.385 162.577 354.303L167.224 353.219C168.109 353.019 169.021 352.709 169.959 352.29C170.898 351.869 171.869 351.34 172.874 350.704L176.067 348.683C176.568 348.365 176.879 347.969 177 347.493C177.12 347.017 177.017 346.52 176.689 346.003C176.257 345.32 175.532 344.781 174.515 344.386C173.501 343.99 172.551 343.893 171.667 344.095L151.977 348.386C151.679 348.452 151.394 348.536 151.122 348.639C150.848 348.744 150.574 348.883 150.299 349.056L144.77 352.556L156.034 370.35L178.455 363.883ZM145.976 377.975C146.489 378.785 147.189 379.289 148.078 379.486C148.97 379.683 149.823 379.524 150.638 379.008L152.885 377.586C153.7 377.07 154.208 376.367 154.409 375.478C154.613 374.589 154.459 373.74 153.946 372.93L143.914 357.082C143.402 356.272 142.7 355.769 141.809 355.574C140.918 355.376 140.065 355.534 139.252 356.049L137.005 357.472C136.19 357.988 135.681 358.691 135.478 359.581C135.277 360.471 135.433 361.319 135.944 362.128L145.976 377.975ZM167.678 334.03C167.15 334.364 166.573 334.595 165.947 334.723C165.32 334.853 164.67 334.862 163.999 334.75L152.691 332.489C150.814 332.11 149.047 331.476 147.388 330.584C145.729 329.691 144.386 328.434 143.359 326.812C142.127 324.865 141.763 322.781 142.269 320.562C142.774 318.343 144.005 316.614 145.963 315.375C147.413 314.457 148.98 314.012 150.662 314.039C152.344 314.067 153.981 314.358 155.572 314.912C155.752 313.237 156.19 311.633 156.886 310.099C157.579 308.568 158.652 307.343 160.104 306.423C162.063 305.183 164.154 304.809 166.376 305.302C168.598 305.795 170.326 307.014 171.561 308.96C172.587 310.582 173.152 312.332 173.254 314.211C173.357 316.089 173.176 317.958 172.712 319.815L169.902 331.013C169.718 331.667 169.433 332.25 169.047 332.76C168.661 333.271 168.204 333.694 167.678 334.03Z" fill="white" fill-opacity="0.1"/>
<path d="M601.775 383.912C602.188 383.788 602.645 383.564 603.147 383.24C603.65 382.914 604.038 382.589 604.31 382.267L618.044 365.581C617.268 364.356 616.214 363.622 614.883 363.38C613.55 363.136 612.26 363.409 611.013 364.198L597.31 372.872C596.428 373.431 595.491 373.95 594.5 374.429C593.503 374.909 592.516 375.263 591.536 375.491L586.48 376.746C586.133 376.827 585.806 376.774 585.501 376.585C585.195 376.396 584.996 376.13 584.902 375.787C584.839 375.492 584.903 375.196 585.093 374.901C585.282 374.604 585.55 374.414 585.898 374.332L590.544 373.248C591.43 373.048 592.341 372.738 593.279 372.32C594.218 371.898 595.19 371.369 596.194 370.734L599.387 368.712C599.889 368.395 600.2 367.998 600.32 367.522C600.441 367.047 600.337 366.55 600.009 366.032C599.577 365.349 598.852 364.81 597.836 364.415C596.821 364.019 595.871 363.922 594.987 364.124L575.298 368.415C574.999 368.481 574.714 368.565 574.442 368.669C574.168 368.773 573.894 368.912 573.619 369.086L568.091 372.585L579.355 390.379L601.775 383.912ZM569.296 398.004C569.809 398.814 570.51 399.318 571.399 399.515C572.29 399.713 573.143 399.554 573.958 399.038L576.206 397.615C577.021 397.099 577.528 396.397 577.73 395.507C577.934 394.619 577.779 393.769 577.266 392.959L567.235 377.112C566.722 376.302 566.02 375.799 565.13 375.603C564.238 375.405 563.386 375.564 562.573 376.078L560.325 377.501C559.51 378.017 559.002 378.72 558.799 379.61C558.598 380.5 558.753 381.349 559.265 382.157L569.296 398.004ZM590.998 354.06C590.47 354.394 589.893 354.625 589.267 354.752C588.64 354.883 587.991 354.892 587.319 354.779L576.011 352.518C574.135 352.14 572.367 351.505 570.709 350.614C569.049 349.721 567.706 348.463 566.68 346.841C565.447 344.894 565.083 342.811 565.589 340.591C566.094 338.372 567.326 336.643 569.283 335.404C570.733 334.486 572.3 334.041 573.982 334.069C575.664 334.096 577.301 334.387 578.892 334.941C579.072 333.266 579.51 331.662 580.207 330.128C580.9 328.597 581.972 327.372 583.425 326.453C585.384 325.213 587.474 324.839 589.696 325.331C591.918 325.824 593.646 327.043 594.881 328.99C595.908 330.611 596.472 332.362 596.575 334.24C596.677 336.119 596.496 337.987 596.032 339.844L593.222 351.042C593.038 351.696 592.753 352.279 592.367 352.79C591.981 353.3 591.525 353.724 590.998 354.06Z" fill="white" fill-opacity="0.1"/>
<path d="M347.773 234.912C348.186 234.788 348.643 234.564 349.145 234.24C349.648 233.914 350.036 233.589 350.308 233.267L364.042 216.581C363.266 215.356 362.213 214.622 360.881 214.38C359.548 214.136 358.258 214.409 357.011 215.198L343.308 223.872C342.426 224.431 341.489 224.95 340.498 225.429C339.502 225.909 338.514 226.263 337.534 226.491L332.478 227.746C332.131 227.827 331.804 227.774 331.499 227.585C331.193 227.396 330.994 227.13 330.9 226.787C330.837 226.492 330.901 226.196 331.091 225.901C331.28 225.604 331.548 225.414 331.896 225.332L336.542 224.248C337.428 224.048 338.339 223.738 339.278 223.32C340.216 222.898 341.188 222.369 342.192 221.734L345.385 219.712C345.887 219.395 346.198 218.998 346.318 218.522C346.439 218.047 346.335 217.55 346.007 217.032C345.575 216.349 344.85 215.81 343.834 215.415C342.819 215.019 341.87 214.922 340.985 215.124L321.296 219.415C320.997 219.481 320.712 219.565 320.44 219.669C320.166 219.773 319.892 219.912 319.618 220.086L314.089 223.585L325.353 241.379L347.773 234.912ZM315.294 249.004C315.807 249.814 316.508 250.318 317.397 250.515C318.288 250.713 319.142 250.554 319.956 250.038L322.204 248.615C323.019 248.099 323.526 247.397 323.728 246.507C323.932 245.619 323.777 244.769 323.264 243.959L313.233 228.112C312.72 227.302 312.018 226.799 311.128 226.603C310.236 226.405 309.384 226.564 308.571 227.078L306.323 228.501C305.509 229.017 305 229.72 304.797 230.61C304.596 231.5 304.751 232.349 305.263 233.157L315.294 249.004ZM336.996 205.06C336.468 205.394 335.891 205.625 335.265 205.752C334.638 205.883 333.989 205.892 333.317 205.779L322.009 203.518C320.133 203.14 318.365 202.505 316.707 201.614C315.047 200.721 313.704 199.463 312.678 197.841C311.445 195.894 311.081 193.811 311.587 191.591C312.092 189.372 313.324 187.643 315.281 186.404C316.731 185.486 318.298 185.041 319.98 185.069C321.662 185.096 323.299 185.387 324.89 185.941C325.07 184.266 325.508 182.662 326.205 181.128C326.898 179.597 327.97 178.372 329.423 177.453C331.382 176.213 333.472 175.839 335.694 176.331C337.916 176.824 339.644 178.043 340.879 179.99C341.906 181.611 342.47 183.362 342.573 185.24C342.675 187.119 342.495 188.987 342.03 190.844L339.22 202.042C339.036 202.696 338.751 203.279 338.365 203.79C337.979 204.3 337.523 204.724 336.996 205.06Z" fill="white" fill-opacity="0.1"/>
<path d="M629.128 118.917C629.442 119.212 629.866 119.494 630.399 119.764C630.934 120.034 631.41 120.206 631.826 120.278L653.157 123.739C653.825 122.452 653.929 121.172 653.467 119.9C653.007 118.625 652.121 117.648 650.811 116.969L636.416 109.5C635.489 109.019 634.569 108.471 633.655 107.856C632.739 107.237 631.935 106.562 631.245 105.831L627.615 102.095C627.369 101.836 627.251 101.527 627.26 101.168C627.269 100.809 627.399 100.502 627.648 100.249C627.872 100.046 628.159 99.952 628.51 99.9674C628.862 99.9809 629.161 100.117 629.406 100.376L632.683 103.844C633.302 104.508 634.029 105.14 634.863 105.739C635.7 106.338 636.646 106.911 637.701 107.458L641.056 109.199C641.583 109.472 642.082 109.541 642.554 109.406C643.025 109.27 643.402 108.93 643.684 108.386C644.057 107.669 644.158 106.771 643.987 105.694C643.818 104.618 643.423 103.749 642.803 103.087L629.179 88.2388C628.972 88.014 628.755 87.8101 628.529 87.627C628.301 87.443 628.043 87.2761 627.754 87.1265L621.946 84.1131L612.248 102.806L629.128 118.917ZM600.594 97.9575C600.153 98.8084 600.071 99.6674 600.348 100.534C600.627 101.404 601.194 102.061 602.05 102.505L604.411 103.73C605.267 104.175 606.13 104.259 606.999 103.985C607.87 103.714 608.526 103.153 608.967 102.302L617.605 85.6534C618.046 84.8025 618.128 83.943 617.848 83.0749C617.57 82.2051 617.004 81.5486 616.15 81.1054L613.788 79.8804C612.933 79.4363 612.069 79.3509 611.197 79.6242C610.328 79.8985 609.673 80.4601 609.232 81.3092L600.594 97.9575ZM649.488 94.5713C648.934 94.2836 648.444 93.9014 648.018 93.4246C647.59 92.9488 647.255 92.3924 647.014 91.7555L643.272 80.8479C642.653 79.0361 642.311 77.1895 642.246 75.308C642.182 73.4246 642.592 71.6311 643.476 69.9274C644.537 67.8815 646.154 66.518 648.325 65.837C650.497 65.156 652.611 65.3489 654.667 66.4156C656.191 67.2063 657.365 68.3352 658.188 69.8024C659.011 71.2697 659.584 72.8301 659.907 74.4837C661.445 73.7955 663.052 73.366 664.727 73.1952C666.399 73.0226 667.998 73.332 669.523 74.1237C671.581 75.1914 672.957 76.8091 673.651 78.9768C674.345 81.1444 674.162 83.2517 673.102 85.2986C672.218 87.0022 670.99 88.3715 669.419 89.4063C667.848 90.4411 666.143 91.2259 664.305 91.7605L653.215 94.9731C652.558 95.1437 651.911 95.1909 651.275 95.1145C650.64 95.0382 650.044 94.8571 649.488 94.5713Z" fill="white" fill-opacity="0.06"/>
<path d="M251.049 339.583C251.396 339.702 251.824 339.773 252.332 339.796C252.841 339.82 253.27 339.787 253.618 339.698L271.386 334.941C271.455 333.709 271.089 332.679 270.287 331.852C269.484 331.024 268.456 330.574 267.202 330.504L253.421 329.729C252.533 329.679 251.628 329.575 250.704 329.416C249.777 329.256 248.918 329.012 248.127 328.685L244.005 327.051C243.724 326.936 243.524 326.737 243.406 326.455C243.288 326.173 243.281 325.891 243.387 325.607C243.489 325.371 243.679 325.198 243.957 325.087C244.235 324.975 244.515 324.977 244.796 325.092L248.55 326.641C249.262 326.94 250.047 327.177 250.903 327.351C251.762 327.524 252.696 327.639 253.706 327.696L256.918 327.876C257.422 327.905 257.834 327.784 258.153 327.514C258.472 327.244 258.646 326.849 258.675 326.328C258.714 325.641 258.479 324.909 257.97 324.133C257.464 323.356 256.854 322.819 256.142 322.522L240.384 315.749C240.145 315.647 239.906 315.564 239.666 315.501C239.425 315.438 239.166 315.398 238.89 315.383L233.33 315.07L232.324 332.966L251.049 339.583ZM221.585 333.268C221.539 334.082 221.775 334.778 222.293 335.354C222.813 335.932 223.482 336.244 224.302 336.29L226.562 336.418C227.382 336.464 228.081 336.229 228.66 335.712C229.242 335.198 229.555 334.533 229.601 333.719L230.497 317.781C230.543 316.966 230.306 316.27 229.786 315.694C229.267 315.116 228.598 314.804 227.78 314.758L225.52 314.631C224.701 314.585 224 314.82 223.419 315.336C222.84 315.852 222.527 316.517 222.481 317.33L221.585 333.268ZM258.36 313.578C257.829 313.549 257.315 313.423 256.819 313.201C256.32 312.981 255.866 312.666 255.457 312.256L248.746 305.094C247.633 303.903 246.724 302.589 246.016 301.151C245.309 299.712 245.002 298.176 245.093 296.545C245.204 294.587 245.983 292.964 247.431 291.678C248.879 290.391 250.588 289.803 252.556 289.914C254.015 289.996 255.32 290.463 256.471 291.315C257.622 292.166 258.611 293.178 259.439 294.349C260.393 293.278 261.49 292.384 262.731 291.667C263.969 290.949 265.318 290.632 266.779 290.714C268.749 290.825 270.381 291.601 271.676 293.041C272.971 294.482 273.564 296.182 273.456 298.14C273.364 299.771 272.889 301.263 272.03 302.614C271.171 303.966 270.122 305.17 268.881 306.226L261.394 312.59C260.943 312.952 260.457 313.214 259.937 313.377C259.417 313.539 258.891 313.606 258.36 313.578Z" fill="white" fill-opacity="0.1"/>
<path d="M212.775 61.9109C213.188 61.7875 213.645 61.5634 214.147 61.2386C214.65 60.9127 215.038 60.5884 215.31 60.2657L229.044 43.5805C228.268 42.355 227.214 41.6211 225.883 41.3789C224.55 41.1349 223.26 41.4076 222.013 42.1969L208.31 50.8713C207.428 51.4296 206.491 51.9486 205.5 52.4282C204.503 52.9083 203.516 53.2623 202.536 53.4902L197.48 54.7446C197.133 54.8265 196.806 54.773 196.501 54.5842C196.195 54.3953 195.996 54.1294 195.902 53.7863C195.839 53.4908 195.903 53.1953 196.093 52.8999C196.282 52.6027 196.55 52.4131 196.898 52.3312L201.544 51.2472C202.43 51.0468 203.341 50.7373 204.279 50.3185C205.218 49.8969 206.19 49.3682 207.194 48.7325L210.387 46.7111C210.889 46.3938 211.2 45.9972 211.32 45.5214C211.441 45.0455 211.337 44.5488 211.009 44.0311C210.577 43.3479 209.852 42.8088 208.836 42.414C207.821 42.018 206.871 41.921 205.987 42.1232L186.298 46.4144C185.999 46.48 185.714 46.5644 185.442 46.6675C185.168 46.7718 184.894 46.9109 184.619 47.0847L179.091 50.5844L190.355 68.3784L212.775 61.9109ZM180.296 76.0034C180.809 76.8134 181.51 77.3169 182.399 77.5139C183.29 77.7116 184.143 77.5525 184.958 77.0368L187.206 75.614C188.021 75.0983 188.528 74.3957 188.73 73.5063C188.934 72.6175 188.779 71.7682 188.266 70.9582L178.235 55.1107C177.722 54.3007 177.02 53.7978 176.13 53.6019C175.238 53.4043 174.386 53.5627 173.573 54.0773L171.325 55.5001C170.51 56.0158 170.002 56.719 169.799 57.6095C169.598 58.4989 169.753 59.3477 170.265 60.156L180.296 76.0034ZM201.998 32.0587C201.47 32.3928 200.893 32.6236 200.267 32.7512C199.64 32.8817 198.991 32.8907 198.319 32.7782L187.011 30.5169C185.135 30.1388 183.367 29.504 181.709 28.6127C180.049 27.7196 178.706 26.4622 177.68 24.8404C176.447 22.893 176.083 20.8096 176.589 18.5905C177.094 16.3714 178.326 14.6424 180.283 13.4035C181.733 12.4853 183.3 12.04 184.982 12.0678C186.664 12.0955 188.301 12.3864 189.892 12.9404C190.072 11.2652 190.51 9.66089 191.207 8.12743C191.9 6.5962 192.972 5.37091 194.425 4.45155C196.384 3.21155 198.474 2.83781 200.696 3.33036C202.918 3.8229 204.646 5.04235 205.881 6.9887C206.908 8.61043 207.472 10.3606 207.575 12.2392C207.677 14.1178 207.496 15.9858 207.032 17.8433L204.222 29.0413C204.038 29.6954 203.753 30.2778 203.367 30.7887C202.981 31.2995 202.525 31.7228 201.998 32.0587Z" fill="white" fill-opacity="0.1"/>
<path d="M123.183 52.1715L119.117 71.9422L139.41 82.6704C139.411 82.6707 139.412 82.671 139.412 82.6714C139.74 82.8405 140.175 82.9838 140.731 83.092C141.288 83.2005 141.739 83.2288 142.093 83.1925C142.094 83.1924 142.095 83.1923 142.096 83.1922L163.187 80.7571C163.346 79.6112 163.1 78.6104 162.462 77.7238L162.462 77.7233C161.752 76.7342 160.748 76.0989 159.414 75.8245L143.528 72.5578C142.486 72.3435 141.433 72.062 140.37 71.7135L140.369 71.7133C139.288 71.3575 138.299 70.9127 137.402 70.3771C137.4 70.3764 137.399 70.3758 137.398 70.3752L132.894 67.7727L132.889 67.7698L132.889 67.7698C132.468 67.5194 132.188 67.1436 132.066 66.6681C131.946 66.1985 132.003 65.7383 132.235 65.3141L132.242 65.3021L132.249 65.2904C132.49 64.9039 132.863 64.6683 133.31 64.5625C133.781 64.4492 134.239 64.5207 134.656 64.7682L134.656 64.7688L138.754 67.2134L138.757 67.2151C139.501 67.6662 140.342 68.0625 141.281 68.4024C142.224 68.7413 143.267 69.029 144.411 69.2642L148.113 70.0255C148.596 70.1249 148.959 70.0592 149.246 69.8813C149.518 69.712 149.727 69.4181 149.83 68.9169C149.965 68.2606 149.852 67.4809 149.424 66.5547L149.424 66.554C149.001 65.637 148.446 64.9934 147.771 64.5866L147.767 64.584L130.614 54.0074C130.374 53.8597 130.132 53.734 129.888 53.6295L123.183 52.1715ZM123.183 52.1715L129.102 53.3887C129.391 53.4481 129.652 53.5288 129.888 53.6292L123.183 52.1715ZM150.682 53.018L150.684 53.0191C151.173 53.33 151.692 53.5408 152.242 53.6541C152.795 53.7657 153.357 53.777 153.932 53.6863C154.497 53.5972 155.046 53.3994 155.58 53.0878L165.369 46.981L150.682 53.018ZM150.682 53.018C150.198 52.7132 149.771 52.3147 149.401 51.8171L142.835 42.3478M150.682 53.018L142.835 42.3478M142.835 42.3478C142.835 42.3476 142.835 42.3474 142.835 42.3472L142.835 42.3478ZM118.151 51.9744L118.151 51.9751C118.579 52.617 118.714 53.3288 118.546 54.1446L114.768 72.5159C114.6 73.3316 114.195 73.9323 113.549 74.3536L113.548 74.3545C112.904 74.778 112.187 74.9116 111.364 74.7424L108.758 74.2066C107.935 74.0373 107.327 73.6313 106.9 72.9869C106.475 72.3454 106.34 71.6336 106.508 70.8173L110.286 52.446C110.453 51.6323 110.858 51.0309 111.502 50.607C112.149 50.1836 112.868 50.0503 113.691 50.2195L116.296 50.7553C117.117 50.9241 117.723 51.3296 118.151 51.9744ZM140.405 37.4284C139.857 35.7171 139.767 33.967 140.136 32.1695C140.574 30.0404 141.682 28.4034 143.473 27.2307C145.265 26.0578 147.216 25.6915 149.358 26.132C150.946 26.4586 152.295 27.1792 153.416 28.2965C154.57 29.4465 155.515 30.7485 156.252 32.2043L156.536 32.7658L157.018 32.362C158.27 31.3152 159.653 30.4919 161.169 29.891L161.17 29.8908C162.638 29.3063 164.162 29.1762 165.752 29.5032C167.896 29.9441 169.546 31.051 170.729 32.8356C171.912 34.62 172.285 36.5617 171.849 38.6914C171.479 40.4893 170.709 42.0626 169.536 43.4201C168.339 44.805 166.951 45.9917 165.369 46.9807L140.405 37.4284Z" stroke="white" stroke-opacity="0.1"/>
<path d="M115.183 260.171L111.117 279.942L131.41 290.67C131.411 290.671 131.412 290.671 131.412 290.671C131.74 290.84 132.175 290.984 132.731 291.092C133.288 291.201 133.739 291.229 134.093 291.192C134.094 291.192 134.095 291.192 134.096 291.192L155.187 288.757C155.346 287.611 155.1 286.61 154.462 285.724L154.462 285.723C153.752 284.734 152.748 284.099 151.414 283.825L135.528 280.558C134.486 280.344 133.433 280.062 132.37 279.713L132.369 279.713C131.288 279.358 130.299 278.913 129.402 278.377C129.4 278.376 129.399 278.376 129.398 278.375L124.894 275.773L124.889 275.77L124.889 275.77C124.468 275.519 124.188 275.144 124.066 274.668C123.946 274.199 124.003 273.738 124.235 273.314L124.242 273.302L124.249 273.29C124.49 272.904 124.863 272.668 125.31 272.562C125.781 272.449 126.239 272.521 126.656 272.768L126.656 272.769L130.754 275.213L130.757 275.215C131.501 275.666 132.342 276.063 133.281 276.402C134.224 276.741 135.267 277.029 136.411 277.264L140.113 278.026C140.596 278.125 140.959 278.059 141.246 277.881C141.518 277.712 141.727 277.418 141.83 276.917C141.965 276.261 141.852 275.481 141.424 274.555L141.424 274.554C141.001 273.637 140.446 272.993 139.771 272.587L139.767 272.584L122.614 262.007C122.374 261.86 122.132 261.734 121.888 261.63L115.183 260.171ZM115.183 260.171L121.102 261.389C121.391 261.448 121.652 261.529 121.888 261.629L115.183 260.171ZM142.682 261.018L142.684 261.019C143.173 261.33 143.692 261.541 144.242 261.654C144.795 261.766 145.357 261.777 145.932 261.686C146.497 261.597 147.046 261.399 147.58 261.088L157.369 254.981L142.682 261.018ZM142.682 261.018C142.198 260.713 141.771 260.315 141.401 259.817L134.835 250.348M142.682 261.018L134.835 250.348M134.835 250.348C134.835 250.348 134.835 250.347 134.835 250.347L134.835 250.348ZM110.151 259.974L110.151 259.975C110.579 260.617 110.714 261.329 110.546 262.145L106.768 280.516C106.6 281.332 106.195 281.932 105.549 282.354L105.548 282.355C104.904 282.778 104.187 282.912 103.364 282.742L100.758 282.207C99.9349 282.037 99.3275 281.631 98.9001 280.987C98.4748 280.345 98.3403 279.634 98.5082 278.817L102.286 260.446C102.453 259.632 102.858 259.031 103.502 258.607C104.149 258.184 104.868 258.05 105.691 258.22L108.296 258.755C109.117 258.924 109.723 259.33 110.151 259.974ZM132.405 245.428C131.857 243.717 131.767 241.967 132.136 240.17C132.574 238.04 133.682 236.403 135.473 235.231C137.265 234.058 139.216 233.692 141.358 234.132C142.946 234.459 144.295 235.179 145.416 236.296C146.57 237.446 147.515 238.749 148.252 240.204L148.536 240.766L149.018 240.362C150.27 239.315 151.653 238.492 153.169 237.891L153.17 237.891C154.638 237.306 156.162 237.176 157.752 237.503C159.896 237.944 161.546 239.051 162.729 240.836C163.912 242.62 164.285 244.562 163.849 246.691C163.479 248.489 162.709 250.063 161.536 251.42C160.339 252.805 158.951 253.992 157.369 254.981L132.405 245.428Z" stroke="white" stroke-opacity="0.1"/>
<path d="M42.1206 213.708L51.4233 231.62L73.9407 227.161C73.9414 227.161 73.9421 227.161 73.9428 227.161C74.304 227.086 74.7322 226.923 75.2315 226.657C75.7325 226.39 76.1005 226.128 76.3529 225.876C76.3535 225.875 76.3541 225.875 76.3548 225.874L91.196 210.692C90.5976 209.702 89.7757 209.08 88.7217 208.794L88.7212 208.793C87.5465 208.473 86.3669 208.612 85.158 209.24L70.765 216.715C69.8208 217.205 68.8259 217.65 67.7805 218.05L67.7798 218.05C66.7166 218.455 65.6677 218.733 64.6337 218.882C64.6325 218.883 64.6313 218.883 64.6301 218.883L59.4929 219.701L59.4871 219.702L59.4871 219.702C59.0018 219.773 58.5477 219.658 58.1537 219.365C57.7646 219.076 57.5184 218.683 57.4319 218.207L57.4295 218.194L57.4278 218.18C57.3711 217.728 57.5122 217.31 57.7929 216.946C58.0868 216.562 58.4872 216.329 58.9669 216.258L58.968 216.258L63.6899 215.574L63.6932 215.573C64.5557 215.454 65.4583 215.232 66.4014 214.905C67.3471 214.573 68.3381 214.14 69.3748 213.601L72.7289 211.859C73.1669 211.632 73.4072 211.352 73.5175 211.033C73.6226 210.73 73.5995 210.37 73.3637 209.916C73.0549 209.322 72.4758 208.787 71.5595 208.338L71.5588 208.338C70.653 207.892 69.8162 207.742 69.0357 207.852L69.0307 207.853L49.0479 210.45C48.7682 210.486 48.501 210.541 48.2459 210.614L42.1206 213.708ZM42.1206 213.708L47.4838 210.922C47.7453 210.786 47.9991 210.684 48.2452 210.614L42.1206 213.708ZM64.0058 197.035L64.0079 197.035C64.5835 196.968 65.1191 196.804 65.618 196.546C66.1172 196.284 66.5609 195.938 66.9503 195.506C67.3329 195.08 67.6342 194.581 67.8524 194.003L71.6044 183.092L64.0058 197.035ZM64.0058 197.035C63.4378 197.103 62.8551 197.063 62.2544 196.91L51.1889 193.695M64.0058 197.035L51.1889 193.695M51.1889 193.695C51.1887 193.695 51.1885 193.695 51.1882 193.695L51.1889 193.695ZM38.0895 216.726L38.0903 216.726C38.8265 216.955 39.3801 217.423 39.7639 218.162L48.4081 234.807C48.792 235.546 48.856 236.267 48.6201 237.001L48.6196 237.003C48.386 237.738 47.9135 238.294 47.1678 238.681L44.8071 239.907C44.0613 240.294 43.3339 240.362 42.5959 240.131C41.8615 239.901 41.3084 239.433 40.9243 238.693L32.2801 222.048C31.8972 221.311 31.8321 220.589 32.0657 219.854C32.3012 219.117 32.7748 218.561 33.5205 218.174L35.8812 216.948C36.6248 216.562 37.3513 216.494 38.0895 216.726ZM46.2014 191.407C44.6975 190.424 43.5246 189.122 42.6788 187.493C41.677 185.564 41.5055 183.595 42.1572 181.556C42.8091 179.516 44.0934 178.002 46.0341 176.994C47.473 176.247 48.9741 175.957 50.5488 176.117C52.1695 176.283 53.7237 176.699 55.2133 177.365L55.7878 177.621L55.9082 177.004C56.2201 175.402 56.775 173.892 57.5735 172.47L57.5739 172.469C58.346 171.09 59.4466 170.029 60.8875 169.28C62.8302 168.271 64.8085 168.091 66.8518 168.731C68.8951 169.371 70.4082 170.644 71.4119 172.572C72.2578 174.201 72.6508 175.908 72.5956 177.701C72.5392 179.531 72.2092 181.327 71.6045 183.092L46.2014 191.407Z" stroke="white" stroke-opacity="0.2"/>
<path d="M51.2999 348.272L47.2343 368.043L67.5277 378.771C67.5283 378.771 67.529 378.772 67.5296 378.772C67.8575 378.941 68.2927 379.084 68.8479 379.193C69.4051 379.301 69.8561 379.329 70.2106 379.293C70.2115 379.293 70.2124 379.293 70.2133 379.293L91.3043 376.858C91.4636 375.712 91.2175 374.711 90.5795 373.824L90.5792 373.824C89.8691 372.835 88.8655 372.2 87.5312 371.925L71.6454 368.658C70.6034 368.444 69.5505 368.163 68.4868 367.814L68.4862 367.814C67.4056 367.458 66.4158 367.013 65.5187 366.478C65.5177 366.477 65.5166 366.476 65.5156 366.476L61.0116 363.873L61.0065 363.87L61.0065 363.87C60.5847 363.62 60.3048 363.244 60.1833 362.769C60.0633 362.299 60.1198 361.839 60.3527 361.415L60.3593 361.403L60.3665 361.391C60.6073 361.004 60.9802 360.769 61.4277 360.663C61.8981 360.55 62.3558 360.621 62.7727 360.869L62.7737 360.869L66.871 363.314L66.8739 363.316C67.6186 363.767 68.4593 364.163 69.3982 364.503C70.3411 364.842 71.384 365.13 72.5282 365.365L76.2301 366.126C76.7136 366.226 77.0763 366.16 77.3629 365.982C77.6356 365.813 77.8444 365.519 77.9475 365.017C78.0825 364.361 77.9695 363.581 77.5412 362.655L77.5408 362.655C77.1185 361.738 76.5631 361.094 75.8881 360.687L75.8837 360.685L58.7317 350.108C58.4913 349.96 58.2493 349.835 58.0055 349.73L51.2999 348.272ZM51.2999 348.272L57.2193 349.489C57.508 349.549 57.7693 349.629 58.0048 349.73L51.2999 348.272ZM78.7995 349.119L78.8012 349.12C79.2903 349.431 79.809 349.641 80.3596 349.755C80.912 349.866 81.4742 349.878 82.0494 349.787C82.6145 349.698 83.163 349.5 83.697 349.188L93.4859 343.082L78.7995 349.119ZM78.7995 349.119C78.3154 348.814 77.8883 348.415 77.5185 347.918L70.9527 338.448M78.7995 349.119L70.9527 338.448M70.9527 338.448C70.9525 338.448 70.9524 338.448 70.9522 338.448L70.9527 338.448ZM46.2681 348.075L46.2686 348.076C46.6957 348.718 46.8309 349.429 46.6632 350.245L42.8853 368.616C42.7176 369.432 42.3125 370.033 41.6667 370.454L41.6653 370.455C41.0207 370.879 40.3038 371.012 39.4807 370.843L36.8752 370.307C36.0521 370.138 35.4447 369.732 35.0173 369.087C34.592 368.446 34.4575 367.734 34.6253 366.918L38.4032 348.547C38.5705 347.733 38.9748 347.131 39.6197 346.708C40.2666 346.284 40.9848 346.151 41.8078 346.32L44.4134 346.856C45.2341 347.025 45.8406 347.43 46.2681 348.075ZM68.522 333.529C67.974 331.818 67.8838 330.068 68.2534 328.27C68.6912 326.141 69.799 324.504 71.5902 323.331C73.3817 322.158 75.3331 321.792 77.4751 322.233C79.0633 322.559 80.4117 323.28 81.5329 324.397C82.6869 325.547 83.6318 326.849 84.3687 328.305L84.653 328.866L85.1357 328.463C86.3871 327.416 87.77 326.593 89.2861 325.992L89.2868 325.991C90.7555 325.407 92.2787 325.277 93.8691 325.604C96.0133 326.045 97.6628 327.152 98.846 328.936C100.029 330.721 100.402 332.662 99.9662 334.792C99.5964 336.59 98.8257 338.163 97.6527 339.521C96.456 340.906 95.0678 342.092 93.4863 343.081L68.522 333.529Z" stroke="white" stroke-opacity="0.2"/>
<path d="M524.3 437.272L520.234 457.043L540.528 467.771C540.528 467.771 540.529 467.772 540.53 467.772C540.857 467.941 541.293 468.084 541.848 468.193C542.405 468.301 542.856 468.329 543.211 468.293C543.212 468.293 543.212 468.293 543.213 468.293L564.304 465.858C564.464 464.712 564.217 463.711 563.58 462.824L563.579 462.824C562.869 461.835 561.866 461.2 560.531 460.925L544.645 457.658C543.603 457.444 542.55 457.163 541.487 456.814L541.486 456.814C540.406 456.458 539.416 456.013 538.519 455.478C538.518 455.477 538.517 455.476 538.516 455.476L534.012 452.873L534.006 452.87L534.006 452.87C533.585 452.62 533.305 452.244 533.183 451.769C533.063 451.299 533.12 450.839 533.353 450.415L533.359 450.403L533.367 450.391C533.607 450.004 533.98 449.769 534.428 449.663C534.898 449.55 535.356 449.621 535.773 449.869L535.774 449.869L539.871 452.314L539.874 452.316C540.619 452.767 541.459 453.163 542.398 453.503C543.341 453.842 544.384 454.13 545.528 454.365L549.23 455.126C549.714 455.226 550.076 455.16 550.363 454.982C550.636 454.813 550.844 454.519 550.948 454.017C551.082 453.361 550.969 452.581 550.541 451.655L550.541 451.655C550.119 450.738 549.563 450.094 548.888 449.687L548.884 449.685L531.732 439.108C531.491 438.96 531.249 438.835 531.006 438.73L524.3 437.272ZM524.3 437.272L530.219 438.489C530.508 438.549 530.769 438.629 531.005 438.73L524.3 437.272ZM551.799 438.119L551.801 438.12C552.29 438.431 552.809 438.641 553.36 438.755C553.912 438.866 554.474 438.878 555.049 438.787C555.614 438.698 556.163 438.5 556.697 438.188L566.486 432.082L551.799 438.119ZM551.799 438.119C551.315 437.814 550.888 437.415 550.518 436.918L543.953 427.448M551.799 438.119L543.953 427.448M543.953 427.448C543.953 427.448 543.952 427.448 543.952 427.448L543.953 427.448ZM519.268 437.075L519.269 437.076C519.696 437.718 519.831 438.429 519.663 439.245L515.885 457.616C515.718 458.432 515.312 459.033 514.667 459.454L514.665 459.455C514.021 459.879 513.304 460.012 512.481 459.843L509.875 459.307C509.052 459.138 508.445 458.732 508.017 458.087C507.592 457.446 507.457 456.734 507.625 455.918L511.403 437.547C511.571 436.733 511.975 436.131 512.62 435.708C513.267 435.284 513.985 435.151 514.808 435.32L517.413 435.856C518.234 436.025 518.841 436.43 519.268 437.075ZM541.522 422.529C540.974 420.818 540.884 419.068 541.253 417.27C541.691 415.141 542.799 413.504 544.59 412.331C546.382 411.158 548.333 410.792 550.475 411.233C552.063 411.559 553.412 412.28 554.533 413.397C555.687 414.547 556.632 415.849 557.369 417.305L557.653 417.866L558.136 417.463C559.387 416.416 560.77 415.593 562.286 414.992L562.287 414.991C563.756 414.407 565.279 414.277 566.869 414.604C569.013 415.045 570.663 416.152 571.846 417.936C573.029 419.721 573.402 421.662 572.966 423.792C572.596 425.59 571.826 427.163 570.653 428.521C569.456 429.906 568.068 431.092 566.486 432.081L541.522 422.529Z" stroke="white" stroke-opacity="0.2"/>
<path d="M289.298 114.272L285.232 134.043L305.526 144.771C305.526 144.771 305.527 144.772 305.528 144.772C305.856 144.941 306.291 145.084 306.846 145.193C307.403 145.301 307.854 145.329 308.209 145.293C308.21 145.293 308.21 145.293 308.211 145.293L329.302 142.858C329.462 141.712 329.216 140.711 328.578 139.824L328.577 139.824C327.867 138.835 326.864 138.2 325.529 137.925L309.643 134.658C308.601 134.444 307.549 134.163 306.485 133.814L306.484 133.814C305.404 133.458 304.414 133.013 303.517 132.478C303.516 132.477 303.515 132.476 303.514 132.476L299.01 129.873L299.005 129.87L299.005 129.87C298.583 129.62 298.303 129.244 298.181 128.769C298.061 128.299 298.118 127.839 298.351 127.415L298.357 127.403L298.365 127.391C298.605 127.004 298.978 126.769 299.426 126.663C299.896 126.55 300.354 126.621 300.771 126.869L300.772 126.869L304.869 129.314L304.872 129.316C305.617 129.767 306.457 130.163 307.396 130.503C308.339 130.842 309.382 131.13 310.526 131.365L314.228 132.126C314.712 132.226 315.074 132.16 315.361 131.982C315.634 131.813 315.842 131.519 315.946 131.017C316.081 130.361 315.968 129.581 315.539 128.655L315.539 128.655C315.117 127.738 314.561 127.094 313.886 126.687L313.882 126.685L296.73 116.108C296.489 115.96 296.247 115.835 296.004 115.73L289.298 114.272ZM289.298 114.272L295.217 115.489C295.506 115.549 295.767 115.629 296.003 115.73L289.298 114.272ZM316.798 115.119L316.799 115.12C317.288 115.431 317.807 115.641 318.358 115.755C318.91 115.866 319.472 115.878 320.047 115.787C320.613 115.698 321.161 115.5 321.695 115.188L331.484 109.082L316.798 115.119ZM316.798 115.119C316.313 114.814 315.886 114.415 315.517 113.918L308.951 104.448M316.798 115.119L308.951 104.448M308.951 104.448C308.951 104.448 308.95 104.448 308.95 104.448L308.951 104.448ZM284.266 114.075L284.267 114.076C284.694 114.718 284.829 115.429 284.661 116.245L280.883 134.616C280.716 135.432 280.311 136.033 279.665 136.454L279.663 136.455C279.019 136.879 278.302 137.012 277.479 136.843L274.873 136.307C274.05 136.138 273.443 135.732 273.015 135.087C272.59 134.446 272.456 133.734 272.623 132.918L276.401 114.547C276.569 113.733 276.973 113.131 277.618 112.708C278.265 112.284 278.983 112.151 279.806 112.32L282.411 112.856C283.232 113.025 283.839 113.43 284.266 114.075ZM306.52 99.5289C305.972 97.8176 305.882 96.0675 306.251 94.2701C306.689 92.141 307.797 90.504 309.588 89.3313C311.38 88.1584 313.331 87.7921 315.473 88.2326C317.061 88.5591 318.41 89.2798 319.531 90.3971C320.685 91.547 321.63 92.8491 322.367 94.3049L322.651 94.8664L323.134 94.4626C324.385 93.4158 325.768 92.5925 327.284 91.9916L327.285 91.9914C328.754 91.4069 330.277 91.2768 331.867 91.6038C334.011 92.0447 335.661 93.1516 336.844 94.9361C338.027 96.7206 338.4 98.6623 337.964 100.792C337.594 102.59 336.824 104.163 335.651 105.521C334.454 106.906 333.066 108.092 331.484 109.081L306.52 99.5289Z" stroke="white" stroke-opacity="0.2"/>
<path d="M305.298 317.272L301.232 337.043L321.526 347.771C321.526 347.771 321.527 347.772 321.528 347.772C321.856 347.941 322.291 348.084 322.846 348.193C323.403 348.301 323.854 348.329 324.209 348.293C324.21 348.293 324.21 348.293 324.211 348.293L345.302 345.858C345.462 344.712 345.216 343.711 344.578 342.824L344.577 342.824C343.867 341.835 342.864 341.2 341.529 340.925L325.643 337.658C324.601 337.444 323.549 337.163 322.485 336.814L322.484 336.814C321.404 336.458 320.414 336.013 319.517 335.478C319.516 335.477 319.515 335.476 319.514 335.476L315.01 332.873L315.005 332.87L315.005 332.87C314.583 332.62 314.303 332.244 314.181 331.769C314.061 331.299 314.118 330.839 314.351 330.415L314.357 330.403L314.365 330.391C314.605 330.004 314.978 329.769 315.426 329.663C315.896 329.55 316.354 329.621 316.771 329.869L316.772 329.869L320.869 332.314L320.872 332.316C321.617 332.767 322.457 333.163 323.396 333.503C324.339 333.842 325.382 334.13 326.526 334.365L330.228 335.126C330.712 335.226 331.074 335.16 331.361 334.982C331.634 334.813 331.842 334.519 331.946 334.017C332.081 333.361 331.968 332.581 331.539 331.655L331.539 331.655C331.117 330.738 330.561 330.094 329.886 329.687L329.882 329.685L312.73 319.108C312.489 318.96 312.247 318.835 312.004 318.73L305.298 317.272ZM305.298 317.272L311.217 318.489C311.506 318.549 311.767 318.629 312.003 318.73L305.298 317.272ZM332.798 318.119L332.799 318.12C333.288 318.431 333.807 318.641 334.358 318.755C334.91 318.866 335.472 318.878 336.047 318.787C336.613 318.698 337.161 318.5 337.695 318.188L347.484 312.082L332.798 318.119ZM332.798 318.119C332.313 317.814 331.886 317.415 331.517 316.918L324.951 307.448M332.798 318.119L324.951 307.448M324.951 307.448C324.951 307.448 324.95 307.448 324.95 307.448L324.951 307.448ZM300.266 317.075L300.267 317.076C300.694 317.718 300.829 318.429 300.661 319.245L296.883 337.616C296.716 338.432 296.311 339.033 295.665 339.454L295.663 339.455C295.019 339.879 294.302 340.012 293.479 339.843L290.873 339.307C290.05 339.138 289.443 338.732 289.015 338.087C288.59 337.446 288.456 336.734 288.623 335.918L292.401 317.547C292.569 316.733 292.973 316.131 293.618 315.708C294.265 315.284 294.983 315.151 295.806 315.32L298.411 315.856C299.232 316.025 299.839 316.43 300.266 317.075ZM322.52 302.529C321.972 300.818 321.882 299.068 322.251 297.27C322.689 295.141 323.797 293.504 325.588 292.331C327.38 291.158 329.331 290.792 331.473 291.233C333.061 291.559 334.41 292.28 335.531 293.397C336.685 294.547 337.63 295.849 338.367 297.305L338.651 297.866L339.134 297.463C340.385 296.416 341.768 295.593 343.284 294.992L343.285 294.991C344.754 294.407 346.277 294.277 347.867 294.604C350.011 295.045 351.661 296.152 352.844 297.936C354.027 299.721 354.4 301.662 353.964 303.792C353.594 305.59 352.824 307.163 351.651 308.521C350.454 309.906 349.066 311.092 347.484 312.081L322.52 302.529Z" stroke="white" stroke-opacity="0.2"/>
<path d="M634.566 422.615L630.5 442.386L650.793 453.114C650.794 453.114 650.795 453.114 650.795 453.115C651.123 453.284 651.558 453.427 652.114 453.535C652.671 453.644 653.122 453.672 653.476 453.636C653.477 453.636 653.478 453.636 653.479 453.636L674.57 451.2C674.729 450.055 674.483 449.054 673.845 448.167L673.845 448.167C673.135 447.178 672.131 446.542 670.797 446.268L654.911 443.001C653.869 442.787 652.816 442.505 651.752 442.157L651.752 442.157C650.671 441.801 649.681 441.356 648.784 440.82C648.783 440.82 648.782 440.819 648.781 440.819L644.277 438.216L644.272 438.213L644.272 438.213C643.85 437.963 643.57 437.587 643.449 437.111C643.329 436.642 643.385 436.182 643.618 435.757L643.625 435.745L643.632 435.734C643.873 435.347 644.246 435.112 644.693 435.006C645.164 434.893 645.621 434.964 646.038 435.212L646.039 435.212L650.137 437.657L650.139 437.658C650.884 438.11 651.725 438.506 652.664 438.846C653.607 439.185 654.65 439.472 655.794 439.708L659.496 440.469C659.979 440.568 660.342 440.503 660.628 440.325C660.901 440.155 661.11 439.861 661.213 439.36C661.348 438.704 661.235 437.924 660.807 436.998L660.806 436.997C660.384 436.08 659.829 435.437 659.154 435.03L659.149 435.027L641.997 424.451C641.757 424.303 641.515 424.177 641.271 424.073L634.566 422.615ZM634.566 422.615L640.485 423.832C640.774 423.891 641.035 423.972 641.27 424.073L634.566 422.615ZM662.065 423.461L662.067 423.462C662.556 423.773 663.075 423.984 663.625 424.097C664.178 424.209 664.74 424.22 665.315 424.13C665.88 424.041 666.429 423.843 666.963 423.531L676.752 417.424L662.065 423.461ZM662.065 423.461C661.581 423.157 661.154 422.758 660.784 422.26L654.218 412.791M662.065 423.461L654.218 412.791M654.218 412.791C654.218 412.791 654.218 412.791 654.218 412.791L654.218 412.791ZM629.534 422.418L629.534 422.418C629.961 423.06 630.097 423.772 629.929 424.588L626.151 442.959C625.983 443.775 625.578 444.376 624.932 444.797L624.931 444.798C624.286 445.221 623.569 445.355 622.746 445.186L620.141 444.65C619.318 444.481 618.71 444.075 618.283 443.43C617.858 442.789 617.723 442.077 617.891 441.261L621.669 422.889C621.836 422.076 622.24 421.474 622.885 421.05C623.532 420.627 624.25 420.494 625.073 420.663L627.679 421.199C628.5 421.367 629.106 421.773 629.534 422.418ZM651.788 407.872C651.24 406.16 651.149 404.41 651.519 402.613C651.957 400.484 653.065 398.847 654.856 397.674C656.647 396.501 658.599 396.135 660.741 396.575C662.329 396.902 663.677 397.623 664.799 398.74C665.953 399.89 666.897 401.192 667.634 402.648L667.919 403.209L668.401 402.805C669.653 401.759 671.036 400.935 672.552 400.334L672.552 400.334C674.021 399.75 675.544 399.62 677.135 399.947C679.279 400.387 680.928 401.494 682.112 403.279C683.295 405.063 683.668 407.005 683.232 409.135C682.862 410.933 682.091 412.506 680.918 413.863C679.722 415.248 678.333 416.435 676.752 417.424L651.788 407.872Z" stroke="white" stroke-opacity="0.2"/>
<path d="M32.2081 191.213L28.1425 210.984L48.4359 221.712C48.4365 221.713 48.4372 221.713 48.4378 221.713C48.7657 221.882 49.2009 222.026 49.7561 222.134C50.3133 222.243 50.7643 222.271 51.1188 222.234C51.1197 222.234 51.1206 222.234 51.1215 222.234L72.2125 219.799C72.3718 218.653 72.1257 217.652 71.4877 216.766L71.4874 216.765C70.7773 215.776 69.7737 215.141 68.4394 214.867L52.5536 211.6C51.5116 211.386 50.4587 211.104 49.395 210.755L49.3944 210.755C48.3138 210.4 47.324 209.955 46.4269 209.419C46.4259 209.418 46.4248 209.418 46.4238 209.417L41.9198 206.815L41.9147 206.812L41.9147 206.812C41.4929 206.561 41.213 206.186 41.0915 205.71C40.9715 205.241 41.028 204.78 41.2609 204.356L41.2675 204.344L41.2747 204.332C41.5155 203.946 41.8884 203.71 42.3359 203.604C42.8063 203.491 43.264 203.563 43.6809 203.81L43.6819 203.811L47.7792 206.255L47.7821 206.257C48.5268 206.708 49.3675 207.105 50.3064 207.444C51.2493 207.783 52.2922 208.071 53.4364 208.306L57.1383 209.068C57.6218 209.167 57.9845 209.101 58.2711 208.923C58.5438 208.754 58.7527 208.46 58.8557 207.959C58.9907 207.303 58.8777 206.523 58.4494 205.597L58.449 205.596C58.0267 204.679 57.4713 204.035 56.7963 203.629L56.792 203.626L39.6399 193.049C39.3995 192.902 39.1575 192.776 38.9137 192.672L32.2081 191.213ZM32.2081 191.213L38.1275 192.431C38.4162 192.49 38.6775 192.571 38.913 192.671L32.2081 191.213ZM59.7077 192.06L59.7095 192.061C60.1985 192.372 60.7172 192.583 61.2678 192.696C61.8202 192.808 62.3824 192.819 62.9576 192.728C63.5227 192.639 64.0712 192.441 64.6052 192.13L74.3941 186.023L59.7077 192.06ZM59.7077 192.06C59.2236 191.755 58.7965 191.357 58.4267 190.859L51.8609 181.39M59.7077 192.06L51.8609 181.39M51.8609 181.39C51.8607 181.39 51.8606 181.389 51.8604 181.389L51.8609 181.39ZM27.1763 191.016L27.1768 191.017C27.6039 191.659 27.7392 192.371 27.5714 193.187L23.7935 211.558C23.6258 212.374 23.2207 212.974 22.5749 213.396L22.5735 213.397C21.9289 213.82 21.212 213.954 20.3889 213.784L17.7834 213.249C16.9603 213.079 16.3529 212.673 15.9255 212.029C15.5002 211.387 15.3657 210.676 15.5336 209.859L19.3114 191.488C19.4787 190.674 19.883 190.073 20.5279 189.649C21.1748 189.226 21.893 189.092 22.716 189.261L25.3216 189.797C26.1423 189.966 26.7488 190.372 27.1763 191.016ZM49.4302 176.47C48.8822 174.759 48.792 173.009 49.1616 171.211C49.5994 169.082 50.7072 167.445 52.4984 166.273C54.2899 165.1 56.2413 164.733 58.3833 165.174C59.9715 165.501 61.3199 166.221 62.4411 167.338C63.5952 168.488 64.54 169.791 65.2769 171.246L65.5612 171.808L66.0439 171.404C67.2953 170.357 68.6782 169.534 70.1943 168.933L70.195 168.933C71.6637 168.348 73.187 168.218 74.7773 168.545C76.9215 168.986 78.571 170.093 79.7542 171.878C80.9375 173.662 81.3104 175.604 80.8744 177.733C80.5047 179.531 79.7339 181.105 78.5609 182.462C77.3642 183.847 75.976 185.034 74.3945 186.023L49.4302 176.47Z" stroke="white" stroke-opacity="0.1"/>
<path d="M249.773 114.912C250.186 114.788 250.643 114.564 251.145 114.24C251.648 113.914 252.036 113.589 252.308 113.267L266.042 96.5815C265.266 95.3559 264.213 94.6221 262.881 94.3798C261.548 94.1359 260.258 94.4085 259.011 95.1978L245.308 103.872C244.426 104.431 243.489 104.95 242.498 105.429C241.502 105.909 240.514 106.263 239.534 106.491L234.478 107.746C234.131 107.827 233.804 107.774 233.499 107.585C233.193 107.396 232.994 107.13 232.9 106.787C232.837 106.492 232.901 106.196 233.091 105.901C233.28 105.604 233.548 105.414 233.896 105.332L238.542 104.248C239.428 104.048 240.339 103.738 241.278 103.32C242.216 102.898 243.188 102.369 244.192 101.734L247.385 99.7121C247.887 99.3948 248.198 98.9982 248.318 98.5224C248.439 98.0465 248.335 97.5497 248.007 97.032C247.575 96.3488 246.85 95.8098 245.834 95.4149C244.819 95.019 243.87 94.922 242.985 95.1241L223.296 99.4154C222.997 99.481 222.712 99.5653 222.44 99.6685C222.166 99.7728 221.892 99.9118 221.618 100.086L216.089 103.585L227.353 121.379L249.773 114.912ZM217.294 129.004C217.807 129.814 218.508 130.318 219.397 130.515C220.288 130.713 221.142 130.554 221.956 130.038L224.204 128.615C225.019 128.099 225.526 127.397 225.728 126.507C225.932 125.619 225.777 124.769 225.264 123.959L215.233 108.112C214.72 107.302 214.018 106.799 213.128 106.603C212.236 106.405 211.384 106.564 210.571 107.078L208.323 108.501C207.509 109.017 207 109.72 206.797 110.61C206.596 111.5 206.751 112.349 207.263 113.157L217.294 129.004ZM238.996 85.0597C238.468 85.3938 237.891 85.6246 237.265 85.7522C236.638 85.8827 235.989 85.8917 235.317 85.7791L224.009 83.5179C222.133 83.1397 220.365 82.505 218.707 81.6136C217.047 80.7205 215.704 79.4631 214.678 77.8414C213.445 75.8939 213.081 73.8106 213.587 71.5915C214.092 69.3724 215.324 67.6433 217.281 66.4045C218.731 65.4862 220.298 65.041 221.98 65.0687C223.662 65.0965 225.299 65.3874 226.89 65.9414C227.07 64.2662 227.508 62.6619 228.205 61.1284C228.898 59.5972 229.97 58.3719 231.423 57.4525C233.382 56.2125 235.472 55.8388 237.694 56.3313C239.916 56.8239 241.644 58.0433 242.879 59.9897C243.906 61.6114 244.47 63.3616 244.573 65.2402C244.675 67.1188 244.495 68.9868 244.03 70.8443L241.22 82.0423C241.036 82.6964 240.751 83.2788 240.365 83.7896C239.979 84.3005 239.523 84.7238 238.996 85.0597Z" fill="white" fill-opacity="0.1"/>
<path d="M400.06 129.19C400.491 129.201 400.995 129.13 401.573 128.978C402.152 128.825 402.622 128.637 402.981 128.415L421.226 116.833C420.87 115.427 420.097 114.402 418.907 113.757C417.716 113.11 416.405 112.968 414.975 113.33L399.252 117.309C398.24 117.565 397.188 117.766 396.097 117.914C395.001 118.06 393.952 118.089 392.95 118.001L387.755 117.619C387.399 117.589 387.105 117.436 386.874 117.162C386.642 116.887 386.535 116.573 386.554 116.217C386.586 115.917 386.738 115.656 387.011 115.434C387.283 115.211 387.597 115.114 387.953 115.144L392.706 115.56C393.609 115.645 394.572 115.635 395.594 115.529C396.617 115.421 397.705 115.221 398.857 114.929L402.521 114.002C403.096 113.856 403.515 113.576 403.778 113.161C404.041 112.747 404.097 112.242 403.946 111.648C403.748 110.864 403.227 110.127 402.384 109.435C401.543 108.743 400.671 108.355 399.768 108.272L379.72 106.223C379.416 106.192 379.119 106.183 378.828 106.197C378.536 106.211 378.232 106.257 377.917 106.337L371.574 107.942L376.74 128.358L400.06 129.19ZM364.808 132.474C365.043 133.404 365.553 134.1 366.336 134.564C367.122 135.029 367.982 135.144 368.917 134.907L371.496 134.255C372.431 134.018 373.132 133.508 373.6 132.726C374.07 131.945 374.188 131.089 373.953 130.16L369.351 111.978C369.116 111.048 368.606 110.352 367.821 109.889C367.035 109.423 366.175 109.309 365.243 109.545L362.664 110.197C361.729 110.434 361.027 110.944 360.557 111.727C360.089 112.509 359.972 113.364 360.207 114.292L364.808 132.474ZM399.109 97.466C398.503 97.6193 397.883 97.6591 397.248 97.5854C396.612 97.5143 395.992 97.3208 395.389 97.0048L385.346 91.3366C383.68 90.3931 382.198 89.2398 380.9 87.8766C379.601 86.5114 378.716 84.8985 378.245 83.0378C377.679 80.8034 377.982 78.7104 379.153 76.7588C380.324 74.8072 382.033 73.5473 384.278 72.979C385.942 72.5579 387.57 72.6222 389.16 73.1721C390.75 73.7221 392.214 74.5079 393.554 75.5296C394.247 73.9936 395.162 72.6054 396.301 71.3648C397.437 70.1253 398.837 69.2946 400.504 68.873C402.751 68.3042 404.854 68.5996 406.812 69.7593C408.771 70.9189 410.034 72.6157 410.601 74.8496C411.072 76.7103 411.064 78.5492 410.577 80.3664C410.09 82.1837 409.336 83.9027 408.317 85.5234L402.162 95.2908C401.783 95.8551 401.331 96.3199 400.805 96.6852C400.279 97.0505 399.714 97.3107 399.109 97.466Z" fill="white" fill-opacity="0.1"/>
</g>
</g>
</svg>
