<svg width="51" height="51" viewBox="0 0 51 51" fill="none" xmlns="http://www.w3.org/2000/svg">
<path d="M47.6 28.8787C49.4778 28.8787 51 27.3661 51 25.5003C51 23.6345 49.4778 22.1219 47.6 22.1219V28.8787ZM0.995839 23.1115C-0.331947 24.4308 -0.331946 26.5698 0.995839 27.8892L22.6333 49.389C23.9611 50.7084 26.1138 50.7084 27.4416 49.389C28.7694 48.0697 28.7694 45.9307 27.4416 44.6113L8.20835 25.5003L27.4416 6.38932C28.7694 5.06998 28.7694 2.93091 27.4416 1.61157C26.1138 0.292236 23.9611 0.292237 22.6333 1.61157L0.995839 23.1115ZM47.6 22.1219H3.4V28.8787H47.6V22.1219Z" fill="white"/>
</svg>
