<svg width="18" height="18" viewBox="0 0 18 18" fill="none" xmlns="http://www.w3.org/2000/svg">
  <path d="M10.5 0H18V7.5H16L15 5L13 7.5C14.0598 8.91732 14.1495 9.99147 13.9596 11.751C13.7697 13.5105 12.9204 15.1329 11.5826 16.2914C10.2448 17.45 8.51785 18.0589 6.74924 17.9955C4.98062 17.9321 3.30166 17.2011 2.05026 15.9497C0.798852 14.6983 0.0678964 13.0194 0.00449718 11.2508C-0.058902 9.48214 0.549961 7.75516 1.70855 6.41736C2.86714 5.07957 4.48945 4.23027 6.24899 4.0404C8.00853 3.85053 9.08268 3.94017 10.5 5L12.5 3L10.5 2V0ZM7 8C5.67392 8 5.93768 8.06232 5 9C4.06232 9.93768 4 9.67392 4 11C4 12.3261 4.06232 12.0623 5 13C5.93768 13.9377 5.67392 14 7 14C8.32608 14 8.06232 13.9377 9 13C9.93768 12.0623 10 12.3261 10 11C10 9.67392 9.93768 9.93768 9 9C8.06232 8.06232 8.32608 8 7 8Z" fill="#3A2D13"/>
</svg>
