<svg width="20" height="16" viewBox="0 0 20 16" fill="none" xmlns="http://www.w3.org/2000/svg">
<path d="M10.0003 3.75L8.67031 3.84C7.81031 2.82 5.40031 0.25 3.00031 0.25C3.00031 0.25 1.03031 3.21 2.96031 7.16C2.41031 7.99 2.07031 8.42 2.00031 9.41L0.0703125 9.7L0.280313 10.68L2.04031 10.42L2.18031 11.13L0.610312 12.07L1.08031 12.96L2.53031 12.07C3.68031 14.51 6.59031 15.75 10.0003 15.75C13.4103 15.75 16.3203 14.51 17.4703 12.07L18.9203 12.96L19.3903 12.07L17.8203 11.13L17.9603 10.42L19.7203 10.68L19.9303 9.7L18.0003 9.41C17.9303 8.42 17.5903 7.99 17.0403 7.16C18.9703 3.21 17.0003 0.25 17.0003 0.25C14.6003 0.25 12.1903 2.82 11.3303 3.84L10.0003 3.75ZM7.00031 6.75C7.26553 6.75 7.51988 6.85536 7.70742 7.04289C7.89496 7.23043 8.00031 7.48478 8.00031 7.75C8.00031 8.01522 7.89496 8.26957 7.70742 8.45711C7.51988 8.64464 7.26553 8.75 7.00031 8.75C6.7351 8.75 6.48074 8.64464 6.29321 8.45711C6.10567 8.26957 6.00031 8.01522 6.00031 7.75C6.00031 7.48478 6.10567 7.23043 6.29321 7.04289C6.48074 6.85536 6.7351 6.75 7.00031 6.75ZM13.0003 6.75C13.2655 6.75 13.5199 6.85536 13.7074 7.04289C13.895 7.23043 14.0003 7.48478 14.0003 7.75C14.0003 8.01522 13.895 8.26957 13.7074 8.45711C13.5199 8.64464 13.2655 8.75 13.0003 8.75C12.7351 8.75 12.4807 8.64464 12.2932 8.45711C12.1057 8.26957 12.0003 8.01522 12.0003 7.75C12.0003 7.48478 12.1057 7.23043 12.2932 7.04289C12.4807 6.85536 12.7351 6.75 13.0003 6.75ZM9.00031 9.75H11.0003L10.3003 11.14C10.5003 11.78 11.0603 12.25 11.7503 12.25C12.1481 12.25 12.5297 12.092 12.811 11.8107C13.0923 11.5294 13.2503 11.1478 13.2503 10.75H13.7503C13.7503 11.2804 13.5396 11.7891 13.1645 12.1642C12.7895 12.5393 12.2807 12.75 11.7503 12.75C11.0003 12.75 10.3503 12.34 10.0003 11.75C9.65031 12.34 9.00031 12.75 8.25031 12.75C7.71988 12.75 7.21117 12.5393 6.8361 12.1642C6.46103 11.7891 6.25031 11.2804 6.25031 10.75H6.75031C6.75031 11.1478 6.90835 11.5294 7.18965 11.8107C7.47096 12.092 7.85249 12.25 8.25031 12.25C8.94031 12.25 9.50031 11.78 9.70031 11.14L9.00031 9.75Z" fill="#3A2D13"/>
</svg>
