<svg width="217" height="165" viewBox="0 0 217 165" fill="none" xmlns="http://www.w3.org/2000/svg">
<path d="M28.3879 14.2282C56.4406 -6.14076 96.5086 -4.47588 122.446 18.1694C148.829 41.2198 152.434 78.8564 130.734 105.819C110.294 131.212 73.4276 139.58 42.7344 126.482L41.058 125.738L9.58784 132.597L9.30004 132.641L9.04822 132.692H8.91872L8.76043 132.729H8.48703L8.2496 132.759L8.09851 132.751L7.93303 132.759L7.6956 132.737H7.44378L7.28549 132.707L7.12721 132.692L6.87539 132.641L6.63076 132.604L6.51565 132.574L6.34297 132.538L5.99042 132.42L5.81775 132.383L5.73861 132.346L5.58032 132.295L5.25655 132.147L5.04071 132.059L4.96156 132.015L4.86084 131.97L4.6378 131.838L4.31403 131.661L4.19891 131.58L3.9327 131.388L3.64491 131.19L3.63052 131.16L3.53699 131.094L3.22761 130.799L3.04774 130.652L3.00457 130.6L2.60166 130.143L2.50813 130.04L2.42898 129.937L2.14838 129.525L2.04766 129.385L2.01168 129.311L1.7095 128.773L1.65914 128.685L1.63036 128.626L1.57999 128.537L1.47927 128.258L1.33537 127.948L1.30659 127.83L1.27781 127.757L1.1555 127.307L1.10513 127.175L1.09074 127.064L1.05477 126.924L1.0188 126.681L0.961238 126.372L0.946848 126.143L0.925263 126.07V125.952L0.896484 125.554L0.903679 125.289L0.910875 125.119L0.925263 124.729L0.954042 124.545V124.405L1.0116 124.147L1.04758 123.896L1.08355 123.749L1.11233 123.602L1.24184 123.16L1.26342 123.064L9.53747 97.6489L9.37919 97.3763C-6.52139 69.7732 0.68064 35.5622 26.7403 15.4658L28.3879 14.2282Z" fill="white"/>
<path d="M41.8694 123.91L41.2714 123.645L40.6321 123.784L9.22286 130.629L8.99651 130.664L8.94742 130.671L8.89876 130.681L8.84549 130.692H8.68908L8.53079 130.729H8.48703H8.3634L8.24072 130.744L8.1746 130.753L8.10274 130.749L8.00952 130.753L7.98147 130.754L7.88104 130.745L7.78852 130.737H7.6956H7.62831L7.5617 130.724L7.47074 130.716L7.42135 130.711L7.27668 130.681L7.22511 130.671L7.17306 130.663L7.02864 130.641L7.01157 130.637L6.9725 130.627L6.93306 130.618L6.87028 130.605L6.62454 130.523L6.51777 130.487L6.43584 130.47L6.35804 130.444L6.30656 130.428L6.08496 130.327L6.05002 130.311L6.01451 130.296L5.91046 130.254L5.85311 130.222L5.77719 130.188L5.65983 130.119L5.62842 130.1L5.59635 130.082L5.37242 129.96L5.36695 129.956L5.3502 129.945L5.21518 129.847L5.20364 129.824L4.81155 129.546L4.60699 129.351L4.5528 129.299L4.49489 129.252L4.44874 129.214L4.10147 128.82L4.09238 128.81L4.08315 128.8L4.04739 128.76L3.8021 128.4L3.78723 128.378L3.77179 128.357L3.76116 128.342L3.75526 128.331L3.45311 127.793L3.44723 127.783L3.42841 127.75L3.42759 127.748L3.40482 127.702L3.36115 127.58L3.33068 127.496L3.29273 127.414L3.23169 127.283L3.21793 127.227L3.17956 127.128L3.08529 126.782L3.05973 126.688L3.05775 126.683L3.02779 126.566L3.01789 126.528L2.99725 126.388L2.99183 126.352L2.98506 126.315L2.94966 126.125L2.94289 126.018L2.92886 125.795L2.91596 125.751L2.89844 125.509L2.90253 125.358L2.9091 125.204L2.90952 125.193L2.91955 124.921L2.93006 124.854L2.95404 124.7V124.625L2.96355 124.583L2.98034 124.508L2.99129 124.431L3.01348 124.277L3.02647 124.224L3.03752 124.178L3.04645 124.133L3.05756 124.076L3.16115 123.722L3.17897 123.661L3.1929 123.6L3.19401 123.595L11.4392 98.268L11.716 97.4177L11.267 96.6445L11.1122 96.378C11.1116 96.3769 11.111 96.3758 11.1103 96.3748C-4.26358 69.6823 2.6577 36.5705 27.9517 17.0573L29.576 15.8372C56.8819 -3.98008 95.9076 -2.34552 121.131 19.676C146.725 42.0378 150.186 78.459 129.176 104.565C109.334 129.214 73.45 137.408 43.5325 124.648L41.8694 123.91Z" stroke="white" stroke-opacity="0.1" stroke-width="4"/>
<path d="M72.8965 50.7783L68.0747 51.1086C64.9569 47.3645 56.2197 37.9307 47.5188 37.9307C47.5188 37.9307 40.3768 48.7961 47.3738 63.2955C45.3799 66.3422 44.1472 67.9207 43.8935 71.5547L36.8965 72.6192L37.6578 76.2165L44.0385 75.2621L44.546 77.8684L38.8542 81.3189L40.5581 84.5858L45.8149 81.3189C49.9841 90.2755 60.5339 94.8272 72.8965 94.8272C85.259 94.8272 95.8089 90.2755 99.978 81.3189L105.235 84.5858L106.939 81.3189L101.247 77.8684L101.754 75.2621L108.135 76.2165L108.896 72.6192L101.899 71.5547C101.646 67.9207 100.413 66.3422 98.4191 63.2955C105.416 48.7961 98.2741 37.9307 98.2741 37.9307C89.5732 37.9307 80.8361 47.3645 77.7182 51.1086L72.8965 50.7783ZM62.0203 61.7905C62.9819 61.7905 63.904 62.1772 64.5839 62.8656C65.2638 63.554 65.6457 64.4877 65.6457 65.4613C65.6457 66.4348 65.2638 67.3685 64.5839 68.0569C63.904 68.7453 62.9819 69.132 62.0203 69.132C61.0588 69.132 60.1367 68.7453 59.4568 68.0569C58.7769 67.3685 58.395 66.4348 58.395 65.4613C58.395 64.4877 58.7769 63.554 59.4568 62.8656C60.1367 62.1772 61.0588 61.7905 62.0203 61.7905ZM83.7726 61.7905C84.7341 61.7905 85.6562 62.1772 86.3361 62.8656C87.016 63.554 87.398 64.4877 87.398 65.4613C87.398 66.4348 87.016 67.3685 86.3361 68.0569C85.6562 68.7453 84.7341 69.132 83.7726 69.132C82.8111 69.132 81.889 68.7453 81.2091 68.0569C80.5292 67.3685 80.1472 66.4348 80.1472 65.4613C80.1472 64.4877 80.5292 63.554 81.2091 62.8656C81.889 62.1772 82.8111 61.7905 83.7726 61.7905ZM69.2711 72.8027H76.5219L73.9841 77.9051C74.7092 80.2544 76.7394 81.9796 79.2409 81.9796C80.6832 81.9796 82.0663 81.3995 83.0862 80.3669C84.106 79.3343 84.679 77.9338 84.679 76.4735H86.4916C86.4916 78.4206 85.7277 80.2879 84.3679 81.6647C83.0082 83.0415 81.1639 83.815 79.2409 83.815C76.5219 83.815 74.1654 82.31 72.8965 80.1442C71.6276 82.31 69.2711 83.815 66.5521 83.815C64.6291 83.815 62.7848 83.0415 61.425 81.6647C60.0652 80.2879 59.3013 78.4206 59.3013 76.4735H61.114C61.114 77.9338 61.6869 79.3343 62.7068 80.3669C63.7266 81.3995 65.1098 81.9796 66.5521 81.9796C69.0536 81.9796 71.0838 80.2544 71.8089 77.9051L69.2711 72.8027Z" fill="#1C1508"/>
<path d="M67.6905 51.4286L67.854 51.6249L68.1089 51.6075L72.8965 51.2794L77.6841 51.6075L77.939 51.6249L78.1025 51.4286C79.6498 49.5704 82.587 46.3065 86.208 43.5114C89.7618 40.7682 93.9036 38.5318 97.9959 38.434C98.0342 38.4991 98.0795 38.5777 98.1307 38.6695C98.306 38.9835 98.551 39.4517 98.8248 40.0601C99.3723 41.2771 100.033 43.0526 100.48 45.2744C101.373 49.7128 101.413 55.9408 97.9688 63.0782L97.846 63.3328L98.0008 63.5693C98.1627 63.8167 98.319 64.0537 98.4698 64.2823C100.185 66.8825 101.177 68.3863 101.401 71.5895L101.429 71.9888L101.824 72.049L108.298 73.0339L107.743 75.6524L101.828 74.7676L101.355 74.6969L101.264 75.1666L100.756 77.7728L100.689 78.1151L100.988 78.2959L106.279 81.5034L105.041 83.8766L100.242 80.8942L99.7628 80.5964L99.5247 81.1079C95.4738 89.8104 85.1683 94.3272 72.8965 94.3272C60.6247 94.3272 50.3191 89.8104 46.2682 81.1079L46.0301 80.5964L45.551 80.8942L40.7521 83.8766L39.5143 81.5034L44.8052 78.2959L45.1035 78.1151L45.0368 77.7728L44.5293 75.1666L44.4378 74.6969L43.9645 74.7676L38.0495 75.6524L37.4953 73.0339L43.9687 72.049L44.3644 71.9888L44.3922 71.5895C44.6159 68.3863 45.6079 66.8825 47.3232 64.2823C47.4739 64.0537 47.6303 63.8167 47.7922 63.5693L47.947 63.3328L47.8241 63.0782C44.3798 55.9408 44.4199 49.7128 45.3126 45.2744C45.7595 43.0526 46.4206 41.2771 46.9682 40.0601C47.2419 39.4517 47.487 38.9835 47.6622 38.6695C47.7135 38.5777 47.7588 38.4991 47.797 38.434C51.8893 38.5318 56.0312 40.7682 59.5849 43.5114C63.206 46.3065 66.1432 49.5704 67.6905 51.4286ZM69.2711 72.3027H68.464L68.8234 73.0254L71.27 77.9444C70.5537 80.0155 68.7395 81.4796 66.5521 81.4796C65.2444 81.4796 63.9891 80.9537 63.0625 80.0156C62.1358 79.0772 61.614 77.8032 61.614 76.4735V75.9735H61.114H59.3013H58.8013V76.4735C58.8013 78.5512 59.6164 80.545 61.0693 82.0161C62.5223 83.4873 64.4944 84.315 66.5521 84.315C69.1752 84.315 71.4778 83.0057 72.8965 81.0561C74.3151 83.0057 76.6178 84.315 79.2409 84.315C81.2985 84.315 83.2706 83.4873 84.7237 82.0161C86.1765 80.545 86.9916 78.5512 86.9916 76.4735V75.9735H86.4916H84.679H84.179V76.4735C84.179 77.8032 83.6572 79.0772 82.7304 80.0156C81.8039 80.9537 80.5485 81.4796 79.2409 81.4796C77.0534 81.4796 75.2392 80.0155 74.523 77.9444L76.9695 73.0254L77.329 72.3027H76.5219H69.2711ZM64.9396 62.5143C64.1665 61.7315 63.1165 61.2905 62.0203 61.2905C60.9242 61.2905 59.8742 61.7315 59.1011 62.5143C58.3281 63.2969 57.895 64.3571 57.895 65.4613C57.895 66.5654 58.3281 67.6256 59.1011 68.4082C59.8742 69.1911 60.9242 69.632 62.0203 69.632C63.1165 69.632 64.1665 69.1911 64.9396 68.4082C65.7126 67.6256 66.1457 66.5654 66.1457 65.4613C66.1457 64.3571 65.7126 63.2969 64.9396 62.5143ZM86.6919 62.5143C85.9187 61.7315 84.8688 61.2905 83.7726 61.2905C82.6765 61.2905 81.6265 61.7315 80.8533 62.5143C80.0804 63.2969 79.6472 64.3571 79.6472 65.4613C79.6472 66.5654 80.0804 67.6256 80.8533 68.4082C81.6265 69.1911 82.6765 69.632 83.7726 69.632C84.8688 69.632 85.9187 69.1911 86.6919 68.4082C87.4648 67.6256 87.898 66.5654 87.898 65.4613C87.898 64.3571 87.4648 63.2969 86.6919 62.5143Z" stroke="white" stroke-opacity="0.1"/>
<path d="M189.405 46.4694C161.352 26.1005 121.284 27.7653 95.3471 50.4106C68.9636 73.4611 65.359 111.098 87.0586 138.06C107.499 163.453 144.365 171.821 175.059 158.723L176.735 157.979L208.205 164.838L208.493 164.882L208.745 164.934H208.874L209.033 164.97H209.306L209.543 165L209.694 164.992L209.86 165L210.097 164.978H210.349L210.507 164.948L210.666 164.934L210.918 164.882L211.162 164.845L211.277 164.816L211.45 164.779L211.803 164.661L211.975 164.624L212.054 164.587L212.213 164.536L212.536 164.388L212.752 164.3L212.831 164.256L212.932 164.212L213.155 164.079L213.479 163.902L213.594 163.821L213.86 163.63L214.148 163.431L214.162 163.401L214.256 163.335L214.565 163.04L214.745 162.893L214.788 162.841L215.191 162.385L215.285 162.282L215.364 162.178L215.645 161.766L215.745 161.626L215.781 161.552L216.083 161.014L216.134 160.926L216.163 160.867L216.213 160.779L216.314 160.499L216.458 160.189L216.486 160.071L216.515 159.998L216.637 159.548L216.688 159.416L216.702 159.305L216.738 159.165L216.774 158.922L216.832 158.613L216.846 158.385L216.868 158.311V158.193L216.896 157.795L216.889 157.53L216.882 157.361L216.868 156.97L216.839 156.786V156.646L216.781 156.388L216.745 156.138L216.709 155.99L216.681 155.843L216.551 155.401L216.53 155.305L208.255 129.89L208.414 129.618C224.314 102.014 217.112 67.8034 191.053 47.707L189.405 46.4694Z" fill="#21190B"/>
<path d="M175.924 156.151L176.522 155.886L177.161 156.025L208.57 162.87L208.796 162.905L208.846 162.913L208.894 162.923L208.947 162.934H209.104L209.262 162.97H209.306H209.43L209.552 162.986L209.618 162.994L209.69 162.99L209.783 162.994L209.812 162.996L209.912 162.986L210.004 162.978H210.097H210.165L210.231 162.965L210.322 162.957L210.372 162.952L210.516 162.923L210.568 162.912L210.62 162.904L210.764 162.882L210.781 162.878L210.82 162.868L210.86 162.86L210.923 162.846L211.168 162.764L211.275 162.728L211.357 162.711L211.435 162.686L211.486 162.669L211.708 162.568L211.743 162.552L211.778 162.538L211.883 162.495L211.94 162.463L212.016 162.43L212.133 162.36L212.165 162.341L212.197 162.324L212.421 162.201L212.426 162.198L212.443 162.186L212.578 162.088L212.589 162.065L212.981 161.787L213.186 161.592L213.24 161.54L213.298 161.493L213.344 161.455L213.691 161.062L213.701 161.051L213.71 161.041L213.746 161.002L213.991 160.641L214.006 160.619L214.021 160.598L214.032 160.583L214.038 160.572L214.34 160.035L214.346 160.024L214.365 159.991L214.365 159.99L214.388 159.943L214.432 159.822L214.462 159.737L214.5 159.655L214.561 159.524L214.575 159.468L214.613 159.37L214.708 159.023L214.733 158.929L214.735 158.924L214.765 158.807L214.775 158.769L214.796 158.63L214.801 158.593L214.808 158.557L214.843 158.366L214.85 158.259L214.864 158.036L214.877 157.992L214.895 157.75L214.89 157.6L214.884 157.445L214.883 157.434L214.873 157.162L214.863 157.095L214.839 156.941V156.867L214.829 156.824L214.813 156.749L214.802 156.672L214.779 156.518L214.766 156.465L214.755 156.419L214.747 156.374L214.735 156.317L214.632 155.963L214.614 155.903L214.6 155.841L214.599 155.836L206.354 130.509L206.077 129.659L206.526 128.886L206.681 128.619C206.681 128.618 206.682 128.617 206.683 128.616C222.057 101.923 215.135 68.8117 189.841 49.2985L188.217 48.0784C160.911 28.2611 121.885 29.8957 96.6624 51.9172C71.0677 74.279 67.6065 110.7 88.6167 136.806C108.459 161.455 144.343 169.65 174.26 156.889L175.924 156.151Z" stroke="white" stroke-opacity="0.1" stroke-width="4"/>
<path d="M164.533 66.3789C158.936 66.3789 155.533 67.5524 153.569 68.5481C151.049 67.1968 148.169 66.3789 144.896 66.3789C141.624 66.3789 138.744 67.1968 136.224 68.5481C134.26 67.5524 130.856 66.3789 125.26 66.3789C115.442 66.3789 108.896 94.8272 108.896 101.939C108.896 104.891 113.216 107.593 119.173 108.696C121.267 116.661 131.151 122.742 143.26 123.275V108.056C141.329 106.74 138.351 104.357 138.351 101.939C138.351 98.3832 144.896 98.3832 144.896 98.3832C144.896 98.3832 151.442 98.3832 151.442 101.939C151.442 104.357 148.464 106.74 146.533 108.056V123.275C158.642 122.742 168.526 116.661 170.62 108.696C176.576 107.593 180.896 104.891 180.896 101.939C180.896 94.8272 174.351 66.3789 164.533 66.3789ZM119.206 101.477C117.569 101.05 116.293 100.552 115.442 100.161C116.26 90.311 122.642 74.9134 125.424 73.491C127.191 73.491 128.533 73.7043 129.744 73.8821C122.871 82.0966 120.155 94.9694 119.206 101.477ZM135.078 94.8272C134.21 94.8272 133.378 94.4525 132.764 93.7856C132.15 93.1188 131.806 92.2143 131.806 91.2711C131.806 89.3509 133.278 87.7151 135.078 87.7151C135.946 87.7151 136.779 88.0898 137.392 88.7567C138.006 89.4235 138.351 90.328 138.351 91.2711C138.351 93.2625 136.878 94.8272 135.078 94.8272ZM154.715 94.8272C153.847 94.8272 153.014 94.4525 152.4 93.7856C151.787 93.1188 151.442 92.2143 151.442 91.2711C151.442 89.3509 152.915 87.7151 154.715 87.7151C155.583 87.7151 156.415 88.0898 157.029 88.7567C157.643 89.4235 157.987 90.328 157.987 91.2711C157.987 93.2625 156.515 94.8272 154.715 94.8272ZM170.587 101.477C169.638 94.9694 166.922 82.0966 160.049 73.8821C161.26 73.7043 162.602 73.491 164.369 73.491C167.151 74.9134 173.533 90.311 174.351 100.161C173.533 100.552 172.256 101.05 170.587 101.477Z" fill="white"/>
<path d="M153.333 68.9887L153.563 69.112L153.795 68.994C155.685 68.0357 159.011 66.8789 164.533 66.8789C166.735 66.8789 168.855 68.4814 170.826 71.2267C172.781 73.9505 174.501 77.6794 175.926 81.6605C178.779 89.6316 180.396 98.4616 180.396 101.939C180.396 103.159 179.495 104.441 177.72 105.591C175.965 106.728 173.463 107.661 170.529 108.204L170.217 108.262L170.137 108.569C169.131 112.392 166.242 115.809 162.072 118.345C158.027 120.806 152.806 122.416 147.033 122.749V108.318C147.975 107.663 149.13 106.773 150.078 105.751C151.087 104.664 151.942 103.344 151.942 101.939C151.942 100.871 151.441 100.071 150.735 99.4958C150.044 98.9327 149.15 98.576 148.3 98.3452C147.444 98.1127 146.595 97.9979 145.964 97.9408C145.648 97.9121 145.383 97.8978 145.197 97.8905C145.104 97.8869 145.03 97.8851 144.979 97.8842C144.953 97.8837 144.934 97.8835 144.92 97.8833L144.903 97.8832L144.899 97.8832L144.897 97.8832H144.897C144.897 97.8832 144.896 97.8832 144.896 98.3832C144.896 97.8832 144.896 97.8832 144.896 97.8832H144.896L144.894 97.8832L144.89 97.8832L144.873 97.8833C144.859 97.8835 144.839 97.8837 144.814 97.8842C144.763 97.8851 144.689 97.8869 144.596 97.8905C144.41 97.8978 144.145 97.9121 143.829 97.9408C143.198 97.9979 142.349 98.1127 141.493 98.3452C140.643 98.576 139.749 98.9327 139.058 99.4958C138.352 100.071 137.851 100.871 137.851 101.939C137.851 103.344 138.706 104.664 139.715 105.751C140.663 106.773 141.818 107.663 142.76 108.318V122.749C136.987 122.416 131.766 120.806 127.721 118.345C123.551 115.809 120.662 112.392 119.656 108.569L119.576 108.262L119.264 108.204C116.33 107.661 113.827 106.728 112.073 105.591C110.298 104.441 109.396 103.159 109.396 101.939C109.396 98.4616 111.014 89.6316 113.867 81.6605C115.292 77.6794 117.012 73.9505 118.967 71.2267C120.938 68.4814 123.058 66.8789 125.26 66.8789C130.782 66.8789 134.108 68.0357 135.998 68.994L136.23 69.112L136.46 68.9887C138.912 67.6741 141.711 66.8789 144.896 66.8789C148.082 66.8789 150.881 67.6741 153.333 68.9887ZM119.079 101.961L119.62 102.102L119.7 101.549C120.648 95.0487 123.352 82.3013 130.127 74.203L130.701 73.5173L129.816 73.3874C129.748 73.3774 129.679 73.3673 129.61 73.357C128.452 73.186 127.13 72.991 125.424 72.991H125.303L125.196 73.0458C124.744 73.2767 124.284 73.7487 123.833 74.3369C123.371 74.9394 122.877 75.7187 122.369 76.6296C121.352 78.4527 120.259 80.8408 119.23 83.4844C117.176 88.765 115.358 95.1274 114.944 100.12L114.915 100.469L115.233 100.616C116.109 101.018 117.413 101.526 119.079 101.961ZM170.093 101.549L170.173 102.099L170.711 101.961C172.41 101.527 173.717 101.018 174.567 100.612L174.878 100.464L174.849 100.12C174.435 95.1274 172.617 88.765 170.562 83.4844C169.534 80.8408 168.441 78.4527 167.424 76.6296C166.916 75.7187 166.422 74.9394 165.96 74.3369C165.509 73.7487 165.048 73.2767 164.597 73.0458L164.49 72.991H164.369C162.663 72.991 161.341 73.186 160.183 73.357C160.114 73.3673 160.045 73.3774 159.977 73.3874L159.092 73.5173L159.666 74.203C166.441 82.3013 169.145 95.0487 170.093 101.549ZM132.396 94.1242C133.1 94.8889 134.064 95.3272 135.078 95.3272C137.19 95.3272 138.851 93.5022 138.851 91.2711C138.851 90.2082 138.463 89.1813 137.76 88.4181C137.057 87.6534 136.093 87.2151 135.078 87.2151C132.961 87.2151 131.306 89.118 131.306 91.2711C131.306 92.3341 131.694 93.361 132.396 94.1242ZM152.033 94.1242C152.736 94.8889 153.7 95.3272 154.715 95.3272C156.826 95.3272 158.487 93.5022 158.487 91.2711C158.487 90.2082 158.099 89.1813 157.397 88.4181C156.693 87.6534 155.729 87.2151 154.715 87.2151C152.597 87.2151 150.942 89.118 150.942 91.2711C150.942 92.3341 151.33 93.361 152.033 94.1242Z" stroke="white" stroke-opacity="0.1"/>
</svg>
