<svg width="29" height="32" viewBox="0 0 29 32" fill="none" xmlns="http://www.w3.org/2000/svg">
<path d="M25.967 2.92831C21.9259 -0.976103 15.3451 -0.976103 11.3083 2.92831L0.111578 13.738C0.0386493 13.8084 3.966e-05 13.9038 3.966e-05 14.0032C3.966e-05 14.1027 0.0386493 14.198 0.111578 14.2685L1.69456 15.7979C1.76692 15.8675 1.86487 15.9066 1.96697 15.9066C2.06908 15.9066 2.16703 15.8675 2.23938 15.7979L13.4361 4.98828C14.826 3.64536 16.675 2.90758 18.6398 2.90758C20.6046 2.90758 22.4535 3.64536 23.8392 4.98828C25.2291 6.3312 25.9927 8.11761 25.9927 10.0118C25.9927 11.9101 25.2291 13.6924 23.8392 15.0353L12.428 26.0563L10.579 27.8428C8.85017 29.5131 6.04027 29.5131 4.31142 27.8428C3.47489 27.0345 3.01586 25.961 3.01586 24.817C3.01586 23.6731 3.47489 22.5996 4.31142 21.7913L15.6326 10.8573C15.92 10.5838 16.2975 10.4304 16.7007 10.4304H16.705C17.1083 10.4304 17.4815 10.5838 17.7647 10.8573C18.0521 11.135 18.2065 11.4998 18.2065 11.8894C18.2065 12.2749 18.0478 12.6396 17.7647 12.9132L8.51127 21.8452C8.43834 21.9157 8.39973 22.011 8.39973 22.1105C8.39973 22.21 8.43834 22.3053 8.51127 22.3758L10.0943 23.9052C10.1666 23.9748 10.2646 24.0139 10.3667 24.0139C10.4688 24.0139 10.5667 23.9748 10.6391 23.9052L19.8882 14.969C20.7419 14.1442 21.2095 13.0499 21.2095 11.8852C21.2095 10.7205 20.7376 9.62217 19.8882 8.8015C18.125 7.09799 15.2593 7.10213 13.4962 8.8015L12.3979 9.86672L2.17933 19.7355C1.48578 20.4017 0.936011 21.1942 0.561915 22.0672C0.187819 22.9402 -0.00316456 23.8763 3.966e-05 24.8212C3.966e-05 26.7402 0.776518 28.5432 2.17933 29.8986C3.63361 31.2995 5.53834 32 7.44307 32C9.3478 32 11.2525 31.2995 12.7025 29.8986L25.967 17.0911C27.9189 15.2011 29 12.6852 29 10.0118C29.0043 7.33424 27.9232 4.81834 25.967 2.92831Z" fill="white"/>
</svg>
