<svg width="48" height="40" viewBox="0 0 48 40" fill="none" xmlns="http://www.w3.org/2000/svg">
<path d="M24 38.5C28.549 38.5 32.9958 37.415 36.7781 35.3822C40.5604 33.3494 43.5084 30.4601 45.2492 27.0796C46.99 23.6992 47.4455 19.9795 46.558 16.3908C45.6706 12.8022 43.48 9.5058 40.2634 6.91853C37.0468 4.33126 32.9486 2.56931 28.4871 1.85548C24.0255 1.14165 19.401 1.50802 15.1983 2.90824C10.9956 4.30846 7.40347 6.67965 4.8762 9.72196C2.34893 12.7643 1 16.3411 1 20C1 23.0587 1.92 25.9406 3.55555 28.4833L1 38.5L13.4532 36.4444C16.6119 37.7579 20.1999 38.5 24 38.5Z" stroke="#4E4E4E" stroke-width="2" stroke-linecap="round" stroke-linejoin="round"/>
</svg>
