<svg width="23" height="16" viewBox="0 0 23 16" fill="none" xmlns="http://www.w3.org/2000/svg">
  <path d="M17.5 0C15.79 0 14.75 0.33 14.15 0.61C13.38 0.23 12.5 0 11.5 0C10.5 0 9.62 0.23 8.85 0.61C8.25 0.33 7.21 0 5.5 0C2.5 0 0.5 8 0.5 10C0.5 10.83 1.82 11.59 3.64 11.9C4.28 14.14 7.3 15.85 11 16V11.72C10.41 11.35 9.5 10.68 9.5 10C9.5 9 11.5 9 11.5 9C11.5 9 13.5 9 13.5 10C13.5 10.68 12.59 11.35 12 11.72V16C15.7 15.85 18.72 14.14 19.36 11.9C21.18 11.59 22.5 10.83 22.5 10C22.5 8 20.5 0 17.5 0ZM3.65 9.87C3.15 9.75 2.76 9.61 2.5 9.5C2.75 6.73 4.7 2.4 5.55 2C6.09 2 6.5 2.06 6.87 2.11C4.77 4.42 3.94 8.04 3.65 9.87ZM8.5 8C8.23478 8 7.98043 7.89464 7.79289 7.70711C7.60536 7.51957 7.5 7.26522 7.5 7C7.5 6.46 7.95 6 8.5 6C8.76522 6 9.01957 6.10536 9.20711 6.29289C9.39464 6.48043 9.5 6.73478 9.5 7C9.5 7.56 9.05 8 8.5 8ZM14.5 8C14.2348 8 13.9804 7.89464 13.7929 7.70711C13.6054 7.51957 13.5 7.26522 13.5 7C13.5 6.46 13.95 6 14.5 6C14.7652 6 15.0196 6.10536 15.2071 6.29289C15.3946 6.48043 15.5 6.73478 15.5 7C15.5 7.56 15.05 8 14.5 8ZM19.35 9.87C19.06 8.04 18.23 4.42 16.13 2.11C16.5 2.06 16.91 2 17.45 2C18.3 2.4 20.25 6.73 20.5 9.5C20.25 9.61 19.86 9.75 19.35 9.87Z" fill="#3A2D13"/>
</svg>
