<svg width="25" height="20" viewBox="0 0 25 20" fill="none" xmlns="http://www.w3.org/2000/svg">
<path d="M23.1707 4.01257C23.7316 4.34843 24.1931 4.81125 24.5128 5.35832C24.8325 5.9054 25.0001 6.51912 25 7.14286V14C25 17.3143 22.1341 20 18.5976 20H7.62195C6.95637 20.0001 6.30149 19.8431 5.71772 19.5435C5.13395 19.2439 4.6401 18.8113 4.28171 18.2857H18.5976C19.8104 18.2857 20.9736 17.8342 21.8313 17.0305C22.6889 16.2267 23.1707 15.1366 23.1707 14V4.01257ZM21.9512 4.69714V13.4286C21.9513 14.3773 21.564 15.2901 20.8687 15.9797C20.1734 16.6693 19.2229 17.0834 18.2122 17.1371L17.9878 17.1429H3.96341C2.95105 17.1429 1.97704 16.7799 1.24118 16.1284C0.505325 15.4768 0.063413 14.5861 0.0060977 13.6389L0 13.4286V4.69714L10.5488 9.90171C10.6803 9.96677 10.8269 10.0008 10.9756 10.0008C11.1244 10.0008 11.2709 9.96677 11.4024 9.90171L21.9512 4.69714ZM3.96341 1.68874e-07H17.9878C18.8728 -0.00024984 19.7325 0.277101 20.4298 0.787858C21.1271 1.29862 21.6219 2.01339 21.8354 2.81829L10.9756 8.17486L0.115854 2.81829C0.319952 2.0494 0.781063 1.36183 1.43182 0.856016C2.08258 0.350203 2.88888 0.0526606 3.73293 0.00685736L3.96341 1.68874e-07Z" fill="white"/>
</svg>
