<svg width="15" height="20" viewBox="0 0 15 20" fill="none" xmlns="http://www.w3.org/2000/svg">
  <path d="M14.5 7.00046C14.5001 5.65871 14.1146 4.34519 13.3894 3.21633C12.6641 2.08746 11.6297 1.19082 10.4093 0.633175C9.18883 0.0755332 7.83385 -0.11961 6.50565 0.0709846C5.17746 0.261579 3.93204 0.82988 2.91769 1.70821C1.90334 2.58654 1.16282 3.73789 0.784299 5.02515C0.405782 6.3124 0.405223 7.68132 0.78269 8.96889C1.16016 10.2565 1.89974 11.4084 2.91337 12.2876C3.927 13.1667 5.17196 13.736 6.5 13.9277V15.3335H4.16667C3.90145 15.3335 3.6471 15.4389 3.45956 15.6264C3.27202 15.8139 3.16667 16.0683 3.16667 16.3335C3.16667 16.5987 3.27202 16.853 3.45956 17.0405C3.6471 17.2281 3.90145 17.3334 4.16667 17.3334H6.5V19C6.5 19.2652 6.60536 19.5196 6.79289 19.7071C6.98043 19.8946 7.23478 20 7.5 20C7.76522 20 8.01957 19.8946 8.20711 19.7071C8.39464 19.5196 8.5 19.2652 8.5 19V17.3334H10.8333C11.0986 17.3334 11.3529 17.2281 11.5404 17.0405C11.728 16.853 11.8333 16.5987 11.8333 16.3335C11.8333 16.0683 11.728 15.8139 11.5404 15.6264C11.3529 15.4389 11.0986 15.3335 10.8333 15.3335H8.5V13.9277C10.165 13.6853 11.6873 12.8521 12.7888 11.5803C13.8904 10.3085 14.4978 8.68296 14.5 7.00046ZM4.5 7.00046C4.5 6.01159 4.45059 6.32222 5 5.5C5.54941 4.67778 6.58658 4.38123 6.58658 4.38123C6.58658 4.38123 7.2372 4.18831 8.20711 4.38123C9.17701 4.57414 9.5 5.02515 9.5 5.02515C9.5 5.02515 10.211 5.05517 10.4039 6.02504C10.5969 6.99491 10.4978 8.00021 10.1194 8.91381C9.74096 9.82741 9 10 9 10C9 10 8.20711 10.5 7.5 10.5C6.79289 10.5 6.43735 10.4373 5.5 9.5C4.56265 8.56269 4.50154 8.32602 4.5 7.00046Z" fill="#3A2D13"/>
</svg>
