<svg width="30" height="30" viewBox="0 0 30 30" fill="none" xmlns="http://www.w3.org/2000/svg">
<path d="M6.25 0C4.5924 0 3.00269 0.65848 1.83058 1.83058C0.65848 3.00269 0 4.5924 0 6.25V7.5H7.5V0H6.25ZM10 0V7.5H20V0H10ZM7.5 10H0V20H7.5V10ZM10 20V10H20V20H10ZM7.5 22.5H0V23.75C0 25.4076 0.65848 26.9973 1.83058 28.1694C3.00269 29.3415 4.5924 30 6.25 30H7.5V22.5ZM10 30H20V22.5H10V30ZM22.5 30V22.5H30V23.75C30 25.4076 29.3415 26.9973 28.1694 28.1694C26.9973 29.3415 25.4076 30 23.75 30H22.5ZM30 10V20H22.5V10H30ZM30 7.5V6.25C30 4.5924 29.3415 3.00269 28.1694 1.83058C26.9973 0.65848 25.4076 0 23.75 0H22.5V7.5H30Z" fill="white"/>
</svg>
