<svg width="56" height="56" viewBox="0 0 56 56" fill="none" xmlns="http://www.w3.org/2000/svg">
<path d="M33.4676 55.841C33.8647 55.9527 34.3491 56.0055 34.9207 55.9995C35.4942 55.9936 35.9736 55.9298 36.3586 55.8081L56 49.348C56 47.9603 55.5237 46.8278 54.571 45.9505C53.6184 45.0712 52.4361 44.6315 51.0242 44.6315H35.5073C34.5085 44.6315 33.4857 44.5717 32.4388 44.4521C31.3879 44.3305 30.4082 44.1112 29.4997 43.7941L24.7706 42.221C24.4477 42.1093 24.211 41.899 24.0606 41.5899C23.9102 41.2809 23.8851 40.9638 23.9854 40.6388C24.0857 40.3677 24.2882 40.1613 24.5931 40.0198C24.8979 39.8762 25.2118 39.8602 25.5347 39.9719L29.8456 41.4733C30.6639 41.7644 31.5594 41.9807 32.532 42.1223C33.5067 42.2618 34.5627 42.3316 35.6998 42.3316H39.3158C39.8834 42.3316 40.3377 42.1701 40.6786 41.8471C41.0195 41.5241 41.19 41.0695 41.19 40.4833C41.19 39.7097 40.8801 38.9032 40.2604 38.0638C39.6427 37.2244 38.9247 36.6601 38.1065 36.371L19.9933 29.7643C19.7186 29.6646 19.4448 29.5869 19.1721 29.5311C18.8973 29.4752 18.6045 29.4473 18.2936 29.4473H12.0333V49.5963L33.4676 55.841ZM0 50.6131C0 51.5303 0.308855 52.2959 0.926565 52.9101C1.54628 53.5262 2.31741 53.8342 3.23997 53.8342H5.78501C6.70757 53.8342 7.4777 53.5262 8.09541 52.9101C8.71512 52.2959 9.02498 51.5303 9.02498 50.6131V32.6684C9.02498 31.7512 8.71512 30.9856 8.09541 30.3715C7.47569 29.7554 6.70556 29.4473 5.78501 29.4473H3.23997C2.31741 29.4473 1.54628 29.7554 0.926565 30.3715C0.308855 30.9876 0 31.7532 0 32.6684V50.6131ZM40.0318 26.1933C39.4342 26.1933 38.8495 26.0847 38.278 25.8673C37.7044 25.652 37.1749 25.327 36.6896 24.8923L28.7055 17.2778C27.3818 16.0117 26.2777 14.5941 25.3933 13.0249C24.5088 11.4537 24.0666 9.74997 24.0666 7.91363C24.0666 5.70842 24.8388 3.83818 26.383 2.30291C27.9273 0.767636 29.8075 0 32.0236 0C33.6662 0 35.1603 0.44164 36.506 1.32492C37.8518 2.2082 39.026 3.2809 40.0288 4.54301C41.0316 3.2809 42.2068 2.2082 43.5546 1.32492C44.8983 0.44164 46.3924 0 48.037 0C50.2551 0 52.1363 0.767636 53.6806 2.30291C55.2249 3.83818 55.998 5.70842 56 7.91363C56 9.74997 55.5608 11.4537 54.6824 13.0249C53.8039 14.596 52.7019 16.0137 51.3762 17.2778L43.3741 24.8923C42.8907 25.327 42.3623 25.652 41.7887 25.8673C41.2151 26.0827 40.6295 26.1913 40.0318 26.1933Z" fill="#2F2410"/>
</svg>
