<svg width="68" height="61" viewBox="0 0 68 61" fill="none" xmlns="http://www.w3.org/2000/svg">
<path d="M37.1875 3.15517V8.41379H41.3738C42.6658 8.41379 43.9366 8.75035 45.0586 9.38559L50.5412 12.4819C50.7055 12.5744 50.8812 12.6207 51.0682 12.6207H60.5628C61.4082 12.6207 62.219 12.9531 62.8167 13.5448C63.4145 14.1365 63.7503 14.9391 63.7503 15.7759C63.7503 16.6127 63.4145 17.4152 62.8167 18.0069C62.219 18.5986 61.4082 18.931 60.5628 18.931H58.748L67.7199 38.6698C67.985 39.2538 68.0644 39.9037 67.9475 40.5334C67.8306 41.1631 67.5229 41.7427 67.0654 42.1952L64.8129 39.9655L67.0611 42.1994L67.0569 42.2078L67.0484 42.2162L67.0229 42.2414L66.9974 42.2625L66.9549 42.3046L66.7636 42.4728C65.8655 43.216 64.8936 43.8471 63.8481 44.3659C61.8633 45.3503 58.9903 46.2759 55.2502 46.2759C52.2732 46.3103 49.3291 45.6563 46.6524 44.3659C45.6089 43.8502 44.6304 43.2148 43.7369 42.4728L43.5456 42.3046L43.4776 42.2414L43.4521 42.2162L43.4351 42.1994V42.1952C42.9776 41.7427 42.6699 41.1631 42.553 40.5334C42.4361 39.9037 42.5155 39.2538 42.7806 38.6698L51.7567 18.931H51.0682C49.7719 18.931 48.5012 18.5987 47.3792 17.9592L41.8966 14.863C41.7361 14.7721 41.5545 14.7242 41.3696 14.7241H37.1875V54.6897H47.8127C48.658 54.6897 49.4688 55.0221 50.0666 55.6138C50.6644 56.2055 51.0002 57.008 51.0002 57.8448C51.0002 58.6816 50.6644 59.4842 50.0666 60.0759C49.4688 60.6676 48.658 61 47.8127 61H20.1873C19.342 61 18.5312 60.6676 17.9334 60.0759C17.3356 59.4842 16.9998 58.6816 16.9998 57.8448C16.9998 57.008 17.3356 56.2055 17.9334 55.6138C18.5312 55.0221 19.342 54.6897 20.1873 54.6897H30.8125V14.7241H26.6304C26.4455 14.7242 26.2639 14.7721 26.1034 14.863L20.6251 17.9634C19.4988 18.5945 18.2281 18.931 16.9318 18.931H16.2433L25.2194 38.6698C25.4845 39.2538 25.5639 39.9037 25.447 40.5334C25.3301 41.1631 25.0224 41.7427 24.5649 42.1952L22.3124 39.9655L24.5606 42.1994L24.5564 42.2078L24.5479 42.2162L24.5224 42.2414L24.4544 42.3046L24.2631 42.4728C23.365 43.216 22.3931 43.8471 21.3476 44.3659C19.3628 45.3503 16.4898 46.2759 12.7498 46.2759C9.77268 46.3103 6.8286 45.6563 4.1519 44.3659C3.10844 43.8502 2.12988 43.2148 1.23637 42.4728L1.04512 42.3046L0.977115 42.2414L0.951614 42.2162L0.934614 42.1994V42.1952C0.477061 41.7427 0.169404 41.1631 0.0525004 40.5334C-0.0644029 39.9037 0.0149799 39.2538 0.280106 38.6698L9.25621 18.931H7.43719C6.5918 18.931 5.78104 18.5986 5.18326 18.0069C4.58548 17.4152 4.24965 16.6127 4.24965 15.7759C4.24965 14.9391 4.58548 14.1365 5.18326 13.5448C5.78104 12.9531 6.5918 12.6207 7.43719 12.6207H16.9318C17.1181 12.6213 17.3013 12.5734 17.4631 12.4819L22.9371 9.38138C24.0634 8.75035 25.3341 8.41379 26.6304 8.41379H30.8125V3.15517C30.8125 2.31837 31.1483 1.51584 31.7461 0.924129C32.3438 0.332419 33.1546 0 34 0C34.8454 0 35.6561 0.332419 36.2539 0.924129C36.8517 1.51584 37.1875 2.31837 37.1875 3.15517ZM49.7039 38.817C50.9152 39.385 52.7555 39.9655 55.2502 39.9655C57.745 39.9655 46.6014 41.1013 47.8127 40.5334L55.2502 26.617L49.7039 38.817ZM7.20344 38.817C8.4147 39.385 10.255 39.9655 12.7498 39.9655C15.2445 39.9655 2.94064 40.5335 4.1519 39.9655L12.7498 26.617L7.20344 38.817Z" fill="#2F2410"/>
</svg>
