<svg width="26" height="25" viewBox="0 0 26 25" fill="none" xmlns="http://www.w3.org/2000/svg">
<path fill-rule="evenodd" clip-rule="evenodd" d="M11.6206 2.61668C9.36519 2.61668 7.20217 3.51266 5.60736 5.10753C4.01256 6.70239 3.11661 8.86549 3.11661 11.121C3.11661 13.3765 4.01256 15.5396 5.60736 17.1344C7.20217 18.7293 9.36519 19.6253 11.6206 19.6253C13.876 19.6253 16.039 18.7293 17.6338 17.1344C19.2286 15.5396 20.1246 13.3765 20.1246 11.121C20.1246 8.86549 19.2286 6.70239 17.6338 5.10753C16.039 3.51266 13.876 2.61668 11.6206 2.61668ZM0.5 11.121C0.500151 9.34762 0.924367 7.60002 1.73726 6.02396C2.55014 4.44791 3.72813 3.08911 5.17294 2.06093C6.61775 1.03276 8.28748 0.365013 10.0428 0.113415C11.7982 -0.138184 13.5882 0.0336588 15.2637 0.614605C16.9391 1.19555 18.4513 2.16876 19.6741 3.45302C20.897 4.73729 21.795 6.29538 22.2932 7.9973C22.7914 9.69921 22.8755 11.4956 22.5383 13.2366C22.2011 14.9776 21.4524 16.6127 20.3548 18.0055L25.1327 22.7836C25.3711 23.0304 25.5029 23.3609 25.5 23.7039C25.497 24.047 25.3594 24.3751 25.1168 24.6177C24.8742 24.8603 24.5461 24.9979 24.2031 25.0009C23.86 25.0038 23.5296 24.872 23.2828 24.6336L18.5049 19.8555C16.8651 21.1482 14.8945 21.953 12.8186 22.178C10.7428 22.403 8.64553 22.0389 6.7669 21.1276C4.88827 20.2162 3.30416 18.7943 2.19586 17.0247C1.08757 15.255 0.49986 13.2091 0.5 11.121ZM10.3123 6.54174C10.3123 6.19474 10.4501 5.86195 10.6955 5.61659C10.9408 5.37123 11.2736 5.23338 11.6206 5.23338C13.182 5.23338 14.6795 5.85368 15.7836 6.95782C16.8877 8.06196 17.5079 9.55949 17.5079 11.121C17.5079 11.468 17.3701 11.8008 17.1248 12.0461C16.8794 12.2915 16.5466 12.4293 16.1996 12.4293C15.8527 12.4293 15.5199 12.2915 15.2745 12.0461C15.0292 11.8008 14.8913 11.468 14.8913 11.121C14.8913 10.2535 14.5467 9.42152 13.9334 8.80811C13.32 8.1947 12.488 7.85009 11.6206 7.85009C11.2736 7.85009 10.9408 7.71225 10.6955 7.46688C10.4501 7.22152 10.3123 6.88873 10.3123 6.54174Z" fill="white"/>
</svg>
