<svg width="30" height="30" viewBox="0 0 30 30" fill="none" xmlns="http://www.w3.org/2000/svg">
<path d="M10.5 30H27C27.825 30 28.5315 29.6331 29.1195 28.8994C29.7075 28.1656 30.001 27.2825 30 26.25V22.5H10.5V30ZM0 7.5H7.5V0H3C2.175 0 1.469 0.3675 0.882 1.1025C0.295 1.8375 0.001 2.72 0 3.75V7.5ZM0 18.75H7.5V11.25H0V18.75ZM3 30H7.5V22.5H0V26.25C0 27.2812 0.294 28.1644 0.882 28.8994C1.47 29.6344 2.176 30.0012 3 30ZM10.5 18.75H30V11.25H10.5V18.75ZM10.5 7.5H30V3.75C30 2.71875 29.7065 1.83625 29.1195 1.1025C28.5325 0.36875 27.826 0.00125 27 0H10.5V7.5Z" fill="#545454"/>
</svg>
