<svg width="24" height="22" viewBox="0 0 24 22" fill="none" xmlns="http://www.w3.org/2000/svg">
<path d="M4.58191 2.35782C9.25735 -1.01761 15.9353 -0.741717 20.2582 3.01093C24.6555 6.83072 25.2563 13.0676 21.6396 17.5356C18.2329 21.7436 12.0885 23.1304 6.97299 20.9599L6.69359 20.8366L1.44856 21.9731L1.40059 21.9805L1.35862 21.989H1.33704L1.31066 21.9951H1.26509L1.22552 22L1.20034 21.9988L1.17276 22L1.13319 21.9963H1.09122L1.06483 21.9915L1.03845 21.989L0.996484 21.9805L0.955713 21.9744L0.936527 21.9695L0.907748 21.9634L0.84899 21.9438L0.820211 21.9377L0.80702 21.9316L0.780639 21.9231L0.726678 21.8987L0.690704 21.884L0.677513 21.8767L0.660725 21.8694L0.623552 21.8474L0.569591 21.8181L0.550405 21.8047L0.506036 21.7729L0.458071 21.74L0.455673 21.7351L0.440084 21.7241L0.388521 21.6753L0.358542 21.6509L0.351348 21.6423L0.284196 21.5666L0.268607 21.5495L0.255417 21.5324L0.20865 21.4641L0.191862 21.4409L0.185866 21.4287L0.135503 21.3396L0.127109 21.3249L0.122312 21.3151L0.113918 21.3005L0.0971303 21.2541L0.0731476 21.2028L0.0683508 21.1833L0.0635543 21.1711L0.043169 21.0966L0.0347751 21.0747L0.0323767 21.0563L0.0263811 21.0331L0.0203853 20.9929L0.0107923 20.9416L0.00839393 20.9037L0.00479649 20.8915V20.872L0 20.8061L0.00119905 20.7621L0.00239839 20.7341L0.00479649 20.6694L0.00959298 20.6388V20.6156L0.0191863 20.5729L0.0251818 20.5314L0.0311776 20.507L0.0359741 20.4826L0.0575588 20.4093L0.0611562 20.3935L1.44017 16.1818L1.41378 16.1366C-1.23631 11.5624 -0.0359741 5.89317 4.3073 2.56291L4.58191 2.35782Z" fill="white"/>
</svg>
