<svg width="80" height="79" viewBox="0 0 80 79" fill="none" xmlns="http://www.w3.org/2000/svg">
<path d="M30.2069 28.2095C26.0226 30.0181 21.8889 31.9813 17.864 34.0409C17.6017 35.6234 17.5028 37.1398 17.5203 38.5907L30.2069 28.2095ZM30.2069 28.2095C29.7783 30.7738 29.7353 33.339 30.0287 35.9267C25.8238 37.7491 21.7791 39.765 17.8349 41.9742M30.2069 28.2095L17.8349 41.9742M17.8349 41.9742C17.6503 40.8813 17.5354 39.7537 17.5203 38.5907L17.8349 41.9742ZM48.3907 2.00778V2.04977C48.3826 2.04837 48.3743 2.0471 48.3659 2.046C48.2697 2.03334 48.1607 2.0431 48.0562 2.0885C34.4246 5.33503 22.5204 13.1771 14.0571 22.0554L14.0567 22.0558C7.71399 28.7241 3.22699 36.0028 1.39291 42.6583C0.476202 45.9696 0.21538 49.1813 0.8452 52.1091L0.845413 52.1101C1.47981 55.0307 3.07219 57.6332 5.61712 59.4339L5.61829 59.4347C6.93195 60.3586 8.50571 60.4845 9.95245 60.3085L9.95253 60.3085C11.4004 60.132 12.889 59.645 14.4607 58.9821C16.8795 57.9964 19.5787 56.5763 22.4428 55.0694C23.3115 54.6123 24.1954 54.1473 25.0913 53.6839C28.7621 51.7867 32.6512 49.9283 36.4837 48.6369C40.32 47.3443 44.0639 46.6325 47.4525 46.9961L47.7296 46.0518L47.5167 45.9453C46.3627 45.2887 45.5902 44.2063 45.1344 42.8731L45.0146 42.5227L44.6444 42.5352C41.9649 42.6257 39.2793 43.1622 36.6406 43.9426C35.8942 42.1217 35.3051 40.3604 34.8947 38.6213C38.0489 37.3625 41.2901 36.24 44.6184 35.2374L44.9105 35.1494L44.9658 34.8493C45.1873 33.6489 45.483 32.3912 45.8532 31.0948L46.1005 30.2288L45.2347 30.4769C41.4563 31.5595 37.7948 32.7931 34.2343 34.1778C34.0633 31.4948 34.3538 28.8402 35.1336 26.1839C39.9117 24.2984 44.7565 22.6521 49.5974 21.3861L49.8136 21.3296L49.9157 21.1307C50.2666 20.447 50.6556 19.7425 51.0468 19.0528C51.4222 18.3956 51.7905 17.7509 52.1759 17.1449L52.8281 16.1194L51.643 16.3891C46.8493 17.48 42.1224 18.9207 37.4485 20.6074C38.5099 18.67 39.8514 16.6907 41.4961 14.6728C46.2295 13.6009 50.9499 12.8704 55.0078 12.5856L55.235 12.5697L55.3721 12.3879C56.3202 11.1305 57.2653 9.96263 58.2264 8.89563L58.9872 8.05093L57.8504 8.06102C54.4622 8.09108 50.6133 8.50409 46.6033 9.19037C47.6529 8.18793 48.7789 7.17399 49.9813 6.14789C53.672 5.33156 57.4874 4.8797 61.3922 4.87418C61.6766 4.87418 61.9388 4.87442 62.1796 4.89163L62.3721 4.90539L62.524 4.78622C64.1795 3.4868 65.7956 2.53012 67.3359 1.99192C67.4939 1.93932 67.653 1.89155 67.8137 1.84687L67.7366 0.86836C65.7735 0.644136 63.8107 0.527058 61.8918 0.509748V0.5H61.3918C57.067 0.5 52.857 1.00644 48.7813 1.9202L48.3907 2.00778ZM70.2686 2.88261L70.2674 2.88301C68.73 3.41459 67.192 4.30974 65.6546 5.47185C64.9456 5.91996 64.2226 6.45599 63.4678 7.08283L63.467 7.08353C60.0784 9.91022 56.2996 14.5588 53.1153 20.207C49.9122 25.8628 47.8842 31.481 47.199 35.861C47.0467 36.8327 46.9704 37.7456 46.9321 38.5609C46.7432 40.4804 46.7791 42.2713 47.1101 43.8491L47.1108 43.8526C47.3746 45.0666 47.835 46.2331 48.5826 47.1854L48.577 47.1936C48.4344 47.403 48.2253 47.7102 47.9595 48.1013C47.4278 48.8835 46.6691 50.0016 45.7606 51.3453C43.9437 54.0327 41.5275 57.623 39.131 61.2339C36.735 64.8439 34.3566 68.4778 32.6162 71.251C31.7467 72.6365 31.0325 73.8135 30.5544 74.6674C30.3164 75.0924 30.1303 75.449 30.0127 75.7161C29.9552 75.8468 29.905 75.976 29.8765 76.0906C29.8626 76.1462 29.8474 76.2231 29.8484 76.3074C29.8492 76.3773 29.8616 76.5548 30.0069 76.7027C30.3302 77.0317 30.7855 77.4745 31.3289 77.8355C31.8703 78.1951 32.538 78.5 33.283 78.5C33.4177 78.5 33.5244 78.4528 33.5832 78.4221C33.6489 78.3879 33.7076 78.3458 33.7565 78.3066C33.8547 78.2281 33.9586 78.1247 34.0638 78.0099C34.2765 77.7778 34.5399 77.4487 34.8423 77.0453C35.4492 76.2356 36.2438 75.0858 37.1571 73.7151C38.9851 70.9715 41.3059 67.3167 43.5861 63.6659C45.8669 60.0142 48.1094 56.363 49.7816 53.6248C50.6177 52.2557 51.3113 51.1148 51.7959 50.316C52.0382 49.9167 52.2283 49.6028 52.3578 49.3888L52.3827 49.3477C53.5975 49.5035 54.8513 49.3125 56.0341 48.9003C57.9275 48.2554 59.8331 47.0546 61.7491 45.4602L61.7511 45.4585C65.5686 42.247 69.5154 37.3467 72.8685 31.3909C76.24 25.4543 78.4176 19.5367 79.1964 14.6066L79.1966 14.6052C79.5764 12.1558 79.6201 9.89666 79.2107 7.93636L79.2097 7.93172C78.7804 5.96968 77.8067 4.13547 76.03 3.12672L76.0292 3.12629C75.1432 2.62528 74.1803 2.39831 73.1916 2.38005C72.2214 2.35991 71.2266 2.55397 70.2686 2.88261ZM73.0839 6.73915H73.0882C73.4228 6.73915 73.6867 6.82023 73.8602 6.92436L73.8671 6.92854L73.8742 6.93249C74.2588 7.14666 74.6729 7.63785 74.9383 8.84593C75.1836 10.0558 75.1898 11.8177 74.8587 13.9364L74.8584 13.9381C74.2149 18.1488 72.2202 23.6709 69.0784 29.2513C65.9177 34.813 62.2296 39.3666 58.9384 42.1077C57.3008 43.47 55.7817 44.3673 54.6226 44.7717C53.4434 45.1767 52.8207 45.0678 52.431 44.8469L52.431 44.8469L52.4261 44.8441C52.0597 44.6419 51.6283 44.1476 51.3636 42.9312C51.1185 41.7373 51.112 39.9685 51.4432 37.8509C52.1055 33.6358 54.0824 28.1132 57.2416 22.5538L57.2425 22.552C60.3834 16.9735 64.09 12.4269 67.3635 9.69425C69.0197 8.31887 70.5189 7.41693 71.6773 7.0028C72.2784 6.80878 72.7258 6.73601 73.0839 6.73915ZM30.8424 40.3256C31.2682 42.0077 31.8348 43.6881 32.5305 45.3772C29.2308 46.6841 26.0442 48.2804 23.0803 49.7989L23.0798 49.7991C22.5221 50.0857 21.9763 50.3723 21.4425 50.659C20.4837 49.257 19.6906 47.8173 19.0829 46.3052C22.8796 44.1191 26.7895 42.1259 30.8424 40.3256ZM15.3064 48.5364C15.9351 49.9797 16.6858 51.3604 17.5481 52.6785C15.7968 53.5836 14.206 54.3759 12.8071 54.9492L12.8057 54.9498C11.4174 55.5239 10.2434 55.8789 9.41603 55.9831C8.57733 56.0886 8.26894 55.9465 8.15208 55.8572L8.14378 55.8509L8.13523 55.8449C7.50055 55.4005 6.97345 54.9009 6.54037 54.3462C9.40083 52.3055 12.3074 50.3598 15.3064 48.5364ZM39.0902 10.7474C37.5253 11.1245 35.9701 11.5328 34.444 11.9693C36.419 10.9103 38.464 9.94394 40.572 9.08879C40.0578 9.64186 39.5631 10.1946 39.0902 10.7474ZM22.4608 21.1995C25.7741 19.4909 30.1544 17.8234 34.86 16.4152C33.5156 18.5564 32.4403 20.7073 31.6365 22.8627C27.4399 24.5697 23.3226 26.459 19.2855 28.4321C20.061 26.17 21.1075 23.7667 22.4608 21.1995ZM12.5677 30.6242C12.5347 30.6433 12.5023 30.6625 12.4704 30.682C12.5141 30.6235 12.558 30.5651 12.6021 30.5067C12.5901 30.5457 12.5787 30.5849 12.5677 30.6242ZM7.06216 39.777C9.07819 38.6588 11.127 37.554 13.1983 36.45L13.6517 38.6533L13.1518 38.6624C13.1518 38.6625 13.1518 38.6626 13.1518 38.6628C13.1876 40.6309 13.4413 42.4979 13.8652 44.294C10.8262 46.1294 7.85247 48.0845 4.9454 50.1178C4.74749 48.3183 4.95506 46.1716 5.60578 43.804C5.96134 42.512 6.44961 41.1642 7.06216 39.777Z" fill="#2F2410" stroke="#2F2410"/>
</svg>
