<svg width="35" height="47" viewBox="0 0 35 47" fill="none" xmlns="http://www.w3.org/2000/svg">
<path d="M5.53647 5.78651C11.186 1.79737 19.2552 2.12343 24.4787 6.55837C29.792 11.0727 30.518 18.4436 26.1479 23.7239C22.0314 28.697 14.607 30.336 8.4257 27.7708L8.08809 27.6251L1.75034 28.9683L1.69238 28.9769L1.64167 28.987H1.61559L1.58371 28.9942H1.52865L1.48084 29L1.45041 28.9986L1.41708 29L1.36927 28.9957H1.31855L1.28668 28.9899L1.2548 28.987L1.20408 28.9769L1.15482 28.9697L1.13164 28.9639L1.09686 28.9567L1.02586 28.9336L0.991088 28.9264L0.975149 28.9192L0.943272 28.9091L0.878069 28.8803L0.8346 28.8629L0.818662 28.8543L0.798376 28.8456L0.753458 28.8197L0.688255 28.785L0.665072 28.7692L0.611461 28.7317L0.553502 28.6927L0.550605 28.6869L0.531768 28.6739L0.469462 28.6162L0.433239 28.5874L0.424545 28.5773L0.343403 28.4878L0.324567 28.4676L0.308628 28.4474L0.252119 28.3666L0.231834 28.3392L0.224589 28.3248L0.163732 28.2195L0.15359 28.2022L0.147794 28.1906L0.137651 28.1733L0.117366 28.1185L0.0883866 28.0579L0.0825905 28.0348L0.0767948 28.0204L0.0521625 27.9324L0.0420199 27.9064L0.0391218 27.8848L0.0318772 27.8574L0.0246322 27.8097L0.0130407 27.7492L0.0101427 27.7044L0.00579576 27.69V27.6669L0 27.589L0.00144885 27.5371L0.00289805 27.5039L0.00579576 27.4274L0.0115915 27.3914V27.3639L0.0231834 27.3134L0.030428 27.2644L0.037673 27.2355L0.0434687 27.2067L0.0695502 27.1201L0.0738971 27.1014L1.7402 22.124L1.70832 22.0706C-1.49388 16.6647 -0.0434687 9.96465 5.20466 6.02889L5.53647 5.78651Z" fill="white"/>
<mask id="path-2-outside-1_684_2140" maskUnits="userSpaceOnUse" x="13" y="14" width="23" height="22" fill="black">
<rect fill="white" x="13" y="14" width="23" height="22"/>
<path d="M15.9088 22.708H22.2448V16.228H26.7088V22.708H33.0448V27.028H26.7088V33.544H22.2448V27.028H15.9088V22.708Z"/>
</mask>
<path d="M15.9088 22.708H22.2448V16.228H26.7088V22.708H33.0448V27.028H26.7088V33.544H22.2448V27.028H15.9088V22.708Z" fill="white"/>
<path d="M15.9088 22.708V20.708H13.9088V22.708H15.9088ZM22.2448 22.708V24.708H24.2448V22.708H22.2448ZM22.2448 16.228V14.228H20.2448V16.228H22.2448ZM26.7088 16.228H28.7088V14.228H26.7088V16.228ZM26.7088 22.708H24.7088V24.708H26.7088V22.708ZM33.0448 22.708H35.0448V20.708H33.0448V22.708ZM33.0448 27.028V29.028H35.0448V27.028H33.0448ZM26.7088 27.028V25.028H24.7088V27.028H26.7088ZM26.7088 33.544V35.544H28.7088V33.544H26.7088ZM22.2448 33.544H20.2448V35.544H22.2448V33.544ZM22.2448 27.028H24.2448V25.028H22.2448V27.028ZM15.9088 27.028H13.9088V29.028H15.9088V27.028ZM15.9088 24.708H22.2448V20.708H15.9088V24.708ZM24.2448 22.708V16.228H20.2448V22.708H24.2448ZM22.2448 18.228H26.7088V14.228H22.2448V18.228ZM24.7088 16.228V22.708H28.7088V16.228H24.7088ZM26.7088 24.708H33.0448V20.708H26.7088V24.708ZM31.0448 22.708V27.028H35.0448V22.708H31.0448ZM33.0448 25.028H26.7088V29.028H33.0448V25.028ZM24.7088 27.028V33.544H28.7088V27.028H24.7088ZM26.7088 31.544H22.2448V35.544H26.7088V31.544ZM24.2448 33.544V27.028H20.2448V33.544H24.2448ZM22.2448 25.028H15.9088V29.028H22.2448V25.028ZM17.9088 27.028V22.708H13.9088V27.028H17.9088Z" fill="#352B1A" mask="url(#path-2-outside-1_684_2140)"/>
</svg>
