<svg width="21" height="24" viewBox="0 0 21 24" fill="none" xmlns="http://www.w3.org/2000/svg">
<path d="M19.8808 16.5702C19.7931 16.463 19.7069 16.3559 19.6224 16.2525C18.4599 14.827 17.7566 13.9666 17.7566 9.93107C17.7566 7.84179 17.2636 6.1275 16.2919 4.84179C15.5754 3.89196 14.6068 3.17143 13.3302 2.63893C13.3138 2.62966 13.2991 2.61751 13.2869 2.60304C12.8277 1.04411 11.5711 0 10.154 0C8.73681 0 7.4808 1.04411 7.02162 2.60143C7.00939 2.61539 6.99492 2.62717 6.97882 2.63625C3.9997 3.87964 2.55188 6.26518 2.55188 9.92946C2.55188 13.9666 1.84964 14.827 0.686098 16.2509C0.601554 16.3543 0.515425 16.4593 0.42771 16.5686C0.201133 16.8456 0.057577 17.1826 0.0140328 17.5398C-0.0295114 17.897 0.0287784 18.2593 0.182004 18.5839C0.508027 19.2804 1.20287 19.7127 1.996 19.7127H18.3178C19.1072 19.7127 19.7973 19.2809 20.1244 18.5877C20.2783 18.263 20.3371 17.9003 20.2939 17.5428C20.2507 17.1852 20.1074 16.8477 19.8808 16.5702ZM10.154 24C10.9175 23.9994 11.6667 23.7892 12.322 23.3919C12.9773 22.9945 13.5143 22.4248 13.876 21.743C13.8931 21.7104 13.9015 21.6738 13.9005 21.6368C13.8994 21.5999 13.889 21.5638 13.8702 21.5322C13.8514 21.5005 13.8248 21.4744 13.793 21.4562C13.7613 21.4381 13.7254 21.4285 13.689 21.4286H6.62003C6.58354 21.4284 6.54763 21.4379 6.5158 21.456C6.48398 21.4741 6.45732 21.5003 6.43844 21.532C6.41955 21.5636 6.40907 21.5997 6.40802 21.6367C6.40697 21.6737 6.41539 21.7103 6.43245 21.743C6.79416 22.4247 7.33108 22.9944 7.98627 23.3917C8.64146 23.7891 9.39051 23.9993 10.154 24Z" fill="white"/>
</svg>
