<svg width="38" height="39" viewBox="0 0 38 39" fill="none" xmlns="http://www.w3.org/2000/svg">
<path d="M19.0006 16.5554C17.7356 16.5526 16.4987 16.9162 15.4752 17.5984C14.451 18.2811 13.6914 19.2497 13.3232 20.3663L13.3225 20.3685C13.1195 20.9938 12.9954 21.6399 12.8779 22.2514C12.8723 22.2804 12.8668 22.3094 12.8612 22.3382C12.7364 22.9866 12.6147 23.597 12.4131 24.1765C12.0256 25.2905 11.3396 26.3052 9.69593 27.0646C8.21528 27.4994 7.08402 28.0579 6.33233 28.9497C5.56499 29.86 5.2557 31.0415 5.2557 32.5774C5.2557 33.9298 5.90087 35.287 6.91549 36.3381C7.93236 37.3915 9.35097 38.171 10.9586 38.3454C14.2474 38.7871 16.86 38.2436 18.9991 37.2057C21.1383 38.2436 23.7502 38.7863 27.043 38.3455C30.2245 38.0001 32.7453 35.264 32.7453 32.5774C32.7453 31.018 32.4584 29.8477 31.706 28.9512C30.9698 28.0739 29.8507 27.5368 28.3748 27.0853C26.8761 26.4094 26.165 25.4446 25.7266 24.3368C25.5006 23.7659 25.3463 23.1538 25.1992 22.504C25.1688 22.37 25.1387 22.2339 25.1082 22.0963C24.9934 21.5776 24.8739 21.0374 24.7209 20.5105C24.0522 18.2023 21.7154 16.5556 19.0006 16.5554ZM19.0006 16.5554C19.0008 16.5554 19.001 16.5554 19.0012 16.5554L19 17.0554V16.5554C19.0002 16.5554 19.0004 16.5554 19.0006 16.5554ZM35.0399 14.6572C35.2924 14.6434 35.5849 14.6829 35.8278 14.8715L35.0399 14.6572ZM35.0399 14.6572C34.7844 14.6712 34.5125 14.7423 34.2452 14.8399M35.0399 14.6572L34.2452 14.8399M34.2452 14.8399C33.7087 15.0359 33.0971 15.3741 32.4996 15.7623M34.2452 14.8399L32.4996 15.7623M32.4996 15.7623C31.3139 16.5326 30.0812 17.5676 29.4631 18.2848M32.4996 15.7623L29.4631 18.2848M29.4631 18.2848C28.685 19.0883 28.2011 20.1903 28.2011 21.4044C28.2011 23.8548 30.1647 25.8529 32.5954 25.8529C34.441 25.8529 36.0158 24.7069 36.6686 23.0849C37.2576 21.7208 37.5694 20.1029 37.4869 18.6222C37.405 17.1508 36.9256 15.7235 35.828 14.8717L29.4631 18.2848ZM2.17069 14.8714L2.17021 14.8717C1.07399 15.7236 0.594845 17.1509 0.513036 18.6222C0.430713 20.1028 0.742399 21.7207 1.33242 23.085C1.98512 24.7068 3.55891 25.8529 5.4038 25.8529C7.83648 25.8529 9.79808 23.8546 9.79808 21.4044C9.79808 20.1905 9.31528 19.0885 8.53687 18.2847C7.91847 17.5676 6.6858 16.5326 5.49988 15.7623C4.90234 15.3741 4.29059 15.0359 3.75397 14.8399C3.48651 14.7423 3.21453 14.6712 2.95889 14.6572C2.70618 14.6434 2.41374 14.683 2.17069 14.8714ZM23.8765 0.529849L23.8763 0.529819C23.3367 0.448201 22.8479 0.536038 22.4236 0.776672C22.007 1.01293 21.6855 1.37736 21.4366 1.79792C20.9451 2.62814 20.6823 3.76884 20.5438 4.92739C20.2649 7.25984 20.4648 9.90575 20.5869 10.959L20.5869 10.9591C20.8485 13.2126 22.57 15.1063 24.8991 15.4601L24.8993 15.4601C26.8945 15.7623 28.4715 15.044 29.5213 13.7624C30.5539 12.5016 31.0536 10.7286 31.0184 8.91457C30.948 5.28546 28.7161 1.26386 23.8765 0.529849ZM14.1237 0.529833L14.1236 0.529851C9.28441 1.26387 7.05248 5.28569 6.98221 8.91479C6.94708 10.7288 7.44692 12.5018 8.47974 13.7624C9.52971 15.044 11.1071 15.7619 13.1026 15.4593L13.1028 15.4592C15.4321 15.1054 17.1516 13.2124 17.4132 10.9583L17.4132 10.9582C17.5353 9.90499 17.7354 7.25908 17.4567 4.92671C17.3182 3.76821 17.0554 2.62754 16.5639 1.79741C16.3148 1.37688 15.9934 1.01251 15.5766 0.776341C15.1522 0.535805 14.6634 0.448102 14.1237 0.529833Z" fill="#2F2410" stroke="#2F2410"/>
</svg>
