<svg width="59" height="68" viewBox="0 0 59 68" fill="none" xmlns="http://www.w3.org/2000/svg">
<path d="M29.5001 29.5072C33.6359 29.5072 37.1081 32.3158 38.089 36.1134C39.322 40.8748 39.1554 46.093 44.576 48.8026C49.3874 50.4434 51.2075 52.5056 51.2075 58.0342C51.2075 62.4467 47.4404 67.1372 42.5833 67.7225C37.1523 68.54 32.925 67.4712 29.4986 65.5141C26.0722 67.4712 21.8434 68.5415 16.4198 67.7225C11.5597 67.1372 7.79406 62.4305 7.79406 58.0342C7.79406 52.6238 9.73662 50.3341 14.5392 48.7656C20.4495 45.7397 19.656 40.4358 20.9746 35.8799C21.5167 34.0364 22.6406 32.4188 24.1778 31.2698C25.715 30.1208 27.5824 29.5023 29.5001 29.5072ZM56.5765 26.2196C55.1119 24.9439 49.1337 29.9241 47.2531 32.3868C46.11 33.7009 45.399 35.5073 45.399 37.5C45.399 41.5075 48.2605 44.7567 51.7813 44.7567C54.4599 44.7567 56.752 42.8897 57.7005 40.2347C59.5427 35.46 59.6445 28.8893 56.5765 26.2196ZM2.42065 26.2196C-0.642909 28.8893 -0.544084 35.46 1.30113 40.2347C2.24955 42.8897 4.54022 44.7567 7.21733 44.7567C10.7411 44.7567 13.5996 41.5075 13.5996 37.5C13.5996 35.5073 12.8902 33.7009 11.747 32.3868C9.86495 29.9241 3.88827 24.9439 2.42065 26.2196ZM37.3692 0.0444683C52.2489 2.57521 51.2046 27.6904 39.2911 25.6667C35.8543 25.0814 33.3026 21.9445 32.9147 18.1972C32.5209 14.3863 31.6344 -0.928211 37.3692 0.0444683ZM21.631 0.0444683C27.3672 -0.929689 26.4793 14.3848 26.0855 18.1957C25.6975 21.9445 23.1487 25.0799 19.712 25.6653C7.79553 27.6919 6.75271 2.57521 21.631 0.0444683Z" fill="#443416"/>
</svg>
