<svg width="20" height="20" viewBox="0 0 20 20" fill="none" xmlns="http://www.w3.org/2000/svg">
<path d="M19.2 18.1H0.8C0.3575 18.1 0 18.4575 0 18.9V19.8C0 19.91 0.09 20 0.2 20H19.8C19.91 20 20 19.91 20 19.8V18.9C20 18.4575 19.6425 18.1 19.2 18.1ZM3.6425 16C3.6925 16 3.7425 15.995 3.7925 15.9875L7.9975 15.25C8.0475 15.24 8.095 15.2175 8.13 15.18L18.7275 4.5825C18.7507 4.55937 18.7691 4.5319 18.7816 4.50166C18.7942 4.47141 18.8006 4.43899 18.8006 4.40625C18.8006 4.37351 18.7942 4.34109 18.7816 4.31084C18.7691 4.2806 18.7507 4.25313 18.7275 4.23L14.5725 0.0725C14.525 0.025 14.4625 0 14.395 0C14.3275 0 14.265 0.025 14.2175 0.0725L3.62 10.67C3.5825 10.7075 3.56 10.7525 3.55 10.8025L2.8125 15.0075C2.78818 15.1414 2.79687 15.2793 2.83782 15.4091C2.87877 15.5389 2.95074 15.6568 3.0475 15.7525C3.2125 15.9125 3.42 16 3.6425 16Z" fill="white" fill-opacity="0.3"/>
</svg>
