<svg width="26" height="26" viewBox="0 0 26 26" fill="none" xmlns="http://www.w3.org/2000/svg">
<path d="M25.4113 12.033L1.60635 0.114431C1.41977 0.0209968 1.2102 -0.0164403 1.00287 0.00662768C0.79554 0.0296956 0.599287 0.112285 0.437743 0.244451C0.28347 0.373922 0.168321 0.543917 0.105242 0.735326C0.0421617 0.926735 0.0336519 1.13197 0.080669 1.32796L2.94809 11.9138H15.186V14.0808H2.94809L0.0373873 24.6341C-0.00673152 24.7978 -0.0118815 24.9696 0.0223514 25.1356C0.0565844 25.3016 0.129245 25.4573 0.234491 25.5901C0.339737 25.7229 0.474631 25.8291 0.628328 25.9001C0.782024 25.9712 0.950234 26.0052 1.11943 25.9994C1.28882 25.9983 1.4556 25.9575 1.60635 25.8802L25.4113 13.9616C25.5886 13.8707 25.7373 13.7326 25.8412 13.5624C25.945 13.3923 26 13.1967 26 12.9973C26 12.7979 25.945 12.6023 25.8412 12.4322C25.7373 12.262 25.5886 12.1239 25.4113 12.033Z" fill="white"/>
</svg>
