<svg width="20" height="20" viewBox="0 0 20 20" fill="none" xmlns="http://www.w3.org/2000/svg">
<path d="M19.7341 12.5411L18.1907 11.2916C18.2638 10.8669 18.3016 10.4332 18.3016 10.0018C18.3016 9.57041 18.2638 9.13452 18.1907 8.71205L19.7341 7.46252C19.8507 7.36799 19.9342 7.24207 19.9734 7.10152C20.0126 6.96097 20.0057 6.81245 19.9536 6.6757L19.9324 6.61758C19.5076 5.49254 18.8711 4.4497 18.0538 3.53959L18.0113 3.49264C17.9121 3.38211 17.7798 3.30266 17.6319 3.26475C17.4841 3.22684 17.3275 3.23226 17.183 3.28029L15.2666 3.92629C14.5586 3.37641 13.7704 2.94276 12.9161 2.641L12.5456 0.743235C12.5176 0.600271 12.4444 0.468746 12.3356 0.366136C12.2269 0.263526 12.0877 0.194687 11.9367 0.168765L11.873 0.157588C10.6458 -0.0525294 9.35248 -0.0525294 8.12528 0.157588L8.06156 0.168765C7.91051 0.194687 7.77136 0.263526 7.66261 0.366136C7.55385 0.468746 7.48063 0.600271 7.45268 0.743235L7.0798 2.64994C6.23356 2.95409 5.44524 3.38669 4.74575 3.93076L2.81527 3.28029C2.67076 3.23188 2.51411 3.22627 2.36615 3.2642C2.21819 3.30213 2.08592 3.38181 1.98691 3.49264L1.94443 3.53959C1.12855 4.45066 0.492241 5.49324 0.0658702 6.61758L0.0446302 6.6757C-0.0615699 6.95511 0.0257502 7.26805 0.26411 7.46252L1.82643 8.72546C1.75327 9.1457 1.71787 9.57488 1.71787 9.99958C1.71787 10.4288 1.75327 10.8579 1.82643 11.2737L0.26883 12.5366C0.152236 12.6312 0.0687882 12.7571 0.0295827 12.8976C-0.00962273 13.0382 -0.00272807 13.1867 0.0493501 13.3235L0.0705902 13.3816C0.497751 14.5059 1.12787 15.5453 1.94915 16.4596L1.99163 16.5065C2.09088 16.6171 2.22316 16.6965 2.37103 16.7344C2.5189 16.7723 2.67543 16.7669 2.81999 16.7189L4.75047 16.0684C5.45375 16.616 6.23728 17.0497 7.08452 17.3492L7.4574 19.2559C7.48535 19.3989 7.55857 19.5304 7.66733 19.633C7.77608 19.7356 7.91523 19.8045 8.06628 19.8304L8.13 19.8416C9.36927 20.0528 10.6384 20.0528 11.8777 19.8416L11.9414 19.8304C12.0924 19.8045 12.2316 19.7356 12.3404 19.633C12.4491 19.5304 12.5223 19.3989 12.5503 19.2559L12.9208 17.3582C13.7751 17.0542 14.5634 16.6228 15.2714 16.0729L17.1877 16.7189C17.3322 16.7673 17.4888 16.7729 17.6368 16.735C17.7848 16.697 17.917 16.6174 18.016 16.5065L18.0585 16.4596C18.8798 15.5409 19.5099 14.5059 19.9371 13.3816L19.9583 13.3235C20.0598 13.0463 19.9725 12.7356 19.7341 12.5411ZM10.0038 13.7079C7.71228 13.7079 5.85496 11.9488 5.85496 9.77829C5.85496 7.60782 7.71228 5.84864 10.0038 5.84864C12.2954 5.84864 14.1527 7.60782 14.1527 9.77829C14.1527 11.9488 12.2954 13.7079 10.0038 13.7079Z" fill="white"/>
</svg>
