<svg width="26" height="24" viewBox="0 0 26 24" fill="none" xmlns="http://www.w3.org/2000/svg">
<path d="M13 11.4783C11.9122 11.4783 10.8488 11.1417 9.94437 10.511C9.0399 9.88042 8.33495 8.98409 7.91866 7.9354C7.50238 6.88671 7.39346 5.73276 7.60568 4.61948C7.8179 3.5062 8.34173 2.48359 9.11091 1.68095C9.8801 0.878323 10.8601 0.331724 11.927 0.110278C12.9939 -0.111167 14.0998 0.00248669 15.1048 0.436868C16.1098 0.871249 16.9687 1.60685 17.5731 2.55064C18.1774 3.49444 18.5 4.60404 18.5 5.73913C18.4983 7.26071 17.9184 8.71948 16.8873 9.7954C15.8562 10.8713 14.4582 11.4765 13 11.4783ZM20.5 12.5217C19.4122 12.5217 18.3488 12.8583 17.4444 13.489C16.5399 14.1196 15.8349 15.0159 15.4187 16.0646C15.0024 17.1133 14.8935 18.2672 15.1057 19.3805C15.3179 20.4938 15.8417 21.5164 16.6109 22.319C17.3801 23.1217 18.3601 23.6683 19.427 23.8897C20.4939 24.1112 21.5998 23.9975 22.6048 23.5631C23.6098 23.1287 24.4687 22.3932 25.0731 21.4494C25.6774 20.5056 26 19.396 26 18.2609C25.9983 16.7393 25.4184 15.2805 24.3873 14.2046C23.3562 13.1287 21.9582 12.5235 20.5 12.5217ZM5.5 12.5217C4.4122 12.5217 3.34884 12.8583 2.44437 13.489C1.5399 14.1196 0.834947 15.0159 0.418665 16.0646C0.00238308 17.1133 -0.106535 18.2672 0.105683 19.3805C0.317902 20.4938 0.841726 21.5164 1.61092 22.319C2.3801 23.1217 3.36011 23.6683 4.42701 23.8897C5.4939 24.1112 6.59977 23.9975 7.60476 23.5631C8.60975 23.1287 9.46874 22.3932 10.0731 21.4494C10.6774 20.5056 11 19.396 11 18.2609C10.9983 16.7393 10.4184 15.2805 9.38726 14.2046C8.35617 13.1287 6.95818 12.5235 5.5 12.5217Z" fill="white"/>
</svg>
