<svg width="30" height="30" viewBox="0 0 30 30" fill="none" xmlns="http://www.w3.org/2000/svg">
<path d="M23.2276 0C21.5793 0 19.9742 0.195514 18.4195 0.548607V0.732449C18.3907 0.757617 18.3421 0.713846 18.2935 0.670074C18.245 0.626302 18.1964 0.58253 18.1676 0.607699C12.9564 1.85884 8.40017 4.89588 5.16117 8.3378C2.73623 10.9203 1.03107 13.729 0.336485 16.2824C-0.0104485 17.5518 -0.105459 18.7701 0.128469 19.8717C0.363117 20.966 0.950457 21.9363 1.88689 22.6074C2.33747 22.9284 2.88738 22.9795 3.42002 22.9138C3.95194 22.8482 4.50617 22.6658 5.10358 22.4104C6.02464 22.0303 7.05136 21.4831 8.15134 20.8969C8.48689 20.7181 8.82927 20.5356 9.17754 20.3532C12.0063 18.8722 15.2021 17.435 17.8869 17.7269L17.8005 17.6831C17.3038 17.3986 16.9799 16.9317 16.7928 16.3772C15.7275 16.4137 14.6551 16.6399 13.597 16.9681C13.2515 16.1365 12.9852 15.334 12.8124 14.5388C14.0792 14.0208 15.382 13.5612 16.7208 13.1527C16.8072 12.6785 16.9224 12.1824 17.0663 11.6718C15.5332 12.1168 14.0504 12.6274 12.6109 13.2038C12.5029 12.0146 12.6181 10.8401 12.9708 9.66555C14.8422 8.91413 16.7424 8.25756 18.6426 7.75418C18.7794 7.48425 18.9305 7.20703 19.0817 6.93711C19.2257 6.68177 19.3696 6.42643 19.5208 6.18569C17.527 6.64529 15.562 7.26539 13.6186 7.99493C14.072 7.06842 14.6838 6.12003 15.4684 5.15194C17.3182 4.72444 19.1681 4.43263 20.7588 4.31955C21.1259 3.82639 21.493 3.36678 21.8672 2.94584C20.4061 2.95898 18.7146 3.16179 16.9584 3.49445C17.4982 2.94657 18.0956 2.39067 18.7506 1.82601C20.1974 1.49846 21.6945 1.3168 23.2276 1.31461C23.3356 1.31461 23.4436 1.31461 23.5443 1.32191C24.1921 0.806861 24.8327 0.420939 25.4517 0.20208C25.5165 0.180194 25.5813 0.160497 25.6461 0.142258C24.8327 0.0481491 24.0194 0.00291819 23.2276 0.00291819V0ZM27.7622 0.732449C27.4167 0.725153 27.0569 0.795188 26.7042 0.917749C26.1355 1.11691 25.5597 1.45541 24.9767 1.90262C24.7104 2.0726 24.4369 2.27759 24.1489 2.5198C22.8677 3.60242 21.4282 5.39342 20.2118 7.57909C18.9881 9.76768 18.218 11.9344 17.9588 13.6123C17.9013 13.9844 17.8725 14.3345 17.8581 14.6482C17.7861 15.3851 17.8005 16.0635 17.9229 16.6545C18.0308 17.1578 18.2252 17.6247 18.5419 17.9822C18.5419 17.9822 11.0489 29.1056 11.2937 29.358C11.5385 29.6104 11.9485 30 12.4165 30C12.8846 30 19.6647 18.6242 19.6647 18.6242C20.1326 18.7117 20.6292 18.6461 21.1043 18.4783C21.8025 18.2375 22.515 17.7852 23.242 17.1724C24.6888 15.9395 26.1931 14.05 27.4743 11.7447C28.7627 9.44669 29.5905 7.16326 29.8856 5.27086C30.0295 4.33049 30.0439 3.47548 29.8928 2.7423C29.7344 2.00913 29.3817 1.35401 28.7627 0.997998C28.4532 0.820722 28.1149 0.739014 27.7622 0.732449ZM27.7262 2.04123C27.8846 2.04123 28.0214 2.07989 28.1221 2.14117C28.3381 2.263 28.518 2.51761 28.626 3.01661C28.7267 3.51853 28.7267 4.23055 28.5972 5.07024C28.3453 6.74013 27.5679 8.91413 26.3515 11.1027C25.1278 13.284 23.6955 15.0787 22.4071 16.1657C21.7665 16.7055 21.1619 17.0703 20.6868 17.2381C20.2046 17.4059 19.9023 17.3767 19.6863 17.2527C19.4776 17.1359 19.2904 16.8806 19.1825 16.3772C19.0817 15.8811 19.0817 15.1662 19.2113 14.3272C19.4704 12.6566 20.2405 10.4826 21.4642 8.30133C22.6806 6.11274 24.1202 4.32101 25.4014 3.23766C26.0492 2.6927 26.6466 2.32574 27.1216 2.1543C27.3664 2.07406 27.5607 2.03977 27.7262 2.04123ZM15.9579 2.65549C15.526 3.09613 15.1229 3.53457 14.7558 3.97229C13.5682 4.26046 12.3949 4.59604 11.2937 4.97029C12.7404 4.05546 14.3024 3.26465 15.9579 2.65549ZM13.4674 5.67137C12.8052 6.66718 12.2942 7.66664 11.9343 8.66609C10.1564 9.39562 8.41457 10.2127 6.70869 11.0662C7.0254 10.0303 7.48605 8.92143 8.11226 7.725C9.52303 6.98088 11.4376 6.25864 13.4674 5.67137ZM5.88095 9.47587C5.73518 9.85531 5.49055 10.1884 5.25282 10.5121C4.97404 10.8916 4.70474 11.2583 4.61538 11.6718C4.29792 11.8382 4.12258 12.0534 3.94779 12.2679C3.7778 12.4765 3.60834 12.6844 3.30917 12.8463C4.00232 11.7228 4.87326 10.5848 5.88095 9.47587ZM11.488 10.2784C11.2577 11.4237 11.2289 12.5691 11.3729 13.729C9.631 14.4877 7.96111 15.334 6.33441 16.2678C6.23364 15.7498 6.16886 15.21 6.16166 14.6482C6.15446 14.0427 6.19765 13.408 6.31281 12.7442C7.9971 11.8687 9.73176 11.0371 11.488 10.2784ZM4.90924 13.4737C4.87325 13.8822 4.85886 14.2835 4.86606 14.6701C4.88045 15.4726 4.98842 16.2313 5.16836 16.9609C3.87276 17.7487 2.60739 18.595 1.37297 19.4777C1.22541 18.6825 1.29307 17.705 1.58602 16.6253C1.7307 16.0927 1.9308 15.5383 2.182 14.9692C3.07669 14.4659 3.98793 13.9698 4.90924 13.4737ZM11.6104 15.0495C11.7903 15.8301 12.0495 16.6107 12.3806 17.3986C11.0562 17.9165 9.77495 18.5658 8.58012 19.1859C8.3138 19.3245 8.05468 19.4631 7.80276 19.6018C7.3493 18.9525 6.98221 18.2813 6.71589 17.5664C8.29221 16.6399 9.91891 15.8009 11.6104 15.0495ZM5.59303 18.2375C5.87375 18.9306 6.22644 19.5872 6.64391 20.2073C5.89534 20.6012 5.21155 20.9514 4.61413 21.1994C4.0743 21.4256 3.60428 21.5715 3.26095 21.6153C2.91761 21.659 2.73767 21.608 2.63402 21.5277C2.31516 21.3016 2.06036 21.0389 1.8617 20.7398C3.07597 19.8571 4.31183 19.0181 5.59303 18.2375Z" fill="white"/>
<path d="M23.2276 0C21.5793 0 19.9742 0.195514 18.4195 0.548607V0.732449C18.3907 0.757617 18.3421 0.713846 18.2935 0.670074C18.245 0.626302 18.1964 0.58253 18.1676 0.607699C12.9564 1.85884 8.40017 4.89588 5.16117 8.3378C2.73623 10.9203 1.03107 13.729 0.336485 16.2824C-0.0104485 17.5518 -0.105459 18.7701 0.128469 19.8717C0.363117 20.966 0.950457 21.9363 1.88689 22.6074C2.33747 22.9284 2.88738 22.9795 3.42002 22.9138C3.95194 22.8482 4.50617 22.6658 5.10358 22.4104C6.02464 22.0303 7.05136 21.4831 8.15134 20.8969C8.48689 20.7181 8.82927 20.5356 9.17754 20.3532C12.0063 18.8722 15.2021 17.435 17.8869 17.7269L17.8005 17.6831C17.3038 17.3986 16.9799 16.9317 16.7928 16.3772C15.7275 16.4137 14.6551 16.6399 13.597 16.9681C13.2515 16.1365 12.9852 15.334 12.8124 14.5388C14.0792 14.0208 15.382 13.5612 16.7208 13.1527C16.8072 12.6785 16.9224 12.1824 17.0663 11.6718C15.5332 12.1168 14.0504 12.6274 12.6109 13.2038C12.5029 12.0146 12.6181 10.8401 12.9708 9.66555C14.8422 8.91413 16.7424 8.25756 18.6426 7.75418C18.7794 7.48425 18.9305 7.20703 19.0817 6.93711C19.2257 6.68177 19.3696 6.42643 19.5208 6.18569C17.527 6.64529 15.562 7.26539 13.6186 7.99493C14.072 7.06842 14.6838 6.12003 15.4684 5.15194C17.3182 4.72444 19.1681 4.43263 20.7588 4.31955C21.1259 3.82639 21.493 3.36678 21.8672 2.94584C20.4061 2.95898 18.7146 3.16179 16.9584 3.49445C17.4982 2.94657 18.0956 2.39067 18.7506 1.82601C20.1974 1.49846 21.6945 1.3168 23.2276 1.31461C23.3356 1.31461 23.4436 1.31461 23.5443 1.32191C24.1921 0.806861 24.8327 0.420939 25.4517 0.20208C25.5165 0.180194 25.5813 0.160497 25.6461 0.142258C24.8327 0.0481491 24.0194 0.00291819 23.2276 0.00291819V0ZM27.7622 0.732449C27.4167 0.725153 27.0569 0.795188 26.7042 0.917749C26.1355 1.11691 25.5597 1.45541 24.9767 1.90262C24.7104 2.0726 24.4369 2.27759 24.1489 2.5198C22.8677 3.60242 21.4282 5.39342 20.2118 7.57909C18.9881 9.76768 18.218 11.9344 17.9588 13.6123C17.9013 13.9844 17.8725 14.3345 17.8581 14.6482C17.7861 15.3851 17.8005 16.0635 17.9229 16.6545C18.0308 17.1578 18.2252 17.6247 18.5419 17.9822C18.5419 17.9822 11.0489 29.1056 11.2937 29.358C11.5385 29.6104 11.9485 30 12.4165 30C12.8846 30 19.6647 18.6242 19.6647 18.6242C20.1326 18.7117 20.6292 18.6461 21.1043 18.4783C21.8025 18.2375 22.515 17.7852 23.242 17.1724C24.6888 15.9395 26.1931 14.05 27.4743 11.7447C28.7627 9.44669 29.5905 7.16326 29.8856 5.27086C30.0295 4.33049 30.0439 3.47548 29.8928 2.7423C29.7344 2.00913 29.3817 1.35401 28.7627 0.997998C28.4532 0.820722 28.1149 0.739014 27.7622 0.732449ZM27.7262 2.04123C27.8846 2.04123 28.0214 2.07989 28.1221 2.14117C28.3381 2.263 28.518 2.51761 28.626 3.01661C28.7267 3.51853 28.7267 4.23055 28.5972 5.07024C28.3453 6.74013 27.5679 8.91413 26.3515 11.1027C25.1278 13.284 23.6955 15.0787 22.4071 16.1657C21.7665 16.7055 21.1619 17.0703 20.6868 17.2381C20.2046 17.4059 19.9023 17.3767 19.6863 17.2527C19.4776 17.1359 19.2904 16.8806 19.1825 16.3772C19.0817 15.8811 19.0817 15.1662 19.2113 14.3272C19.4704 12.6566 20.2405 10.4826 21.4642 8.30133C22.6806 6.11274 24.1202 4.32101 25.4014 3.23766C26.0492 2.6927 26.6466 2.32574 27.1216 2.1543C27.3664 2.07406 27.5607 2.03977 27.7262 2.04123ZM15.9579 2.65549C15.526 3.09613 15.1229 3.53457 14.7558 3.97229C13.5682 4.26046 12.3949 4.59604 11.2937 4.97029C12.7404 4.05546 14.3024 3.26465 15.9579 2.65549ZM13.4674 5.67137C12.8052 6.66718 12.2942 7.66664 11.9343 8.66609C10.1564 9.39562 8.41457 10.2127 6.70869 11.0662C7.0254 10.0303 7.48605 8.92143 8.11226 7.725C9.52303 6.98088 11.4376 6.25864 13.4674 5.67137ZM5.88095 9.47587C5.73518 9.85531 5.49055 10.1884 5.25282 10.5121C4.97404 10.8916 4.70474 11.2583 4.61538 11.6718C4.29792 11.8382 4.12258 12.0534 3.94779 12.2679C3.7778 12.4765 3.60834 12.6844 3.30917 12.8463C4.00232 11.7228 4.87326 10.5848 5.88095 9.47587ZM11.488 10.2784C11.2577 11.4237 11.2289 12.5691 11.3729 13.729C9.631 14.4877 7.96111 15.334 6.33441 16.2678C6.23364 15.7498 6.16886 15.21 6.16166 14.6482C6.15446 14.0427 6.19765 13.408 6.31281 12.7442C7.9971 11.8687 9.73176 11.0371 11.488 10.2784ZM4.90924 13.4737C4.87325 13.8822 4.85886 14.2835 4.86606 14.6701C4.88045 15.4726 4.98842 16.2313 5.16836 16.9609C3.87276 17.7487 2.60739 18.595 1.37297 19.4777C1.22541 18.6825 1.29307 17.705 1.58602 16.6253C1.7307 16.0927 1.9308 15.5383 2.182 14.9692C3.07669 14.4659 3.98793 13.9698 4.90924 13.4737ZM11.6104 15.0495C11.7903 15.8301 12.0495 16.6107 12.3806 17.3986C11.0562 17.9165 9.77495 18.5658 8.58012 19.1859C8.3138 19.3245 8.05468 19.4631 7.80276 19.6018C7.3493 18.9525 6.98221 18.2813 6.71589 17.5664C8.29221 16.6399 9.91891 15.8009 11.6104 15.0495ZM5.59303 18.2375C5.87375 18.9306 6.22644 19.5872 6.64391 20.2073C5.89534 20.6012 5.21155 20.9514 4.61413 21.1994C4.0743 21.4256 3.60428 21.5715 3.26095 21.6153C2.91761 21.659 2.73767 21.608 2.63402 21.5277C2.31516 21.3016 2.06036 21.0389 1.8617 20.7398C3.07597 19.8571 4.31183 19.0181 5.59303 18.2375Z" stroke="#2F2410"/>
</svg>
