<svg width="26" height="27" viewBox="0 0 26 27" fill="none" xmlns="http://www.w3.org/2000/svg">
<path d="M20.1306 0.5C18.7021 0.5 17.311 0.669446 15.9636 0.975459V1.13479C15.9386 1.1566 15.8965 1.11867 15.8544 1.08073C15.8123 1.0428 15.7702 1.00486 15.7452 1.02667C11.2289 2.111 7.28015 4.7431 4.47301 7.7261C2.3714 9.9643 0.893596 12.3985 0.291621 14.6114C-0.00905536 15.7115 -0.091398 16.7674 0.11134 17.7221C0.314701 18.6705 0.823729 19.5114 1.6353 20.0931C2.02581 20.3713 2.5024 20.4156 2.96402 20.3586C3.42501 20.3017 3.90535 20.1437 4.42311 19.9224C5.22135 19.5929 6.11116 19.1187 7.06447 18.6107C7.35529 18.4557 7.65202 18.2976 7.95386 18.1394C10.4054 16.8559 13.1751 15.6104 15.5019 15.8633L15.4271 15.8253C14.9967 15.5788 14.716 15.1741 14.5538 14.6936C13.6305 14.7252 12.701 14.9212 11.784 15.2057C11.4846 14.485 11.2538 13.7895 11.1041 13.1003C12.202 12.6514 13.3311 12.2531 14.4914 11.899C14.5662 11.488 14.666 11.0581 14.7908 10.6155C13.4621 11.0012 12.177 11.4438 10.9294 11.9433C10.8359 10.9127 10.9357 9.89475 11.2413 8.87681C12.8632 8.22558 14.5101 7.65655 16.157 7.22029C16.2755 6.98635 16.4065 6.74609 16.5375 6.51216L16.5375 6.51208C16.6623 6.29081 16.787 6.06955 16.918 5.86093C15.19 6.25925 13.487 6.79668 11.8028 7.42894C12.1958 6.62597 12.726 5.80403 13.406 4.96502C15.0091 4.59451 16.6123 4.34161 17.9909 4.24361C18.3091 3.8162 18.6272 3.41788 18.9516 3.05306C17.6853 3.06445 16.2193 3.24021 14.6972 3.52852C15.1651 3.0537 15.6829 2.57192 16.2505 2.08255C17.5044 1.79866 18.8019 1.64123 20.1306 1.63933C20.2242 1.63933 20.3178 1.63933 20.4051 1.64565C20.9665 1.19928 21.5217 0.864814 22.0582 0.675136C22.1143 0.656168 22.1705 0.639097 22.2266 0.623291C21.5217 0.541729 20.8168 0.502529 20.1306 0.502529V0.5ZM24.0606 1.13479C23.7612 1.12847 23.4493 1.18916 23.1436 1.29538C22.6508 1.46799 22.1518 1.76136 21.6465 2.14893C21.4157 2.29625 21.1786 2.47391 20.9291 2.68383C19.8187 3.6221 18.5711 5.1743 17.5169 7.06855C16.4564 8.96533 15.7889 10.8431 15.5643 12.2973C15.5144 12.6198 15.4895 12.9233 15.477 13.1951C15.4146 13.8337 15.4271 14.4217 15.5331 14.9339C15.6267 15.3701 15.7951 15.7748 16.0696 16.0846C16.0696 16.0846 9.57573 25.7249 9.78786 25.9436C10 26.1623 10.3553 26.5 10.761 26.5C11.1667 26.5 17.0428 16.641 17.0428 16.641C17.4482 16.7168 17.8787 16.6599 18.2904 16.5145C18.8955 16.3059 19.513 15.9139 20.1431 15.3828C21.3969 14.3142 22.7007 12.6767 23.8111 10.6787C24.9277 8.68713 25.6451 6.70816 25.9008 5.06808C26.0256 4.25309 26.0381 3.51209 25.9071 2.87666C25.7698 2.24124 25.4642 1.67347 24.9277 1.36493C24.6595 1.21129 24.3663 1.14048 24.0606 1.13479ZM24.0294 2.26906C24.1667 2.26906 24.2852 2.30257 24.3725 2.35568C24.5597 2.46127 24.7156 2.68193 24.8092 3.11439C24.8965 3.54939 24.8965 4.16647 24.7842 4.89421C24.5659 6.34145 23.8922 8.22558 22.8379 10.1224C21.7775 12.0128 20.5361 13.5682 19.4195 14.5102C18.8643 14.9781 18.3403 15.2942 17.9286 15.4397C17.5106 15.5851 17.2486 15.5598 17.0615 15.4523C16.8806 15.3512 16.7184 15.1299 16.6248 14.6936C16.5375 14.2637 16.5375 13.644 16.6498 12.9169C16.8743 11.4691 17.5418 9.58494 18.6023 7.69448C19.6565 5.7977 20.9041 4.24487 22.0145 3.30597C22.5759 2.83367 23.0937 2.51564 23.5054 2.36706C23.7175 2.29751 23.8859 2.2678 24.0294 2.26906ZM13.8301 2.80143C13.4559 3.18331 13.1065 3.5633 12.7884 3.94265C11.7591 4.1924 10.7423 4.48324 9.78786 4.80759C11.0417 4.01473 12.3954 3.32936 13.8301 2.80143ZM11.6718 5.41519C11.0979 6.27822 10.655 7.14442 10.3431 8.01061C8.80224 8.64287 7.29263 9.351 5.8142 10.0907C6.08868 9.19294 6.48791 8.2319 7.03063 7.195C8.25329 6.55009 9.91262 5.92416 11.6718 5.41519ZM5.09682 8.71242C4.97049 9.04127 4.75848 9.32993 4.55244 9.61046C4.31084 9.93943 4.07744 10.2572 4 10.6155C3.72486 10.7598 3.5729 10.9463 3.42142 11.1322C3.27409 11.3129 3.12722 11.4932 2.86795 11.6335C3.46868 10.6598 4.22349 9.67346 5.09682 8.71242ZM9.95629 9.40791C9.75667 10.4006 9.73172 11.3932 9.85648 12.3985C8.34686 13.056 6.89963 13.7895 5.48982 14.5988C5.40249 14.1499 5.34634 13.682 5.34011 13.1951C5.33387 12.6704 5.3713 12.1203 5.47111 11.5449C6.93082 10.7862 8.4342 10.0655 9.95629 9.40791ZM4.25468 12.1772C4.22349 12.5313 4.21101 12.879 4.21725 13.2141C4.22973 13.9096 4.3233 14.5671 4.47925 15.1994C3.35639 15.8822 2.25974 16.6157 1.18991 17.3807C1.06202 16.6915 1.12066 15.8443 1.37455 14.9086C1.49994 14.447 1.67336 13.9665 1.89107 13.4733C2.66646 13.0371 3.4562 12.6071 4.25468 12.1772ZM10.0623 13.5429C10.2183 14.2194 10.4429 14.8959 10.7298 15.5788C9.582 16.0277 8.47163 16.5904 7.4361 17.1278C7.20529 17.2479 6.98072 17.3681 6.76239 17.4882C6.36939 16.9255 6.05125 16.3438 5.82044 15.7242C7.18658 14.9212 8.59639 14.1941 10.0623 13.5429ZM4.8473 16.3059C5.09058 16.9065 5.39625 17.4755 5.75806 18.013C5.1093 18.3544 4.51668 18.6579 3.99892 18.8728C3.53106 19.0688 3.12371 19.1953 2.82616 19.2332C2.5286 19.2712 2.37265 19.2269 2.28282 19.1574C2.00647 18.9614 1.78564 18.7337 1.61347 18.4745C2.66584 17.7095 3.73692 16.9824 4.8473 16.3059Z" fill="white"/>
<path d="M20.1306 0.5C18.7021 0.5 17.311 0.669446 15.9636 0.975459V1.13479C15.9386 1.1566 15.8965 1.11867 15.8544 1.08073C15.8123 1.0428 15.7702 1.00486 15.7452 1.02667C11.2289 2.111 7.28015 4.7431 4.47301 7.7261C2.3714 9.9643 0.893596 12.3985 0.291621 14.6114C-0.00905536 15.7115 -0.091398 16.7674 0.11134 17.7221C0.314701 18.6705 0.823729 19.5114 1.6353 20.0931C2.02581 20.3713 2.5024 20.4156 2.96402 20.3586C3.42501 20.3017 3.90535 20.1437 4.42311 19.9224C5.22135 19.5929 6.11116 19.1187 7.06447 18.6107C7.35529 18.4557 7.65202 18.2976 7.95386 18.1394C10.4054 16.8559 13.1751 15.6104 15.5019 15.8633L15.4271 15.8253C14.9967 15.5788 14.716 15.1741 14.5538 14.6936C13.6305 14.7252 12.701 14.9212 11.784 15.2057C11.4846 14.485 11.2538 13.7895 11.1041 13.1003C12.202 12.6514 13.3311 12.2531 14.4914 11.899C14.5662 11.488 14.666 11.0581 14.7908 10.6155C13.4621 11.0012 12.177 11.4438 10.9294 11.9433C10.8359 10.9127 10.9357 9.89475 11.2413 8.87681C12.8632 8.22558 14.5101 7.65655 16.157 7.22029C16.2755 6.98635 16.4065 6.74609 16.5375 6.51216L16.5375 6.51208C16.6623 6.29081 16.787 6.06955 16.918 5.86093C15.19 6.25925 13.487 6.79668 11.8028 7.42894C12.1958 6.62597 12.726 5.80403 13.406 4.96502C15.0091 4.59451 16.6123 4.34161 17.9909 4.24361C18.3091 3.8162 18.6272 3.41788 18.9516 3.05306C17.6853 3.06445 16.2193 3.24021 14.6972 3.52852C15.1651 3.0537 15.6829 2.57192 16.2505 2.08255C17.5044 1.79866 18.8019 1.64123 20.1306 1.63933C20.2242 1.63933 20.3178 1.63933 20.4051 1.64565C20.9665 1.19928 21.5217 0.864814 22.0582 0.675136C22.1143 0.656168 22.1705 0.639097 22.2266 0.623291C21.5217 0.541729 20.8168 0.502529 20.1306 0.502529V0.5ZM24.0606 1.13479C23.7612 1.12847 23.4493 1.18916 23.1436 1.29538C22.6508 1.46799 22.1518 1.76136 21.6465 2.14893C21.4157 2.29625 21.1786 2.47391 20.9291 2.68383C19.8187 3.6221 18.5711 5.1743 17.5169 7.06855C16.4564 8.96533 15.7889 10.8431 15.5643 12.2973C15.5144 12.6198 15.4895 12.9233 15.477 13.1951C15.4146 13.8337 15.4271 14.4217 15.5331 14.9339C15.6267 15.3701 15.7951 15.7748 16.0696 16.0846C16.0696 16.0846 9.57573 25.7249 9.78786 25.9436C10 26.1623 10.3553 26.5 10.761 26.5C11.1667 26.5 17.0428 16.641 17.0428 16.641C17.4482 16.7168 17.8787 16.6599 18.2904 16.5145C18.8955 16.3059 19.513 15.9139 20.1431 15.3828C21.3969 14.3142 22.7007 12.6767 23.8111 10.6787C24.9277 8.68713 25.6451 6.70816 25.9008 5.06808C26.0256 4.25309 26.0381 3.51209 25.9071 2.87666C25.7698 2.24124 25.4642 1.67347 24.9277 1.36493C24.6595 1.21129 24.3663 1.14048 24.0606 1.13479ZM24.0294 2.26906C24.1667 2.26906 24.2852 2.30257 24.3725 2.35568C24.5597 2.46127 24.7156 2.68193 24.8092 3.11439C24.8965 3.54939 24.8965 4.16647 24.7842 4.89421C24.5659 6.34145 23.8922 8.22558 22.8379 10.1224C21.7775 12.0128 20.5361 13.5682 19.4195 14.5102C18.8643 14.9781 18.3403 15.2942 17.9286 15.4397C17.5106 15.5851 17.2486 15.5598 17.0615 15.4523C16.8806 15.3512 16.7184 15.1299 16.6248 14.6936C16.5375 14.2637 16.5375 13.644 16.6498 12.9169C16.8743 11.4691 17.5418 9.58494 18.6023 7.69448C19.6565 5.7977 20.9041 4.24487 22.0145 3.30597C22.5759 2.83367 23.0937 2.51564 23.5054 2.36706C23.7175 2.29751 23.8859 2.2678 24.0294 2.26906ZM13.8301 2.80143C13.4559 3.18331 13.1065 3.5633 12.7884 3.94265C11.7591 4.1924 10.7423 4.48324 9.78786 4.80759C11.0417 4.01473 12.3954 3.32936 13.8301 2.80143ZM11.6718 5.41519C11.0979 6.27822 10.655 7.14442 10.3431 8.01061C8.80224 8.64287 7.29263 9.351 5.8142 10.0907C6.08868 9.19294 6.48791 8.2319 7.03063 7.195C8.25329 6.55009 9.91262 5.92416 11.6718 5.41519ZM5.09682 8.71242C4.97049 9.04127 4.75848 9.32993 4.55244 9.61046C4.31084 9.93943 4.07744 10.2572 4 10.6155C3.72486 10.7598 3.5729 10.9463 3.42142 11.1322C3.27409 11.3129 3.12722 11.4932 2.86795 11.6335C3.46868 10.6598 4.22349 9.67346 5.09682 8.71242ZM9.95629 9.40791C9.75667 10.4006 9.73172 11.3932 9.85648 12.3985C8.34686 13.056 6.89963 13.7895 5.48982 14.5988C5.40249 14.1499 5.34634 13.682 5.34011 13.1951C5.33387 12.6704 5.3713 12.1203 5.47111 11.5449C6.93082 10.7862 8.4342 10.0655 9.95629 9.40791ZM4.25468 12.1772C4.22349 12.5313 4.21101 12.879 4.21725 13.2141C4.22973 13.9096 4.3233 14.5671 4.47925 15.1994C3.35639 15.8822 2.25974 16.6157 1.18991 17.3807C1.06202 16.6915 1.12066 15.8443 1.37455 14.9086C1.49994 14.447 1.67336 13.9665 1.89107 13.4733C2.66646 13.0371 3.4562 12.6071 4.25468 12.1772ZM10.0623 13.5429C10.2183 14.2194 10.4429 14.8959 10.7298 15.5788C9.582 16.0277 8.47163 16.5904 7.4361 17.1278C7.20529 17.2479 6.98072 17.3681 6.76239 17.4882C6.36939 16.9255 6.05125 16.3438 5.82044 15.7242C7.18658 14.9212 8.59639 14.1941 10.0623 13.5429ZM4.8473 16.3059C5.09058 16.9065 5.39625 17.4755 5.75806 18.013C5.1093 18.3544 4.51668 18.6579 3.99892 18.8728C3.53106 19.0688 3.12371 19.1953 2.82616 19.2332C2.5286 19.2712 2.37265 19.2269 2.28282 19.1574C2.00647 18.9614 1.78564 18.7337 1.61347 18.4745C2.66584 17.7095 3.73692 16.9824 4.8473 16.3059Z" stroke="#2F2410"/>
</svg>
