<svg width="24" height="27" viewBox="0 0 24 27" fill="none" xmlns="http://www.w3.org/2000/svg">
<path d="M12 11.7822C13.6824 11.7822 15.0948 12.8561 15.4938 14.3081C15.9954 16.1286 15.9276 18.1238 18.1326 19.1598C20.0898 19.7872 20.8302 20.5757 20.8302 22.6895C20.8302 24.3767 19.2978 26.1701 17.322 26.3939C15.1128 26.7065 13.3932 26.2978 11.9994 25.5495C10.6056 26.2978 8.88544 26.707 6.67925 26.3939C4.70226 26.1701 3.17046 24.3705 3.17046 22.6895C3.17046 20.6209 3.96066 19.7454 5.91425 19.1457C8.31844 17.9887 7.99564 15.9607 8.53204 14.2188C8.75255 13.5139 9.20975 12.8954 9.83504 12.4561C10.4603 12.0168 11.22 11.7803 12 11.7822ZM23.0142 10.5251C22.4184 10.0374 19.9866 11.9416 19.2216 12.8832C18.7566 13.3857 18.4674 14.0763 18.4674 14.8382C18.4674 16.3705 19.6314 17.6128 21.0636 17.6128C22.1532 17.6128 23.0856 16.899 23.4714 15.8839C24.2208 14.0583 24.2622 11.5459 23.0142 10.5251ZM0.984672 10.5251C-0.261522 11.5459 -0.221322 14.0583 0.529274 15.8839C0.915073 16.899 1.84687 17.6128 2.93586 17.6128C4.36926 17.6128 5.53205 16.3705 5.53205 14.8382C5.53205 14.0763 5.24345 13.3857 4.77846 12.8832C4.01286 11.9416 1.58167 10.0374 0.984672 10.5251ZM15.201 0.517003C21.2538 1.48464 20.829 11.0875 15.9828 10.3138C14.5848 10.0899 13.5468 8.89056 13.389 7.45776C13.2288 6.00065 12.8682 0.145096 15.201 0.517003ZM8.79904 0.517003C11.1324 0.144531 10.7712 6.00008 10.611 7.45719C10.4532 8.89056 9.41644 10.0894 8.01844 10.3132C3.17106 11.0881 2.74687 1.48464 8.79904 0.517003Z" fill="white"/>
</svg>
